%TF.GenerationSoftware,KiCad,Pcbnew,10.0.6*%
%TF.CreationDate,2026-09-20T14:32:54-04:00*%
%TF.ProjectId,USBC_M2E_HaLow_Adapter,55534243-5f4d-4324-955f-48614c6f775f,rev?*%
%TF.SameCoordinates,Original*%
%TF.FileFunction,Drillmap*%
%TF.FilePolarity,Positive*%
%FSLAX45Y45*%
G04 Gerber Fmt 4.5, Leading zero omitted, Abs format (unit mm)*
G04 Created by KiCad (PCBNEW 10.0.6) date 2026-09-20 14:32:54*
%MOMM*%
%LPD*%
G01*
G04 APERTURE LIST*
%ADD10C,0.100000*%
%ADD11C,0.200000*%
%ADD12C,0.320000*%
%ADD13C,0.370001*%
G04 APERTURE END LIST*
D10*
X0Y-200000D02*
G75*
G02*
X200000Y0I200000J0D01*
G01*
X0Y-3850000D02*
X0Y-200000D01*
X200000Y0D02*
X5450000Y0D01*
X200000Y-4050000D02*
G75*
G02*
X0Y-3850000I0J200000D01*
G01*
X5450000Y0D02*
G75*
G02*
X5650000Y-200000I0J-200000D01*
G01*
X5450000Y-4050000D02*
X200000Y-4050000D01*
X5650000Y-200000D02*
X5650000Y-3850000D01*
X5650000Y-3850000D02*
G75*
G02*
X5450000Y-4050000I-200000J0D01*
G01*
D11*
D10*
X815000Y-415000D02*
X845000Y-445000D01*
X845000Y-415000D02*
X815000Y-445000D01*
X845000Y-2045000D02*
X875000Y-2075000D01*
X875000Y-2045000D02*
X845000Y-2075000D01*
X845000Y-2180000D02*
X875000Y-2210000D01*
X875000Y-2180000D02*
X845000Y-2210000D01*
X845000Y-2435000D02*
X875000Y-2465000D01*
X875000Y-2435000D02*
X845000Y-2465000D01*
X917000Y-635000D02*
X947000Y-665000D01*
X947000Y-635000D02*
X917000Y-665000D01*
X945000Y-2100000D02*
X975000Y-2130000D01*
X975000Y-2100000D02*
X945000Y-2130000D01*
X945000Y-2250000D02*
X975000Y-2280000D01*
X975000Y-2250000D02*
X945000Y-2280000D01*
X1155000Y-1895000D02*
X1185000Y-1925000D01*
X1185000Y-1895000D02*
X1155000Y-1925000D01*
X1165000Y-2350000D02*
X1195000Y-2380000D01*
X1195000Y-2350000D02*
X1165000Y-2380000D01*
X1185000Y-1185000D02*
X1215000Y-1215000D01*
X1215000Y-1185000D02*
X1185000Y-1215000D01*
X1185000Y-2985000D02*
X1215000Y-3015000D01*
X1215000Y-2985000D02*
X1185000Y-3015000D01*
X1285000Y-415000D02*
X1315000Y-445000D01*
X1315000Y-415000D02*
X1285000Y-445000D01*
X1315000Y-1745000D02*
X1345000Y-1775000D01*
X1345000Y-1745000D02*
X1315000Y-1775000D01*
X1315000Y-2135000D02*
X1345000Y-2165000D01*
X1345000Y-2135000D02*
X1315000Y-2165000D01*
X1389000Y-625000D02*
X1419000Y-655000D01*
X1419000Y-625000D02*
X1389000Y-655000D01*
X1435000Y-2685000D02*
X1465000Y-2715000D01*
X1465000Y-2685000D02*
X1435000Y-2715000D01*
X1500000Y-415000D02*
X1530000Y-445000D01*
X1530000Y-415000D02*
X1500000Y-445000D01*
X1505000Y-2495000D02*
X1535000Y-2525000D01*
X1535000Y-2495000D02*
X1505000Y-2525000D01*
X1585000Y-585000D02*
X1615000Y-615000D01*
X1615000Y-585000D02*
X1585000Y-615000D01*
X1685000Y-2015000D02*
X1715000Y-2045000D01*
X1715000Y-2015000D02*
X1685000Y-2045000D01*
X1925000Y-3355000D02*
X1955000Y-3385000D01*
X1955000Y-3355000D02*
X1925000Y-3385000D01*
X1985000Y-885000D02*
X2015000Y-915000D01*
X2015000Y-885000D02*
X1985000Y-915000D01*
X2165000Y-2265000D02*
X2195000Y-2295000D01*
X2195000Y-2265000D02*
X2165000Y-2295000D01*
X2165000Y-2495000D02*
X2195000Y-2525000D01*
X2195000Y-2495000D02*
X2165000Y-2525000D01*
X2205000Y-2735000D02*
X2235000Y-2765000D01*
X2235000Y-2735000D02*
X2205000Y-2765000D01*
X2562000Y-3625000D02*
X2592000Y-3655000D01*
X2592000Y-3625000D02*
X2562000Y-3655000D01*
X2813000Y-1365000D02*
X2843000Y-1395000D01*
X2843000Y-1365000D02*
X2813000Y-1395000D01*
X2813000Y-2905000D02*
X2843000Y-2935000D01*
X2843000Y-2905000D02*
X2813000Y-2935000D01*
X3285000Y-2135000D02*
X3315000Y-2165000D01*
X3315000Y-2135000D02*
X3285000Y-2165000D01*
X3485000Y-885000D02*
X3515000Y-915000D01*
X3515000Y-885000D02*
X3485000Y-915000D01*
X3485000Y-3435000D02*
X3515000Y-3465000D01*
X3515000Y-3435000D02*
X3485000Y-3465000D01*
X3985000Y-2135000D02*
X4015000Y-2165000D01*
X4015000Y-2135000D02*
X3985000Y-2165000D01*
X4485000Y-885000D02*
X4515000Y-915000D01*
X4515000Y-885000D02*
X4485000Y-915000D01*
X4485000Y-3435000D02*
X4515000Y-3465000D01*
X4515000Y-3435000D02*
X4485000Y-3465000D01*
X960000Y-1615000D02*
G75*
G02*
X920000Y-1615000I-20000J0D01*
G01*
X920000Y-1615000D02*
G75*
G02*
X960000Y-1615000I20000J0D01*
G01*
X1055000Y-1615000D02*
G75*
G02*
X1015000Y-1615000I-20000J0D01*
G01*
X1015000Y-1615000D02*
G75*
G02*
X1055000Y-1615000I20000J0D01*
G01*
X1520000Y-220000D02*
G75*
G02*
X1480000Y-220000I-20000J0D01*
G01*
X1480000Y-220000D02*
G75*
G02*
X1520000Y-220000I20000J0D01*
G01*
X1640000Y-220000D02*
G75*
G02*
X1600000Y-220000I-20000J0D01*
G01*
X1600000Y-220000D02*
G75*
G02*
X1640000Y-220000I20000J0D01*
G01*
X1840000Y-800000D02*
G75*
G02*
X1800000Y-800000I-20000J0D01*
G01*
X1800000Y-800000D02*
G75*
G02*
X1840000Y-800000I20000J0D01*
G01*
X2150000Y-175000D02*
G75*
G02*
X2110000Y-175000I-20000J0D01*
G01*
X2110000Y-175000D02*
G75*
G02*
X2150000Y-175000I20000J0D01*
G01*
X2150000Y-685000D02*
G75*
G02*
X2110000Y-685000I-20000J0D01*
G01*
X2110000Y-685000D02*
G75*
G02*
X2150000Y-685000I20000J0D01*
G01*
X2827000Y-3810000D02*
G75*
G02*
X2787000Y-3810000I-20000J0D01*
G01*
X2787000Y-3810000D02*
G75*
G02*
X2827000Y-3810000I20000J0D01*
G01*
X3310000Y-320000D02*
G75*
G02*
X3270000Y-320000I-20000J0D01*
G01*
X3270000Y-320000D02*
G75*
G02*
X3310000Y-320000I20000J0D01*
G01*
X3310000Y-540000D02*
G75*
G02*
X3270000Y-540000I-20000J0D01*
G01*
X3270000Y-540000D02*
G75*
G02*
X3310000Y-540000I20000J0D01*
G01*
X160000Y-375000D02*
X160000Y-425000D01*
X135000Y-400000D02*
X185000Y-400000D01*
X160000Y-3625000D02*
X160000Y-3675000D01*
X135000Y-3650000D02*
X185000Y-3650000D01*
X230294Y-205294D02*
X230294Y-255294D01*
X205294Y-230294D02*
X255294Y-230294D01*
X230294Y-544706D02*
X230294Y-594706D01*
X205294Y-569706D02*
X255294Y-569706D01*
X230294Y-3455294D02*
X230294Y-3505294D01*
X205294Y-3480294D02*
X255294Y-3480294D01*
X230294Y-3794706D02*
X230294Y-3844706D01*
X205294Y-3819706D02*
X255294Y-3819706D01*
X400000Y-135000D02*
X400000Y-185000D01*
X375000Y-160000D02*
X425000Y-160000D01*
X400000Y-615000D02*
X400000Y-665000D01*
X375000Y-640000D02*
X425000Y-640000D01*
X400000Y-3385000D02*
X400000Y-3435000D01*
X375000Y-3410000D02*
X425000Y-3410000D01*
X400000Y-3865000D02*
X400000Y-3915000D01*
X375000Y-3890000D02*
X425000Y-3890000D01*
X569706Y-205294D02*
X569706Y-255294D01*
X544706Y-230294D02*
X594706Y-230294D01*
X569706Y-544706D02*
X569706Y-594706D01*
X544706Y-569706D02*
X594706Y-569706D01*
X569706Y-3455294D02*
X569706Y-3505294D01*
X544706Y-3480294D02*
X594706Y-3480294D01*
X569706Y-3794706D02*
X569706Y-3844706D01*
X544706Y-3819706D02*
X594706Y-3819706D01*
X640000Y-375000D02*
X640000Y-425000D01*
X615000Y-400000D02*
X665000Y-400000D01*
X640000Y-3625000D02*
X640000Y-3675000D01*
X615000Y-3650000D02*
X665000Y-3650000D01*
X5010000Y-375000D02*
X5010000Y-425000D01*
X4985000Y-400000D02*
X5035000Y-400000D01*
X5010000Y-3625000D02*
X5010000Y-3675000D01*
X4985000Y-3650000D02*
X5035000Y-3650000D01*
X5080294Y-205294D02*
X5080294Y-255294D01*
X5055294Y-230294D02*
X5105294Y-230294D01*
X5080294Y-544706D02*
X5080294Y-594706D01*
X5055294Y-569706D02*
X5105294Y-569706D01*
X5080294Y-3455294D02*
X5080294Y-3505294D01*
X5055294Y-3480294D02*
X5105294Y-3480294D01*
X5080294Y-3794706D02*
X5080294Y-3844706D01*
X5055294Y-3819706D02*
X5105294Y-3819706D01*
X5250000Y-135000D02*
X5250000Y-185000D01*
X5225000Y-160000D02*
X5275000Y-160000D01*
X5250000Y-615000D02*
X5250000Y-665000D01*
X5225000Y-640000D02*
X5275000Y-640000D01*
X5250000Y-3385000D02*
X5250000Y-3435000D01*
X5225000Y-3410000D02*
X5275000Y-3410000D01*
X5250000Y-3865000D02*
X5250000Y-3915000D01*
X5225000Y-3890000D02*
X5275000Y-3890000D01*
X5419706Y-205294D02*
X5419706Y-255294D01*
X5394706Y-230294D02*
X5444706Y-230294D01*
X5419706Y-544706D02*
X5419706Y-594706D01*
X5394706Y-569706D02*
X5444706Y-569706D01*
X5419706Y-3455294D02*
X5419706Y-3505294D01*
X5394706Y-3480294D02*
X5444706Y-3480294D01*
X5419706Y-3794706D02*
X5419706Y-3844706D01*
X5394706Y-3819706D02*
X5444706Y-3819706D01*
X5490000Y-375000D02*
X5490000Y-425000D01*
X5465000Y-400000D02*
X5515000Y-400000D01*
X5490000Y-3625000D02*
X5490000Y-3675000D01*
X5465000Y-3650000D02*
X5515000Y-3650000D01*
X231213Y-1739213D02*
X231213Y-1696787D01*
X188787Y-1696787D01*
X188787Y-1739213D01*
X231213Y-1739213D01*
X240000Y-1688000D02*
X180000Y-1688000D01*
X180000Y-1748000D02*
G75*
G02*
X180000Y-1688000I0J30000D01*
G01*
X180000Y-1748000D02*
X240000Y-1748000D01*
X240000Y-1748000D02*
G75*
G03*
X240000Y-1688000I0J30000D01*
G01*
X231213Y-2603213D02*
X231213Y-2560787D01*
X188787Y-2560787D01*
X188787Y-2603213D01*
X231213Y-2603213D01*
X240000Y-2552000D02*
X180000Y-2552000D01*
X180000Y-2612000D02*
G75*
G02*
X180000Y-2552000I0J30000D01*
G01*
X180000Y-2612000D02*
X240000Y-2612000D01*
X240000Y-2612000D02*
G75*
G03*
X240000Y-2552000I0J30000D01*
G01*
X649213Y-1739213D02*
X649213Y-1696787D01*
X606787Y-1696787D01*
X606787Y-1739213D01*
X649213Y-1739213D01*
X683000Y-1688000D02*
X573000Y-1688000D01*
X573000Y-1748000D02*
G75*
G02*
X573000Y-1688000I0J30000D01*
G01*
X573000Y-1748000D02*
X683000Y-1748000D01*
X683000Y-1748000D02*
G75*
G03*
X683000Y-1688000I0J30000D01*
G01*
X649213Y-2603213D02*
X649213Y-2560787D01*
X606787Y-2560787D01*
X606787Y-2603213D01*
X649213Y-2603213D01*
X683000Y-2552000D02*
X573000Y-2552000D01*
X573000Y-2612000D02*
G75*
G02*
X573000Y-2552000I0J30000D01*
G01*
X573000Y-2612000D02*
X683000Y-2612000D01*
X683000Y-2612000D02*
G75*
G03*
X683000Y-2552000I0J30000D01*
G01*
D12*
X400000Y-560000D02*
X560000Y-400000D01*
X400000Y-240000D01*
X240000Y-400000D01*
X400000Y-560000D01*
X400000Y-3810000D02*
X560000Y-3650000D01*
X400000Y-3490000D01*
X240000Y-3650000D01*
X400000Y-3810000D01*
X5250000Y-560000D02*
X5410000Y-400000D01*
X5250000Y-240000D01*
X5090000Y-400000D01*
X5250000Y-560000D01*
X5250000Y-3810000D02*
X5410000Y-3650000D01*
X5250000Y-3490000D01*
X5090000Y-3650000D01*
X5250000Y-3810000D01*
D13*
X4989999Y-1964999D02*
X5360001Y-2335001D01*
X5360001Y-1964999D02*
X4989999Y-2335001D01*
X5360001Y-2150000D02*
G75*
G02*
X4989999Y-2150000I-185001J0D01*
G01*
X4989999Y-2150000D02*
G75*
G02*
X5360001Y-2150000I185001J0D01*
G01*
D11*
X255777Y-4366484D02*
X255777Y-4166484D01*
X255777Y-4166484D02*
X303396Y-4166484D01*
X303396Y-4166484D02*
X331967Y-4176008D01*
X331967Y-4176008D02*
X351015Y-4195055D01*
X351015Y-4195055D02*
X360539Y-4214103D01*
X360539Y-4214103D02*
X370062Y-4252198D01*
X370062Y-4252198D02*
X370062Y-4280770D01*
X370062Y-4280770D02*
X360539Y-4318865D01*
X360539Y-4318865D02*
X351015Y-4337912D01*
X351015Y-4337912D02*
X331967Y-4356960D01*
X331967Y-4356960D02*
X303396Y-4366484D01*
X303396Y-4366484D02*
X255777Y-4366484D01*
X455777Y-4366484D02*
X455777Y-4233150D01*
X455777Y-4271246D02*
X465301Y-4252198D01*
X465301Y-4252198D02*
X474824Y-4242674D01*
X474824Y-4242674D02*
X493872Y-4233150D01*
X493872Y-4233150D02*
X512920Y-4233150D01*
X579586Y-4366484D02*
X579586Y-4233150D01*
X579586Y-4166484D02*
X570063Y-4176008D01*
X570063Y-4176008D02*
X579586Y-4185531D01*
X579586Y-4185531D02*
X589110Y-4176008D01*
X589110Y-4176008D02*
X579586Y-4166484D01*
X579586Y-4166484D02*
X579586Y-4185531D01*
X703396Y-4366484D02*
X684348Y-4356960D01*
X684348Y-4356960D02*
X674824Y-4337912D01*
X674824Y-4337912D02*
X674824Y-4166484D01*
X808158Y-4366484D02*
X789110Y-4356960D01*
X789110Y-4356960D02*
X779586Y-4337912D01*
X779586Y-4337912D02*
X779586Y-4166484D01*
X1036729Y-4366484D02*
X1036729Y-4166484D01*
X1036729Y-4166484D02*
X1103396Y-4309341D01*
X1103396Y-4309341D02*
X1170063Y-4166484D01*
X1170063Y-4166484D02*
X1170063Y-4366484D01*
X1351015Y-4366484D02*
X1351015Y-4261722D01*
X1351015Y-4261722D02*
X1341491Y-4242674D01*
X1341491Y-4242674D02*
X1322444Y-4233150D01*
X1322444Y-4233150D02*
X1284348Y-4233150D01*
X1284348Y-4233150D02*
X1265301Y-4242674D01*
X1351015Y-4356960D02*
X1331967Y-4366484D01*
X1331967Y-4366484D02*
X1284348Y-4366484D01*
X1284348Y-4366484D02*
X1265301Y-4356960D01*
X1265301Y-4356960D02*
X1255777Y-4337912D01*
X1255777Y-4337912D02*
X1255777Y-4318865D01*
X1255777Y-4318865D02*
X1265301Y-4299817D01*
X1265301Y-4299817D02*
X1284348Y-4290293D01*
X1284348Y-4290293D02*
X1331967Y-4290293D01*
X1331967Y-4290293D02*
X1351015Y-4280770D01*
X1446253Y-4233150D02*
X1446253Y-4433150D01*
X1446253Y-4242674D02*
X1465301Y-4233150D01*
X1465301Y-4233150D02*
X1503396Y-4233150D01*
X1503396Y-4233150D02*
X1522443Y-4242674D01*
X1522443Y-4242674D02*
X1531967Y-4252198D01*
X1531967Y-4252198D02*
X1541491Y-4271246D01*
X1541491Y-4271246D02*
X1541491Y-4328389D01*
X1541491Y-4328389D02*
X1531967Y-4347436D01*
X1531967Y-4347436D02*
X1522443Y-4356960D01*
X1522443Y-4356960D02*
X1503396Y-4366484D01*
X1503396Y-4366484D02*
X1465301Y-4366484D01*
X1465301Y-4366484D02*
X1446253Y-4356960D01*
X1627205Y-4347436D02*
X1636729Y-4356960D01*
X1636729Y-4356960D02*
X1627205Y-4366484D01*
X1627205Y-4366484D02*
X1617682Y-4356960D01*
X1617682Y-4356960D02*
X1627205Y-4347436D01*
X1627205Y-4347436D02*
X1627205Y-4366484D01*
X1627205Y-4242674D02*
X1636729Y-4252198D01*
X1636729Y-4252198D02*
X1627205Y-4261722D01*
X1627205Y-4261722D02*
X1617682Y-4252198D01*
X1617682Y-4252198D02*
X1627205Y-4242674D01*
X1627205Y-4242674D02*
X1627205Y-4261722D01*
D10*
X-35000Y-4680000D02*
X-5000Y-4710000D01*
X-5000Y-4680000D02*
X-35000Y-4710000D01*
D11*
X293872Y-4586484D02*
X312920Y-4586484D01*
X312920Y-4586484D02*
X331967Y-4596008D01*
X331967Y-4596008D02*
X341491Y-4605531D01*
X341491Y-4605531D02*
X351015Y-4624579D01*
X351015Y-4624579D02*
X360539Y-4662674D01*
X360539Y-4662674D02*
X360539Y-4710293D01*
X360539Y-4710293D02*
X351015Y-4748389D01*
X351015Y-4748389D02*
X341491Y-4767436D01*
X341491Y-4767436D02*
X331967Y-4776960D01*
X331967Y-4776960D02*
X312920Y-4786484D01*
X312920Y-4786484D02*
X293872Y-4786484D01*
X293872Y-4786484D02*
X274824Y-4776960D01*
X274824Y-4776960D02*
X265301Y-4767436D01*
X265301Y-4767436D02*
X255777Y-4748389D01*
X255777Y-4748389D02*
X246253Y-4710293D01*
X246253Y-4710293D02*
X246253Y-4662674D01*
X246253Y-4662674D02*
X255777Y-4624579D01*
X255777Y-4624579D02*
X265301Y-4605531D01*
X265301Y-4605531D02*
X274824Y-4596008D01*
X274824Y-4596008D02*
X293872Y-4586484D01*
X446253Y-4767436D02*
X455777Y-4776960D01*
X455777Y-4776960D02*
X446253Y-4786484D01*
X446253Y-4786484D02*
X436729Y-4776960D01*
X436729Y-4776960D02*
X446253Y-4767436D01*
X446253Y-4767436D02*
X446253Y-4786484D01*
X522443Y-4586484D02*
X646253Y-4586484D01*
X646253Y-4586484D02*
X579586Y-4662674D01*
X579586Y-4662674D02*
X608158Y-4662674D01*
X608158Y-4662674D02*
X627205Y-4672198D01*
X627205Y-4672198D02*
X636729Y-4681722D01*
X636729Y-4681722D02*
X646253Y-4700770D01*
X646253Y-4700770D02*
X646253Y-4748389D01*
X646253Y-4748389D02*
X636729Y-4767436D01*
X636729Y-4767436D02*
X627205Y-4776960D01*
X627205Y-4776960D02*
X608158Y-4786484D01*
X608158Y-4786484D02*
X551015Y-4786484D01*
X551015Y-4786484D02*
X531967Y-4776960D01*
X531967Y-4776960D02*
X522443Y-4767436D01*
X770062Y-4586484D02*
X789110Y-4586484D01*
X789110Y-4586484D02*
X808158Y-4596008D01*
X808158Y-4596008D02*
X817682Y-4605531D01*
X817682Y-4605531D02*
X827205Y-4624579D01*
X827205Y-4624579D02*
X836729Y-4662674D01*
X836729Y-4662674D02*
X836729Y-4710293D01*
X836729Y-4710293D02*
X827205Y-4748389D01*
X827205Y-4748389D02*
X817682Y-4767436D01*
X817682Y-4767436D02*
X808158Y-4776960D01*
X808158Y-4776960D02*
X789110Y-4786484D01*
X789110Y-4786484D02*
X770062Y-4786484D01*
X770062Y-4786484D02*
X751015Y-4776960D01*
X751015Y-4776960D02*
X741491Y-4767436D01*
X741491Y-4767436D02*
X731967Y-4748389D01*
X731967Y-4748389D02*
X722443Y-4710293D01*
X722443Y-4710293D02*
X722443Y-4662674D01*
X722443Y-4662674D02*
X731967Y-4624579D01*
X731967Y-4624579D02*
X741491Y-4605531D01*
X741491Y-4605531D02*
X751015Y-4596008D01*
X751015Y-4596008D02*
X770062Y-4586484D01*
X960539Y-4586484D02*
X979586Y-4586484D01*
X979586Y-4586484D02*
X998634Y-4596008D01*
X998634Y-4596008D02*
X1008158Y-4605531D01*
X1008158Y-4605531D02*
X1017682Y-4624579D01*
X1017682Y-4624579D02*
X1027205Y-4662674D01*
X1027205Y-4662674D02*
X1027205Y-4710293D01*
X1027205Y-4710293D02*
X1017682Y-4748389D01*
X1017682Y-4748389D02*
X1008158Y-4767436D01*
X1008158Y-4767436D02*
X998634Y-4776960D01*
X998634Y-4776960D02*
X979586Y-4786484D01*
X979586Y-4786484D02*
X960539Y-4786484D01*
X960539Y-4786484D02*
X941491Y-4776960D01*
X941491Y-4776960D02*
X931967Y-4767436D01*
X931967Y-4767436D02*
X922443Y-4748389D01*
X922443Y-4748389D02*
X912920Y-4710293D01*
X912920Y-4710293D02*
X912920Y-4662674D01*
X912920Y-4662674D02*
X922443Y-4624579D01*
X922443Y-4624579D02*
X931967Y-4605531D01*
X931967Y-4605531D02*
X941491Y-4596008D01*
X941491Y-4596008D02*
X960539Y-4586484D01*
X1112920Y-4786484D02*
X1112920Y-4653150D01*
X1112920Y-4672198D02*
X1122444Y-4662674D01*
X1122444Y-4662674D02*
X1141491Y-4653150D01*
X1141491Y-4653150D02*
X1170063Y-4653150D01*
X1170063Y-4653150D02*
X1189110Y-4662674D01*
X1189110Y-4662674D02*
X1198634Y-4681722D01*
X1198634Y-4681722D02*
X1198634Y-4786484D01*
X1198634Y-4681722D02*
X1208158Y-4662674D01*
X1208158Y-4662674D02*
X1227205Y-4653150D01*
X1227205Y-4653150D02*
X1255777Y-4653150D01*
X1255777Y-4653150D02*
X1274825Y-4662674D01*
X1274825Y-4662674D02*
X1284348Y-4681722D01*
X1284348Y-4681722D02*
X1284348Y-4786484D01*
X1379586Y-4786484D02*
X1379586Y-4653150D01*
X1379586Y-4672198D02*
X1389110Y-4662674D01*
X1389110Y-4662674D02*
X1408158Y-4653150D01*
X1408158Y-4653150D02*
X1436729Y-4653150D01*
X1436729Y-4653150D02*
X1455777Y-4662674D01*
X1455777Y-4662674D02*
X1465301Y-4681722D01*
X1465301Y-4681722D02*
X1465301Y-4786484D01*
X1465301Y-4681722D02*
X1474824Y-4662674D01*
X1474824Y-4662674D02*
X1493872Y-4653150D01*
X1493872Y-4653150D02*
X1522443Y-4653150D01*
X1522443Y-4653150D02*
X1541491Y-4662674D01*
X1541491Y-4662674D02*
X1551015Y-4681722D01*
X1551015Y-4681722D02*
X1551015Y-4786484D01*
X1941491Y-4576960D02*
X1770063Y-4834103D01*
X2198634Y-4586484D02*
X2217682Y-4586484D01*
X2217682Y-4586484D02*
X2236729Y-4596008D01*
X2236729Y-4596008D02*
X2246253Y-4605531D01*
X2246253Y-4605531D02*
X2255777Y-4624579D01*
X2255777Y-4624579D02*
X2265301Y-4662674D01*
X2265301Y-4662674D02*
X2265301Y-4710293D01*
X2265301Y-4710293D02*
X2255777Y-4748389D01*
X2255777Y-4748389D02*
X2246253Y-4767436D01*
X2246253Y-4767436D02*
X2236729Y-4776960D01*
X2236729Y-4776960D02*
X2217682Y-4786484D01*
X2217682Y-4786484D02*
X2198634Y-4786484D01*
X2198634Y-4786484D02*
X2179587Y-4776960D01*
X2179587Y-4776960D02*
X2170063Y-4767436D01*
X2170063Y-4767436D02*
X2160539Y-4748389D01*
X2160539Y-4748389D02*
X2151015Y-4710293D01*
X2151015Y-4710293D02*
X2151015Y-4662674D01*
X2151015Y-4662674D02*
X2160539Y-4624579D01*
X2160539Y-4624579D02*
X2170063Y-4605531D01*
X2170063Y-4605531D02*
X2179587Y-4596008D01*
X2179587Y-4596008D02*
X2198634Y-4586484D01*
X2351015Y-4767436D02*
X2360539Y-4776960D01*
X2360539Y-4776960D02*
X2351015Y-4786484D01*
X2351015Y-4786484D02*
X2341491Y-4776960D01*
X2341491Y-4776960D02*
X2351015Y-4767436D01*
X2351015Y-4767436D02*
X2351015Y-4786484D01*
X2484348Y-4586484D02*
X2503396Y-4586484D01*
X2503396Y-4586484D02*
X2522444Y-4596008D01*
X2522444Y-4596008D02*
X2531968Y-4605531D01*
X2531968Y-4605531D02*
X2541491Y-4624579D01*
X2541491Y-4624579D02*
X2551015Y-4662674D01*
X2551015Y-4662674D02*
X2551015Y-4710293D01*
X2551015Y-4710293D02*
X2541491Y-4748389D01*
X2541491Y-4748389D02*
X2531968Y-4767436D01*
X2531968Y-4767436D02*
X2522444Y-4776960D01*
X2522444Y-4776960D02*
X2503396Y-4786484D01*
X2503396Y-4786484D02*
X2484348Y-4786484D01*
X2484348Y-4786484D02*
X2465301Y-4776960D01*
X2465301Y-4776960D02*
X2455777Y-4767436D01*
X2455777Y-4767436D02*
X2446253Y-4748389D01*
X2446253Y-4748389D02*
X2436729Y-4710293D01*
X2436729Y-4710293D02*
X2436729Y-4662674D01*
X2436729Y-4662674D02*
X2446253Y-4624579D01*
X2446253Y-4624579D02*
X2455777Y-4605531D01*
X2455777Y-4605531D02*
X2465301Y-4596008D01*
X2465301Y-4596008D02*
X2484348Y-4586484D01*
X2741491Y-4786484D02*
X2627206Y-4786484D01*
X2684348Y-4786484D02*
X2684348Y-4586484D01*
X2684348Y-4586484D02*
X2665301Y-4615055D01*
X2665301Y-4615055D02*
X2646253Y-4634103D01*
X2646253Y-4634103D02*
X2627206Y-4643627D01*
X2931967Y-4786484D02*
X2817682Y-4786484D01*
X2874825Y-4786484D02*
X2874825Y-4586484D01*
X2874825Y-4586484D02*
X2855777Y-4615055D01*
X2855777Y-4615055D02*
X2836729Y-4634103D01*
X2836729Y-4634103D02*
X2817682Y-4643627D01*
X3046253Y-4672198D02*
X3027206Y-4662674D01*
X3027206Y-4662674D02*
X3017682Y-4653150D01*
X3017682Y-4653150D02*
X3008158Y-4634103D01*
X3008158Y-4634103D02*
X3008158Y-4624579D01*
X3008158Y-4624579D02*
X3017682Y-4605531D01*
X3017682Y-4605531D02*
X3027206Y-4596008D01*
X3027206Y-4596008D02*
X3046253Y-4586484D01*
X3046253Y-4586484D02*
X3084348Y-4586484D01*
X3084348Y-4586484D02*
X3103396Y-4596008D01*
X3103396Y-4596008D02*
X3112920Y-4605531D01*
X3112920Y-4605531D02*
X3122444Y-4624579D01*
X3122444Y-4624579D02*
X3122444Y-4634103D01*
X3122444Y-4634103D02*
X3112920Y-4653150D01*
X3112920Y-4653150D02*
X3103396Y-4662674D01*
X3103396Y-4662674D02*
X3084348Y-4672198D01*
X3084348Y-4672198D02*
X3046253Y-4672198D01*
X3046253Y-4672198D02*
X3027206Y-4681722D01*
X3027206Y-4681722D02*
X3017682Y-4691246D01*
X3017682Y-4691246D02*
X3008158Y-4710293D01*
X3008158Y-4710293D02*
X3008158Y-4748389D01*
X3008158Y-4748389D02*
X3017682Y-4767436D01*
X3017682Y-4767436D02*
X3027206Y-4776960D01*
X3027206Y-4776960D02*
X3046253Y-4786484D01*
X3046253Y-4786484D02*
X3084348Y-4786484D01*
X3084348Y-4786484D02*
X3103396Y-4776960D01*
X3103396Y-4776960D02*
X3112920Y-4767436D01*
X3112920Y-4767436D02*
X3122444Y-4748389D01*
X3122444Y-4748389D02*
X3122444Y-4710293D01*
X3122444Y-4710293D02*
X3112920Y-4691246D01*
X3112920Y-4691246D02*
X3103396Y-4681722D01*
X3103396Y-4681722D02*
X3084348Y-4672198D01*
X3198634Y-4586484D02*
X3198634Y-4624579D01*
X3274825Y-4586484D02*
X3274825Y-4624579D01*
X3570063Y-4862674D02*
X3560539Y-4853150D01*
X3560539Y-4853150D02*
X3541491Y-4824579D01*
X3541491Y-4824579D02*
X3531968Y-4805531D01*
X3531968Y-4805531D02*
X3522444Y-4776960D01*
X3522444Y-4776960D02*
X3512920Y-4729341D01*
X3512920Y-4729341D02*
X3512920Y-4691246D01*
X3512920Y-4691246D02*
X3522444Y-4643627D01*
X3522444Y-4643627D02*
X3531968Y-4615055D01*
X3531968Y-4615055D02*
X3541491Y-4596008D01*
X3541491Y-4596008D02*
X3560539Y-4567436D01*
X3560539Y-4567436D02*
X3570063Y-4557912D01*
X3627206Y-4586484D02*
X3751015Y-4586484D01*
X3751015Y-4586484D02*
X3684348Y-4662674D01*
X3684348Y-4662674D02*
X3712920Y-4662674D01*
X3712920Y-4662674D02*
X3731968Y-4672198D01*
X3731968Y-4672198D02*
X3741491Y-4681722D01*
X3741491Y-4681722D02*
X3751015Y-4700770D01*
X3751015Y-4700770D02*
X3751015Y-4748389D01*
X3751015Y-4748389D02*
X3741491Y-4767436D01*
X3741491Y-4767436D02*
X3731968Y-4776960D01*
X3731968Y-4776960D02*
X3712920Y-4786484D01*
X3712920Y-4786484D02*
X3655777Y-4786484D01*
X3655777Y-4786484D02*
X3636729Y-4776960D01*
X3636729Y-4776960D02*
X3627206Y-4767436D01*
X3922444Y-4653150D02*
X3922444Y-4786484D01*
X3874825Y-4576960D02*
X3827206Y-4719817D01*
X3827206Y-4719817D02*
X3951015Y-4719817D01*
X4179587Y-4786484D02*
X4179587Y-4586484D01*
X4265301Y-4786484D02*
X4265301Y-4681722D01*
X4265301Y-4681722D02*
X4255777Y-4662674D01*
X4255777Y-4662674D02*
X4236730Y-4653150D01*
X4236730Y-4653150D02*
X4208158Y-4653150D01*
X4208158Y-4653150D02*
X4189110Y-4662674D01*
X4189110Y-4662674D02*
X4179587Y-4672198D01*
X4389111Y-4786484D02*
X4370063Y-4776960D01*
X4370063Y-4776960D02*
X4360539Y-4767436D01*
X4360539Y-4767436D02*
X4351015Y-4748389D01*
X4351015Y-4748389D02*
X4351015Y-4691246D01*
X4351015Y-4691246D02*
X4360539Y-4672198D01*
X4360539Y-4672198D02*
X4370063Y-4662674D01*
X4370063Y-4662674D02*
X4389111Y-4653150D01*
X4389111Y-4653150D02*
X4417682Y-4653150D01*
X4417682Y-4653150D02*
X4436730Y-4662674D01*
X4436730Y-4662674D02*
X4446253Y-4672198D01*
X4446253Y-4672198D02*
X4455777Y-4691246D01*
X4455777Y-4691246D02*
X4455777Y-4748389D01*
X4455777Y-4748389D02*
X4446253Y-4767436D01*
X4446253Y-4767436D02*
X4436730Y-4776960D01*
X4436730Y-4776960D02*
X4417682Y-4786484D01*
X4417682Y-4786484D02*
X4389111Y-4786484D01*
X4570063Y-4786484D02*
X4551015Y-4776960D01*
X4551015Y-4776960D02*
X4541492Y-4757912D01*
X4541492Y-4757912D02*
X4541492Y-4586484D01*
X4722444Y-4776960D02*
X4703396Y-4786484D01*
X4703396Y-4786484D02*
X4665301Y-4786484D01*
X4665301Y-4786484D02*
X4646253Y-4776960D01*
X4646253Y-4776960D02*
X4636730Y-4757912D01*
X4636730Y-4757912D02*
X4636730Y-4681722D01*
X4636730Y-4681722D02*
X4646253Y-4662674D01*
X4646253Y-4662674D02*
X4665301Y-4653150D01*
X4665301Y-4653150D02*
X4703396Y-4653150D01*
X4703396Y-4653150D02*
X4722444Y-4662674D01*
X4722444Y-4662674D02*
X4731968Y-4681722D01*
X4731968Y-4681722D02*
X4731968Y-4700770D01*
X4731968Y-4700770D02*
X4636730Y-4719817D01*
X4808158Y-4776960D02*
X4827206Y-4786484D01*
X4827206Y-4786484D02*
X4865301Y-4786484D01*
X4865301Y-4786484D02*
X4884349Y-4776960D01*
X4884349Y-4776960D02*
X4893873Y-4757912D01*
X4893873Y-4757912D02*
X4893873Y-4748389D01*
X4893873Y-4748389D02*
X4884349Y-4729341D01*
X4884349Y-4729341D02*
X4865301Y-4719817D01*
X4865301Y-4719817D02*
X4836730Y-4719817D01*
X4836730Y-4719817D02*
X4817682Y-4710293D01*
X4817682Y-4710293D02*
X4808158Y-4691246D01*
X4808158Y-4691246D02*
X4808158Y-4681722D01*
X4808158Y-4681722D02*
X4817682Y-4662674D01*
X4817682Y-4662674D02*
X4836730Y-4653150D01*
X4836730Y-4653150D02*
X4865301Y-4653150D01*
X4865301Y-4653150D02*
X4884349Y-4662674D01*
X4960539Y-4862674D02*
X4970063Y-4853150D01*
X4970063Y-4853150D02*
X4989111Y-4824579D01*
X4989111Y-4824579D02*
X4998634Y-4805531D01*
X4998634Y-4805531D02*
X5008158Y-4776960D01*
X5008158Y-4776960D02*
X5017682Y-4729341D01*
X5017682Y-4729341D02*
X5017682Y-4691246D01*
X5017682Y-4691246D02*
X5008158Y-4643627D01*
X5008158Y-4643627D02*
X4998634Y-4615055D01*
X4998634Y-4615055D02*
X4989111Y-4596008D01*
X4989111Y-4596008D02*
X4970063Y-4567436D01*
X4970063Y-4567436D02*
X4960539Y-4557912D01*
D10*
X-5000Y-4959000D02*
G75*
G02*
X-45000Y-4959000I-20000J0D01*
G01*
X-45000Y-4959000D02*
G75*
G02*
X-5000Y-4959000I20000J0D01*
G01*
D11*
X293872Y-4850484D02*
X312920Y-4850484D01*
X312920Y-4850484D02*
X331967Y-4860008D01*
X331967Y-4860008D02*
X341491Y-4869531D01*
X341491Y-4869531D02*
X351015Y-4888579D01*
X351015Y-4888579D02*
X360539Y-4926674D01*
X360539Y-4926674D02*
X360539Y-4974293D01*
X360539Y-4974293D02*
X351015Y-5012389D01*
X351015Y-5012389D02*
X341491Y-5031436D01*
X341491Y-5031436D02*
X331967Y-5040960D01*
X331967Y-5040960D02*
X312920Y-5050484D01*
X312920Y-5050484D02*
X293872Y-5050484D01*
X293872Y-5050484D02*
X274824Y-5040960D01*
X274824Y-5040960D02*
X265301Y-5031436D01*
X265301Y-5031436D02*
X255777Y-5012389D01*
X255777Y-5012389D02*
X246253Y-4974293D01*
X246253Y-4974293D02*
X246253Y-4926674D01*
X246253Y-4926674D02*
X255777Y-4888579D01*
X255777Y-4888579D02*
X265301Y-4869531D01*
X265301Y-4869531D02*
X274824Y-4860008D01*
X274824Y-4860008D02*
X293872Y-4850484D01*
X446253Y-5031436D02*
X455777Y-5040960D01*
X455777Y-5040960D02*
X446253Y-5050484D01*
X446253Y-5050484D02*
X436729Y-5040960D01*
X436729Y-5040960D02*
X446253Y-5031436D01*
X446253Y-5031436D02*
X446253Y-5050484D01*
X627205Y-4917150D02*
X627205Y-5050484D01*
X579586Y-4840960D02*
X531967Y-4983817D01*
X531967Y-4983817D02*
X655777Y-4983817D01*
X770062Y-4850484D02*
X789110Y-4850484D01*
X789110Y-4850484D02*
X808158Y-4860008D01*
X808158Y-4860008D02*
X817682Y-4869531D01*
X817682Y-4869531D02*
X827205Y-4888579D01*
X827205Y-4888579D02*
X836729Y-4926674D01*
X836729Y-4926674D02*
X836729Y-4974293D01*
X836729Y-4974293D02*
X827205Y-5012389D01*
X827205Y-5012389D02*
X817682Y-5031436D01*
X817682Y-5031436D02*
X808158Y-5040960D01*
X808158Y-5040960D02*
X789110Y-5050484D01*
X789110Y-5050484D02*
X770062Y-5050484D01*
X770062Y-5050484D02*
X751015Y-5040960D01*
X751015Y-5040960D02*
X741491Y-5031436D01*
X741491Y-5031436D02*
X731967Y-5012389D01*
X731967Y-5012389D02*
X722443Y-4974293D01*
X722443Y-4974293D02*
X722443Y-4926674D01*
X722443Y-4926674D02*
X731967Y-4888579D01*
X731967Y-4888579D02*
X741491Y-4869531D01*
X741491Y-4869531D02*
X751015Y-4860008D01*
X751015Y-4860008D02*
X770062Y-4850484D01*
X960539Y-4850484D02*
X979586Y-4850484D01*
X979586Y-4850484D02*
X998634Y-4860008D01*
X998634Y-4860008D02*
X1008158Y-4869531D01*
X1008158Y-4869531D02*
X1017682Y-4888579D01*
X1017682Y-4888579D02*
X1027205Y-4926674D01*
X1027205Y-4926674D02*
X1027205Y-4974293D01*
X1027205Y-4974293D02*
X1017682Y-5012389D01*
X1017682Y-5012389D02*
X1008158Y-5031436D01*
X1008158Y-5031436D02*
X998634Y-5040960D01*
X998634Y-5040960D02*
X979586Y-5050484D01*
X979586Y-5050484D02*
X960539Y-5050484D01*
X960539Y-5050484D02*
X941491Y-5040960D01*
X941491Y-5040960D02*
X931967Y-5031436D01*
X931967Y-5031436D02*
X922443Y-5012389D01*
X922443Y-5012389D02*
X912920Y-4974293D01*
X912920Y-4974293D02*
X912920Y-4926674D01*
X912920Y-4926674D02*
X922443Y-4888579D01*
X922443Y-4888579D02*
X931967Y-4869531D01*
X931967Y-4869531D02*
X941491Y-4860008D01*
X941491Y-4860008D02*
X960539Y-4850484D01*
X1112920Y-5050484D02*
X1112920Y-4917150D01*
X1112920Y-4936198D02*
X1122444Y-4926674D01*
X1122444Y-4926674D02*
X1141491Y-4917150D01*
X1141491Y-4917150D02*
X1170063Y-4917150D01*
X1170063Y-4917150D02*
X1189110Y-4926674D01*
X1189110Y-4926674D02*
X1198634Y-4945722D01*
X1198634Y-4945722D02*
X1198634Y-5050484D01*
X1198634Y-4945722D02*
X1208158Y-4926674D01*
X1208158Y-4926674D02*
X1227205Y-4917150D01*
X1227205Y-4917150D02*
X1255777Y-4917150D01*
X1255777Y-4917150D02*
X1274825Y-4926674D01*
X1274825Y-4926674D02*
X1284348Y-4945722D01*
X1284348Y-4945722D02*
X1284348Y-5050484D01*
X1379586Y-5050484D02*
X1379586Y-4917150D01*
X1379586Y-4936198D02*
X1389110Y-4926674D01*
X1389110Y-4926674D02*
X1408158Y-4917150D01*
X1408158Y-4917150D02*
X1436729Y-4917150D01*
X1436729Y-4917150D02*
X1455777Y-4926674D01*
X1455777Y-4926674D02*
X1465301Y-4945722D01*
X1465301Y-4945722D02*
X1465301Y-5050484D01*
X1465301Y-4945722D02*
X1474824Y-4926674D01*
X1474824Y-4926674D02*
X1493872Y-4917150D01*
X1493872Y-4917150D02*
X1522443Y-4917150D01*
X1522443Y-4917150D02*
X1541491Y-4926674D01*
X1541491Y-4926674D02*
X1551015Y-4945722D01*
X1551015Y-4945722D02*
X1551015Y-5050484D01*
X1941491Y-4840960D02*
X1770063Y-5098103D01*
X2198634Y-4850484D02*
X2217682Y-4850484D01*
X2217682Y-4850484D02*
X2236729Y-4860008D01*
X2236729Y-4860008D02*
X2246253Y-4869531D01*
X2246253Y-4869531D02*
X2255777Y-4888579D01*
X2255777Y-4888579D02*
X2265301Y-4926674D01*
X2265301Y-4926674D02*
X2265301Y-4974293D01*
X2265301Y-4974293D02*
X2255777Y-5012389D01*
X2255777Y-5012389D02*
X2246253Y-5031436D01*
X2246253Y-5031436D02*
X2236729Y-5040960D01*
X2236729Y-5040960D02*
X2217682Y-5050484D01*
X2217682Y-5050484D02*
X2198634Y-5050484D01*
X2198634Y-5050484D02*
X2179587Y-5040960D01*
X2179587Y-5040960D02*
X2170063Y-5031436D01*
X2170063Y-5031436D02*
X2160539Y-5012389D01*
X2160539Y-5012389D02*
X2151015Y-4974293D01*
X2151015Y-4974293D02*
X2151015Y-4926674D01*
X2151015Y-4926674D02*
X2160539Y-4888579D01*
X2160539Y-4888579D02*
X2170063Y-4869531D01*
X2170063Y-4869531D02*
X2179587Y-4860008D01*
X2179587Y-4860008D02*
X2198634Y-4850484D01*
X2351015Y-5031436D02*
X2360539Y-5040960D01*
X2360539Y-5040960D02*
X2351015Y-5050484D01*
X2351015Y-5050484D02*
X2341491Y-5040960D01*
X2341491Y-5040960D02*
X2351015Y-5031436D01*
X2351015Y-5031436D02*
X2351015Y-5050484D01*
X2484348Y-4850484D02*
X2503396Y-4850484D01*
X2503396Y-4850484D02*
X2522444Y-4860008D01*
X2522444Y-4860008D02*
X2531968Y-4869531D01*
X2531968Y-4869531D02*
X2541491Y-4888579D01*
X2541491Y-4888579D02*
X2551015Y-4926674D01*
X2551015Y-4926674D02*
X2551015Y-4974293D01*
X2551015Y-4974293D02*
X2541491Y-5012389D01*
X2541491Y-5012389D02*
X2531968Y-5031436D01*
X2531968Y-5031436D02*
X2522444Y-5040960D01*
X2522444Y-5040960D02*
X2503396Y-5050484D01*
X2503396Y-5050484D02*
X2484348Y-5050484D01*
X2484348Y-5050484D02*
X2465301Y-5040960D01*
X2465301Y-5040960D02*
X2455777Y-5031436D01*
X2455777Y-5031436D02*
X2446253Y-5012389D01*
X2446253Y-5012389D02*
X2436729Y-4974293D01*
X2436729Y-4974293D02*
X2436729Y-4926674D01*
X2436729Y-4926674D02*
X2446253Y-4888579D01*
X2446253Y-4888579D02*
X2455777Y-4869531D01*
X2455777Y-4869531D02*
X2465301Y-4860008D01*
X2465301Y-4860008D02*
X2484348Y-4850484D01*
X2741491Y-5050484D02*
X2627206Y-5050484D01*
X2684348Y-5050484D02*
X2684348Y-4850484D01*
X2684348Y-4850484D02*
X2665301Y-4879055D01*
X2665301Y-4879055D02*
X2646253Y-4898103D01*
X2646253Y-4898103D02*
X2627206Y-4907627D01*
X2922444Y-4850484D02*
X2827206Y-4850484D01*
X2827206Y-4850484D02*
X2817682Y-4945722D01*
X2817682Y-4945722D02*
X2827206Y-4936198D01*
X2827206Y-4936198D02*
X2846253Y-4926674D01*
X2846253Y-4926674D02*
X2893872Y-4926674D01*
X2893872Y-4926674D02*
X2912920Y-4936198D01*
X2912920Y-4936198D02*
X2922444Y-4945722D01*
X2922444Y-4945722D02*
X2931967Y-4964770D01*
X2931967Y-4964770D02*
X2931967Y-5012389D01*
X2931967Y-5012389D02*
X2922444Y-5031436D01*
X2922444Y-5031436D02*
X2912920Y-5040960D01*
X2912920Y-5040960D02*
X2893872Y-5050484D01*
X2893872Y-5050484D02*
X2846253Y-5050484D01*
X2846253Y-5050484D02*
X2827206Y-5040960D01*
X2827206Y-5040960D02*
X2817682Y-5031436D01*
X2998634Y-4850484D02*
X3131967Y-4850484D01*
X3131967Y-4850484D02*
X3046253Y-5050484D01*
X3198634Y-4850484D02*
X3198634Y-4888579D01*
X3274825Y-4850484D02*
X3274825Y-4888579D01*
X3570063Y-5126674D02*
X3560539Y-5117150D01*
X3560539Y-5117150D02*
X3541491Y-5088579D01*
X3541491Y-5088579D02*
X3531968Y-5069531D01*
X3531968Y-5069531D02*
X3522444Y-5040960D01*
X3522444Y-5040960D02*
X3512920Y-4993341D01*
X3512920Y-4993341D02*
X3512920Y-4955246D01*
X3512920Y-4955246D02*
X3522444Y-4907627D01*
X3522444Y-4907627D02*
X3531968Y-4879055D01*
X3531968Y-4879055D02*
X3541491Y-4860008D01*
X3541491Y-4860008D02*
X3560539Y-4831436D01*
X3560539Y-4831436D02*
X3570063Y-4821912D01*
X3751015Y-5050484D02*
X3636729Y-5050484D01*
X3693872Y-5050484D02*
X3693872Y-4850484D01*
X3693872Y-4850484D02*
X3674825Y-4879055D01*
X3674825Y-4879055D02*
X3655777Y-4898103D01*
X3655777Y-4898103D02*
X3636729Y-4907627D01*
X3874825Y-4850484D02*
X3893872Y-4850484D01*
X3893872Y-4850484D02*
X3912920Y-4860008D01*
X3912920Y-4860008D02*
X3922444Y-4869531D01*
X3922444Y-4869531D02*
X3931968Y-4888579D01*
X3931968Y-4888579D02*
X3941491Y-4926674D01*
X3941491Y-4926674D02*
X3941491Y-4974293D01*
X3941491Y-4974293D02*
X3931968Y-5012389D01*
X3931968Y-5012389D02*
X3922444Y-5031436D01*
X3922444Y-5031436D02*
X3912920Y-5040960D01*
X3912920Y-5040960D02*
X3893872Y-5050484D01*
X3893872Y-5050484D02*
X3874825Y-5050484D01*
X3874825Y-5050484D02*
X3855777Y-5040960D01*
X3855777Y-5040960D02*
X3846253Y-5031436D01*
X3846253Y-5031436D02*
X3836729Y-5012389D01*
X3836729Y-5012389D02*
X3827206Y-4974293D01*
X3827206Y-4974293D02*
X3827206Y-4926674D01*
X3827206Y-4926674D02*
X3836729Y-4888579D01*
X3836729Y-4888579D02*
X3846253Y-4869531D01*
X3846253Y-4869531D02*
X3855777Y-4860008D01*
X3855777Y-4860008D02*
X3874825Y-4850484D01*
X4179587Y-5050484D02*
X4179587Y-4850484D01*
X4265301Y-5050484D02*
X4265301Y-4945722D01*
X4265301Y-4945722D02*
X4255777Y-4926674D01*
X4255777Y-4926674D02*
X4236730Y-4917150D01*
X4236730Y-4917150D02*
X4208158Y-4917150D01*
X4208158Y-4917150D02*
X4189110Y-4926674D01*
X4189110Y-4926674D02*
X4179587Y-4936198D01*
X4389111Y-5050484D02*
X4370063Y-5040960D01*
X4370063Y-5040960D02*
X4360539Y-5031436D01*
X4360539Y-5031436D02*
X4351015Y-5012389D01*
X4351015Y-5012389D02*
X4351015Y-4955246D01*
X4351015Y-4955246D02*
X4360539Y-4936198D01*
X4360539Y-4936198D02*
X4370063Y-4926674D01*
X4370063Y-4926674D02*
X4389111Y-4917150D01*
X4389111Y-4917150D02*
X4417682Y-4917150D01*
X4417682Y-4917150D02*
X4436730Y-4926674D01*
X4436730Y-4926674D02*
X4446253Y-4936198D01*
X4446253Y-4936198D02*
X4455777Y-4955246D01*
X4455777Y-4955246D02*
X4455777Y-5012389D01*
X4455777Y-5012389D02*
X4446253Y-5031436D01*
X4446253Y-5031436D02*
X4436730Y-5040960D01*
X4436730Y-5040960D02*
X4417682Y-5050484D01*
X4417682Y-5050484D02*
X4389111Y-5050484D01*
X4570063Y-5050484D02*
X4551015Y-5040960D01*
X4551015Y-5040960D02*
X4541492Y-5021912D01*
X4541492Y-5021912D02*
X4541492Y-4850484D01*
X4722444Y-5040960D02*
X4703396Y-5050484D01*
X4703396Y-5050484D02*
X4665301Y-5050484D01*
X4665301Y-5050484D02*
X4646253Y-5040960D01*
X4646253Y-5040960D02*
X4636730Y-5021912D01*
X4636730Y-5021912D02*
X4636730Y-4945722D01*
X4636730Y-4945722D02*
X4646253Y-4926674D01*
X4646253Y-4926674D02*
X4665301Y-4917150D01*
X4665301Y-4917150D02*
X4703396Y-4917150D01*
X4703396Y-4917150D02*
X4722444Y-4926674D01*
X4722444Y-4926674D02*
X4731968Y-4945722D01*
X4731968Y-4945722D02*
X4731968Y-4964770D01*
X4731968Y-4964770D02*
X4636730Y-4983817D01*
X4808158Y-5040960D02*
X4827206Y-5050484D01*
X4827206Y-5050484D02*
X4865301Y-5050484D01*
X4865301Y-5050484D02*
X4884349Y-5040960D01*
X4884349Y-5040960D02*
X4893873Y-5021912D01*
X4893873Y-5021912D02*
X4893873Y-5012389D01*
X4893873Y-5012389D02*
X4884349Y-4993341D01*
X4884349Y-4993341D02*
X4865301Y-4983817D01*
X4865301Y-4983817D02*
X4836730Y-4983817D01*
X4836730Y-4983817D02*
X4817682Y-4974293D01*
X4817682Y-4974293D02*
X4808158Y-4955246D01*
X4808158Y-4955246D02*
X4808158Y-4945722D01*
X4808158Y-4945722D02*
X4817682Y-4926674D01*
X4817682Y-4926674D02*
X4836730Y-4917150D01*
X4836730Y-4917150D02*
X4865301Y-4917150D01*
X4865301Y-4917150D02*
X4884349Y-4926674D01*
X4960539Y-5126674D02*
X4970063Y-5117150D01*
X4970063Y-5117150D02*
X4989111Y-5088579D01*
X4989111Y-5088579D02*
X4998634Y-5069531D01*
X4998634Y-5069531D02*
X5008158Y-5040960D01*
X5008158Y-5040960D02*
X5017682Y-4993341D01*
X5017682Y-4993341D02*
X5017682Y-4955246D01*
X5017682Y-4955246D02*
X5008158Y-4907627D01*
X5008158Y-4907627D02*
X4998634Y-4879055D01*
X4998634Y-4879055D02*
X4989111Y-4860008D01*
X4989111Y-4860008D02*
X4970063Y-4831436D01*
X4970063Y-4831436D02*
X4960539Y-4821912D01*
D10*
X-30000Y-5198000D02*
X-30000Y-5248000D01*
X-55000Y-5223000D02*
X-5000Y-5223000D01*
D11*
X293872Y-5114484D02*
X312920Y-5114484D01*
X312920Y-5114484D02*
X331967Y-5124008D01*
X331967Y-5124008D02*
X341491Y-5133531D01*
X341491Y-5133531D02*
X351015Y-5152579D01*
X351015Y-5152579D02*
X360539Y-5190674D01*
X360539Y-5190674D02*
X360539Y-5238293D01*
X360539Y-5238293D02*
X351015Y-5276389D01*
X351015Y-5276389D02*
X341491Y-5295436D01*
X341491Y-5295436D02*
X331967Y-5304960D01*
X331967Y-5304960D02*
X312920Y-5314484D01*
X312920Y-5314484D02*
X293872Y-5314484D01*
X293872Y-5314484D02*
X274824Y-5304960D01*
X274824Y-5304960D02*
X265301Y-5295436D01*
X265301Y-5295436D02*
X255777Y-5276389D01*
X255777Y-5276389D02*
X246253Y-5238293D01*
X246253Y-5238293D02*
X246253Y-5190674D01*
X246253Y-5190674D02*
X255777Y-5152579D01*
X255777Y-5152579D02*
X265301Y-5133531D01*
X265301Y-5133531D02*
X274824Y-5124008D01*
X274824Y-5124008D02*
X293872Y-5114484D01*
X446253Y-5295436D02*
X455777Y-5304960D01*
X455777Y-5304960D02*
X446253Y-5314484D01*
X446253Y-5314484D02*
X436729Y-5304960D01*
X436729Y-5304960D02*
X446253Y-5295436D01*
X446253Y-5295436D02*
X446253Y-5314484D01*
X636729Y-5114484D02*
X541491Y-5114484D01*
X541491Y-5114484D02*
X531967Y-5209722D01*
X531967Y-5209722D02*
X541491Y-5200198D01*
X541491Y-5200198D02*
X560539Y-5190674D01*
X560539Y-5190674D02*
X608158Y-5190674D01*
X608158Y-5190674D02*
X627205Y-5200198D01*
X627205Y-5200198D02*
X636729Y-5209722D01*
X636729Y-5209722D02*
X646253Y-5228770D01*
X646253Y-5228770D02*
X646253Y-5276389D01*
X646253Y-5276389D02*
X636729Y-5295436D01*
X636729Y-5295436D02*
X627205Y-5304960D01*
X627205Y-5304960D02*
X608158Y-5314484D01*
X608158Y-5314484D02*
X560539Y-5314484D01*
X560539Y-5314484D02*
X541491Y-5304960D01*
X541491Y-5304960D02*
X531967Y-5295436D01*
X770062Y-5114484D02*
X789110Y-5114484D01*
X789110Y-5114484D02*
X808158Y-5124008D01*
X808158Y-5124008D02*
X817682Y-5133531D01*
X817682Y-5133531D02*
X827205Y-5152579D01*
X827205Y-5152579D02*
X836729Y-5190674D01*
X836729Y-5190674D02*
X836729Y-5238293D01*
X836729Y-5238293D02*
X827205Y-5276389D01*
X827205Y-5276389D02*
X817682Y-5295436D01*
X817682Y-5295436D02*
X808158Y-5304960D01*
X808158Y-5304960D02*
X789110Y-5314484D01*
X789110Y-5314484D02*
X770062Y-5314484D01*
X770062Y-5314484D02*
X751015Y-5304960D01*
X751015Y-5304960D02*
X741491Y-5295436D01*
X741491Y-5295436D02*
X731967Y-5276389D01*
X731967Y-5276389D02*
X722443Y-5238293D01*
X722443Y-5238293D02*
X722443Y-5190674D01*
X722443Y-5190674D02*
X731967Y-5152579D01*
X731967Y-5152579D02*
X741491Y-5133531D01*
X741491Y-5133531D02*
X751015Y-5124008D01*
X751015Y-5124008D02*
X770062Y-5114484D01*
X960539Y-5114484D02*
X979586Y-5114484D01*
X979586Y-5114484D02*
X998634Y-5124008D01*
X998634Y-5124008D02*
X1008158Y-5133531D01*
X1008158Y-5133531D02*
X1017682Y-5152579D01*
X1017682Y-5152579D02*
X1027205Y-5190674D01*
X1027205Y-5190674D02*
X1027205Y-5238293D01*
X1027205Y-5238293D02*
X1017682Y-5276389D01*
X1017682Y-5276389D02*
X1008158Y-5295436D01*
X1008158Y-5295436D02*
X998634Y-5304960D01*
X998634Y-5304960D02*
X979586Y-5314484D01*
X979586Y-5314484D02*
X960539Y-5314484D01*
X960539Y-5314484D02*
X941491Y-5304960D01*
X941491Y-5304960D02*
X931967Y-5295436D01*
X931967Y-5295436D02*
X922443Y-5276389D01*
X922443Y-5276389D02*
X912920Y-5238293D01*
X912920Y-5238293D02*
X912920Y-5190674D01*
X912920Y-5190674D02*
X922443Y-5152579D01*
X922443Y-5152579D02*
X931967Y-5133531D01*
X931967Y-5133531D02*
X941491Y-5124008D01*
X941491Y-5124008D02*
X960539Y-5114484D01*
X1112920Y-5314484D02*
X1112920Y-5181150D01*
X1112920Y-5200198D02*
X1122444Y-5190674D01*
X1122444Y-5190674D02*
X1141491Y-5181150D01*
X1141491Y-5181150D02*
X1170063Y-5181150D01*
X1170063Y-5181150D02*
X1189110Y-5190674D01*
X1189110Y-5190674D02*
X1198634Y-5209722D01*
X1198634Y-5209722D02*
X1198634Y-5314484D01*
X1198634Y-5209722D02*
X1208158Y-5190674D01*
X1208158Y-5190674D02*
X1227205Y-5181150D01*
X1227205Y-5181150D02*
X1255777Y-5181150D01*
X1255777Y-5181150D02*
X1274825Y-5190674D01*
X1274825Y-5190674D02*
X1284348Y-5209722D01*
X1284348Y-5209722D02*
X1284348Y-5314484D01*
X1379586Y-5314484D02*
X1379586Y-5181150D01*
X1379586Y-5200198D02*
X1389110Y-5190674D01*
X1389110Y-5190674D02*
X1408158Y-5181150D01*
X1408158Y-5181150D02*
X1436729Y-5181150D01*
X1436729Y-5181150D02*
X1455777Y-5190674D01*
X1455777Y-5190674D02*
X1465301Y-5209722D01*
X1465301Y-5209722D02*
X1465301Y-5314484D01*
X1465301Y-5209722D02*
X1474824Y-5190674D01*
X1474824Y-5190674D02*
X1493872Y-5181150D01*
X1493872Y-5181150D02*
X1522443Y-5181150D01*
X1522443Y-5181150D02*
X1541491Y-5190674D01*
X1541491Y-5190674D02*
X1551015Y-5209722D01*
X1551015Y-5209722D02*
X1551015Y-5314484D01*
X1941491Y-5104960D02*
X1770063Y-5362103D01*
X2198634Y-5114484D02*
X2217682Y-5114484D01*
X2217682Y-5114484D02*
X2236729Y-5124008D01*
X2236729Y-5124008D02*
X2246253Y-5133531D01*
X2246253Y-5133531D02*
X2255777Y-5152579D01*
X2255777Y-5152579D02*
X2265301Y-5190674D01*
X2265301Y-5190674D02*
X2265301Y-5238293D01*
X2265301Y-5238293D02*
X2255777Y-5276389D01*
X2255777Y-5276389D02*
X2246253Y-5295436D01*
X2246253Y-5295436D02*
X2236729Y-5304960D01*
X2236729Y-5304960D02*
X2217682Y-5314484D01*
X2217682Y-5314484D02*
X2198634Y-5314484D01*
X2198634Y-5314484D02*
X2179587Y-5304960D01*
X2179587Y-5304960D02*
X2170063Y-5295436D01*
X2170063Y-5295436D02*
X2160539Y-5276389D01*
X2160539Y-5276389D02*
X2151015Y-5238293D01*
X2151015Y-5238293D02*
X2151015Y-5190674D01*
X2151015Y-5190674D02*
X2160539Y-5152579D01*
X2160539Y-5152579D02*
X2170063Y-5133531D01*
X2170063Y-5133531D02*
X2179587Y-5124008D01*
X2179587Y-5124008D02*
X2198634Y-5114484D01*
X2351015Y-5295436D02*
X2360539Y-5304960D01*
X2360539Y-5304960D02*
X2351015Y-5314484D01*
X2351015Y-5314484D02*
X2341491Y-5304960D01*
X2341491Y-5304960D02*
X2351015Y-5295436D01*
X2351015Y-5295436D02*
X2351015Y-5314484D01*
X2484348Y-5114484D02*
X2503396Y-5114484D01*
X2503396Y-5114484D02*
X2522444Y-5124008D01*
X2522444Y-5124008D02*
X2531968Y-5133531D01*
X2531968Y-5133531D02*
X2541491Y-5152579D01*
X2541491Y-5152579D02*
X2551015Y-5190674D01*
X2551015Y-5190674D02*
X2551015Y-5238293D01*
X2551015Y-5238293D02*
X2541491Y-5276389D01*
X2541491Y-5276389D02*
X2531968Y-5295436D01*
X2531968Y-5295436D02*
X2522444Y-5304960D01*
X2522444Y-5304960D02*
X2503396Y-5314484D01*
X2503396Y-5314484D02*
X2484348Y-5314484D01*
X2484348Y-5314484D02*
X2465301Y-5304960D01*
X2465301Y-5304960D02*
X2455777Y-5295436D01*
X2455777Y-5295436D02*
X2446253Y-5276389D01*
X2446253Y-5276389D02*
X2436729Y-5238293D01*
X2436729Y-5238293D02*
X2436729Y-5190674D01*
X2436729Y-5190674D02*
X2446253Y-5152579D01*
X2446253Y-5152579D02*
X2455777Y-5133531D01*
X2455777Y-5133531D02*
X2465301Y-5124008D01*
X2465301Y-5124008D02*
X2484348Y-5114484D01*
X2741491Y-5314484D02*
X2627206Y-5314484D01*
X2684348Y-5314484D02*
X2684348Y-5114484D01*
X2684348Y-5114484D02*
X2665301Y-5143055D01*
X2665301Y-5143055D02*
X2646253Y-5162103D01*
X2646253Y-5162103D02*
X2627206Y-5171627D01*
X2836729Y-5314484D02*
X2874825Y-5314484D01*
X2874825Y-5314484D02*
X2893872Y-5304960D01*
X2893872Y-5304960D02*
X2903396Y-5295436D01*
X2903396Y-5295436D02*
X2922444Y-5266865D01*
X2922444Y-5266865D02*
X2931967Y-5228770D01*
X2931967Y-5228770D02*
X2931967Y-5152579D01*
X2931967Y-5152579D02*
X2922444Y-5133531D01*
X2922444Y-5133531D02*
X2912920Y-5124008D01*
X2912920Y-5124008D02*
X2893872Y-5114484D01*
X2893872Y-5114484D02*
X2855777Y-5114484D01*
X2855777Y-5114484D02*
X2836729Y-5124008D01*
X2836729Y-5124008D02*
X2827206Y-5133531D01*
X2827206Y-5133531D02*
X2817682Y-5152579D01*
X2817682Y-5152579D02*
X2817682Y-5200198D01*
X2817682Y-5200198D02*
X2827206Y-5219246D01*
X2827206Y-5219246D02*
X2836729Y-5228770D01*
X2836729Y-5228770D02*
X2855777Y-5238293D01*
X2855777Y-5238293D02*
X2893872Y-5238293D01*
X2893872Y-5238293D02*
X2912920Y-5228770D01*
X2912920Y-5228770D02*
X2922444Y-5219246D01*
X2922444Y-5219246D02*
X2931967Y-5200198D01*
X2998634Y-5114484D02*
X3131967Y-5114484D01*
X3131967Y-5114484D02*
X3046253Y-5314484D01*
X3198634Y-5114484D02*
X3198634Y-5152579D01*
X3274825Y-5114484D02*
X3274825Y-5152579D01*
X3570063Y-5390674D02*
X3560539Y-5381150D01*
X3560539Y-5381150D02*
X3541491Y-5352579D01*
X3541491Y-5352579D02*
X3531968Y-5333531D01*
X3531968Y-5333531D02*
X3522444Y-5304960D01*
X3522444Y-5304960D02*
X3512920Y-5257341D01*
X3512920Y-5257341D02*
X3512920Y-5219246D01*
X3512920Y-5219246D02*
X3522444Y-5171627D01*
X3522444Y-5171627D02*
X3531968Y-5143055D01*
X3531968Y-5143055D02*
X3541491Y-5124008D01*
X3541491Y-5124008D02*
X3560539Y-5095436D01*
X3560539Y-5095436D02*
X3570063Y-5085912D01*
X3627206Y-5114484D02*
X3751015Y-5114484D01*
X3751015Y-5114484D02*
X3684348Y-5190674D01*
X3684348Y-5190674D02*
X3712920Y-5190674D01*
X3712920Y-5190674D02*
X3731968Y-5200198D01*
X3731968Y-5200198D02*
X3741491Y-5209722D01*
X3741491Y-5209722D02*
X3751015Y-5228770D01*
X3751015Y-5228770D02*
X3751015Y-5276389D01*
X3751015Y-5276389D02*
X3741491Y-5295436D01*
X3741491Y-5295436D02*
X3731968Y-5304960D01*
X3731968Y-5304960D02*
X3712920Y-5314484D01*
X3712920Y-5314484D02*
X3655777Y-5314484D01*
X3655777Y-5314484D02*
X3636729Y-5304960D01*
X3636729Y-5304960D02*
X3627206Y-5295436D01*
X3827206Y-5133531D02*
X3836729Y-5124008D01*
X3836729Y-5124008D02*
X3855777Y-5114484D01*
X3855777Y-5114484D02*
X3903396Y-5114484D01*
X3903396Y-5114484D02*
X3922444Y-5124008D01*
X3922444Y-5124008D02*
X3931968Y-5133531D01*
X3931968Y-5133531D02*
X3941491Y-5152579D01*
X3941491Y-5152579D02*
X3941491Y-5171627D01*
X3941491Y-5171627D02*
X3931968Y-5200198D01*
X3931968Y-5200198D02*
X3817682Y-5314484D01*
X3817682Y-5314484D02*
X3941491Y-5314484D01*
X4179587Y-5314484D02*
X4179587Y-5114484D01*
X4265301Y-5314484D02*
X4265301Y-5209722D01*
X4265301Y-5209722D02*
X4255777Y-5190674D01*
X4255777Y-5190674D02*
X4236730Y-5181150D01*
X4236730Y-5181150D02*
X4208158Y-5181150D01*
X4208158Y-5181150D02*
X4189110Y-5190674D01*
X4189110Y-5190674D02*
X4179587Y-5200198D01*
X4389111Y-5314484D02*
X4370063Y-5304960D01*
X4370063Y-5304960D02*
X4360539Y-5295436D01*
X4360539Y-5295436D02*
X4351015Y-5276389D01*
X4351015Y-5276389D02*
X4351015Y-5219246D01*
X4351015Y-5219246D02*
X4360539Y-5200198D01*
X4360539Y-5200198D02*
X4370063Y-5190674D01*
X4370063Y-5190674D02*
X4389111Y-5181150D01*
X4389111Y-5181150D02*
X4417682Y-5181150D01*
X4417682Y-5181150D02*
X4436730Y-5190674D01*
X4436730Y-5190674D02*
X4446253Y-5200198D01*
X4446253Y-5200198D02*
X4455777Y-5219246D01*
X4455777Y-5219246D02*
X4455777Y-5276389D01*
X4455777Y-5276389D02*
X4446253Y-5295436D01*
X4446253Y-5295436D02*
X4436730Y-5304960D01*
X4436730Y-5304960D02*
X4417682Y-5314484D01*
X4417682Y-5314484D02*
X4389111Y-5314484D01*
X4570063Y-5314484D02*
X4551015Y-5304960D01*
X4551015Y-5304960D02*
X4541492Y-5285912D01*
X4541492Y-5285912D02*
X4541492Y-5114484D01*
X4722444Y-5304960D02*
X4703396Y-5314484D01*
X4703396Y-5314484D02*
X4665301Y-5314484D01*
X4665301Y-5314484D02*
X4646253Y-5304960D01*
X4646253Y-5304960D02*
X4636730Y-5285912D01*
X4636730Y-5285912D02*
X4636730Y-5209722D01*
X4636730Y-5209722D02*
X4646253Y-5190674D01*
X4646253Y-5190674D02*
X4665301Y-5181150D01*
X4665301Y-5181150D02*
X4703396Y-5181150D01*
X4703396Y-5181150D02*
X4722444Y-5190674D01*
X4722444Y-5190674D02*
X4731968Y-5209722D01*
X4731968Y-5209722D02*
X4731968Y-5228770D01*
X4731968Y-5228770D02*
X4636730Y-5247817D01*
X4808158Y-5304960D02*
X4827206Y-5314484D01*
X4827206Y-5314484D02*
X4865301Y-5314484D01*
X4865301Y-5314484D02*
X4884349Y-5304960D01*
X4884349Y-5304960D02*
X4893873Y-5285912D01*
X4893873Y-5285912D02*
X4893873Y-5276389D01*
X4893873Y-5276389D02*
X4884349Y-5257341D01*
X4884349Y-5257341D02*
X4865301Y-5247817D01*
X4865301Y-5247817D02*
X4836730Y-5247817D01*
X4836730Y-5247817D02*
X4817682Y-5238293D01*
X4817682Y-5238293D02*
X4808158Y-5219246D01*
X4808158Y-5219246D02*
X4808158Y-5209722D01*
X4808158Y-5209722D02*
X4817682Y-5190674D01*
X4817682Y-5190674D02*
X4836730Y-5181150D01*
X4836730Y-5181150D02*
X4865301Y-5181150D01*
X4865301Y-5181150D02*
X4884349Y-5190674D01*
X4960539Y-5390674D02*
X4970063Y-5381150D01*
X4970063Y-5381150D02*
X4989111Y-5352579D01*
X4989111Y-5352579D02*
X4998634Y-5333531D01*
X4998634Y-5333531D02*
X5008158Y-5304960D01*
X5008158Y-5304960D02*
X5017682Y-5257341D01*
X5017682Y-5257341D02*
X5017682Y-5219246D01*
X5017682Y-5219246D02*
X5008158Y-5171627D01*
X5008158Y-5171627D02*
X4998634Y-5143055D01*
X4998634Y-5143055D02*
X4989111Y-5124008D01*
X4989111Y-5124008D02*
X4970063Y-5095436D01*
X4970063Y-5095436D02*
X4960539Y-5085912D01*
D10*
X-13787Y-5508213D02*
X-13787Y-5465787D01*
X-56213Y-5465787D01*
X-56213Y-5508213D01*
X-13787Y-5508213D01*
D11*
X293872Y-5378484D02*
X312920Y-5378484D01*
X312920Y-5378484D02*
X331967Y-5388008D01*
X331967Y-5388008D02*
X341491Y-5397531D01*
X341491Y-5397531D02*
X351015Y-5416579D01*
X351015Y-5416579D02*
X360539Y-5454674D01*
X360539Y-5454674D02*
X360539Y-5502293D01*
X360539Y-5502293D02*
X351015Y-5540389D01*
X351015Y-5540389D02*
X341491Y-5559436D01*
X341491Y-5559436D02*
X331967Y-5568960D01*
X331967Y-5568960D02*
X312920Y-5578484D01*
X312920Y-5578484D02*
X293872Y-5578484D01*
X293872Y-5578484D02*
X274824Y-5568960D01*
X274824Y-5568960D02*
X265301Y-5559436D01*
X265301Y-5559436D02*
X255777Y-5540389D01*
X255777Y-5540389D02*
X246253Y-5502293D01*
X246253Y-5502293D02*
X246253Y-5454674D01*
X246253Y-5454674D02*
X255777Y-5416579D01*
X255777Y-5416579D02*
X265301Y-5397531D01*
X265301Y-5397531D02*
X274824Y-5388008D01*
X274824Y-5388008D02*
X293872Y-5378484D01*
X446253Y-5559436D02*
X455777Y-5568960D01*
X455777Y-5568960D02*
X446253Y-5578484D01*
X446253Y-5578484D02*
X436729Y-5568960D01*
X436729Y-5568960D02*
X446253Y-5559436D01*
X446253Y-5559436D02*
X446253Y-5578484D01*
X627205Y-5378484D02*
X589110Y-5378484D01*
X589110Y-5378484D02*
X570063Y-5388008D01*
X570063Y-5388008D02*
X560539Y-5397531D01*
X560539Y-5397531D02*
X541491Y-5426103D01*
X541491Y-5426103D02*
X531967Y-5464198D01*
X531967Y-5464198D02*
X531967Y-5540389D01*
X531967Y-5540389D02*
X541491Y-5559436D01*
X541491Y-5559436D02*
X551015Y-5568960D01*
X551015Y-5568960D02*
X570063Y-5578484D01*
X570063Y-5578484D02*
X608158Y-5578484D01*
X608158Y-5578484D02*
X627205Y-5568960D01*
X627205Y-5568960D02*
X636729Y-5559436D01*
X636729Y-5559436D02*
X646253Y-5540389D01*
X646253Y-5540389D02*
X646253Y-5492770D01*
X646253Y-5492770D02*
X636729Y-5473722D01*
X636729Y-5473722D02*
X627205Y-5464198D01*
X627205Y-5464198D02*
X608158Y-5454674D01*
X608158Y-5454674D02*
X570063Y-5454674D01*
X570063Y-5454674D02*
X551015Y-5464198D01*
X551015Y-5464198D02*
X541491Y-5473722D01*
X541491Y-5473722D02*
X531967Y-5492770D01*
X770062Y-5378484D02*
X789110Y-5378484D01*
X789110Y-5378484D02*
X808158Y-5388008D01*
X808158Y-5388008D02*
X817682Y-5397531D01*
X817682Y-5397531D02*
X827205Y-5416579D01*
X827205Y-5416579D02*
X836729Y-5454674D01*
X836729Y-5454674D02*
X836729Y-5502293D01*
X836729Y-5502293D02*
X827205Y-5540389D01*
X827205Y-5540389D02*
X817682Y-5559436D01*
X817682Y-5559436D02*
X808158Y-5568960D01*
X808158Y-5568960D02*
X789110Y-5578484D01*
X789110Y-5578484D02*
X770062Y-5578484D01*
X770062Y-5578484D02*
X751015Y-5568960D01*
X751015Y-5568960D02*
X741491Y-5559436D01*
X741491Y-5559436D02*
X731967Y-5540389D01*
X731967Y-5540389D02*
X722443Y-5502293D01*
X722443Y-5502293D02*
X722443Y-5454674D01*
X722443Y-5454674D02*
X731967Y-5416579D01*
X731967Y-5416579D02*
X741491Y-5397531D01*
X741491Y-5397531D02*
X751015Y-5388008D01*
X751015Y-5388008D02*
X770062Y-5378484D01*
X960539Y-5378484D02*
X979586Y-5378484D01*
X979586Y-5378484D02*
X998634Y-5388008D01*
X998634Y-5388008D02*
X1008158Y-5397531D01*
X1008158Y-5397531D02*
X1017682Y-5416579D01*
X1017682Y-5416579D02*
X1027205Y-5454674D01*
X1027205Y-5454674D02*
X1027205Y-5502293D01*
X1027205Y-5502293D02*
X1017682Y-5540389D01*
X1017682Y-5540389D02*
X1008158Y-5559436D01*
X1008158Y-5559436D02*
X998634Y-5568960D01*
X998634Y-5568960D02*
X979586Y-5578484D01*
X979586Y-5578484D02*
X960539Y-5578484D01*
X960539Y-5578484D02*
X941491Y-5568960D01*
X941491Y-5568960D02*
X931967Y-5559436D01*
X931967Y-5559436D02*
X922443Y-5540389D01*
X922443Y-5540389D02*
X912920Y-5502293D01*
X912920Y-5502293D02*
X912920Y-5454674D01*
X912920Y-5454674D02*
X922443Y-5416579D01*
X922443Y-5416579D02*
X931967Y-5397531D01*
X931967Y-5397531D02*
X941491Y-5388008D01*
X941491Y-5388008D02*
X960539Y-5378484D01*
X1112920Y-5578484D02*
X1112920Y-5445150D01*
X1112920Y-5464198D02*
X1122444Y-5454674D01*
X1122444Y-5454674D02*
X1141491Y-5445150D01*
X1141491Y-5445150D02*
X1170063Y-5445150D01*
X1170063Y-5445150D02*
X1189110Y-5454674D01*
X1189110Y-5454674D02*
X1198634Y-5473722D01*
X1198634Y-5473722D02*
X1198634Y-5578484D01*
X1198634Y-5473722D02*
X1208158Y-5454674D01*
X1208158Y-5454674D02*
X1227205Y-5445150D01*
X1227205Y-5445150D02*
X1255777Y-5445150D01*
X1255777Y-5445150D02*
X1274825Y-5454674D01*
X1274825Y-5454674D02*
X1284348Y-5473722D01*
X1284348Y-5473722D02*
X1284348Y-5578484D01*
X1379586Y-5578484D02*
X1379586Y-5445150D01*
X1379586Y-5464198D02*
X1389110Y-5454674D01*
X1389110Y-5454674D02*
X1408158Y-5445150D01*
X1408158Y-5445150D02*
X1436729Y-5445150D01*
X1436729Y-5445150D02*
X1455777Y-5454674D01*
X1455777Y-5454674D02*
X1465301Y-5473722D01*
X1465301Y-5473722D02*
X1465301Y-5578484D01*
X1465301Y-5473722D02*
X1474824Y-5454674D01*
X1474824Y-5454674D02*
X1493872Y-5445150D01*
X1493872Y-5445150D02*
X1522443Y-5445150D01*
X1522443Y-5445150D02*
X1541491Y-5454674D01*
X1541491Y-5454674D02*
X1551015Y-5473722D01*
X1551015Y-5473722D02*
X1551015Y-5578484D01*
X1941491Y-5368960D02*
X1770063Y-5626103D01*
X2198634Y-5378484D02*
X2217682Y-5378484D01*
X2217682Y-5378484D02*
X2236729Y-5388008D01*
X2236729Y-5388008D02*
X2246253Y-5397531D01*
X2246253Y-5397531D02*
X2255777Y-5416579D01*
X2255777Y-5416579D02*
X2265301Y-5454674D01*
X2265301Y-5454674D02*
X2265301Y-5502293D01*
X2265301Y-5502293D02*
X2255777Y-5540389D01*
X2255777Y-5540389D02*
X2246253Y-5559436D01*
X2246253Y-5559436D02*
X2236729Y-5568960D01*
X2236729Y-5568960D02*
X2217682Y-5578484D01*
X2217682Y-5578484D02*
X2198634Y-5578484D01*
X2198634Y-5578484D02*
X2179587Y-5568960D01*
X2179587Y-5568960D02*
X2170063Y-5559436D01*
X2170063Y-5559436D02*
X2160539Y-5540389D01*
X2160539Y-5540389D02*
X2151015Y-5502293D01*
X2151015Y-5502293D02*
X2151015Y-5454674D01*
X2151015Y-5454674D02*
X2160539Y-5416579D01*
X2160539Y-5416579D02*
X2170063Y-5397531D01*
X2170063Y-5397531D02*
X2179587Y-5388008D01*
X2179587Y-5388008D02*
X2198634Y-5378484D01*
X2351015Y-5559436D02*
X2360539Y-5568960D01*
X2360539Y-5568960D02*
X2351015Y-5578484D01*
X2351015Y-5578484D02*
X2341491Y-5568960D01*
X2341491Y-5568960D02*
X2351015Y-5559436D01*
X2351015Y-5559436D02*
X2351015Y-5578484D01*
X2484348Y-5378484D02*
X2503396Y-5378484D01*
X2503396Y-5378484D02*
X2522444Y-5388008D01*
X2522444Y-5388008D02*
X2531968Y-5397531D01*
X2531968Y-5397531D02*
X2541491Y-5416579D01*
X2541491Y-5416579D02*
X2551015Y-5454674D01*
X2551015Y-5454674D02*
X2551015Y-5502293D01*
X2551015Y-5502293D02*
X2541491Y-5540389D01*
X2541491Y-5540389D02*
X2531968Y-5559436D01*
X2531968Y-5559436D02*
X2522444Y-5568960D01*
X2522444Y-5568960D02*
X2503396Y-5578484D01*
X2503396Y-5578484D02*
X2484348Y-5578484D01*
X2484348Y-5578484D02*
X2465301Y-5568960D01*
X2465301Y-5568960D02*
X2455777Y-5559436D01*
X2455777Y-5559436D02*
X2446253Y-5540389D01*
X2446253Y-5540389D02*
X2436729Y-5502293D01*
X2436729Y-5502293D02*
X2436729Y-5454674D01*
X2436729Y-5454674D02*
X2446253Y-5416579D01*
X2446253Y-5416579D02*
X2455777Y-5397531D01*
X2455777Y-5397531D02*
X2465301Y-5388008D01*
X2465301Y-5388008D02*
X2484348Y-5378484D01*
X2627206Y-5397531D02*
X2636729Y-5388008D01*
X2636729Y-5388008D02*
X2655777Y-5378484D01*
X2655777Y-5378484D02*
X2703396Y-5378484D01*
X2703396Y-5378484D02*
X2722444Y-5388008D01*
X2722444Y-5388008D02*
X2731968Y-5397531D01*
X2731968Y-5397531D02*
X2741491Y-5416579D01*
X2741491Y-5416579D02*
X2741491Y-5435627D01*
X2741491Y-5435627D02*
X2731968Y-5464198D01*
X2731968Y-5464198D02*
X2617682Y-5578484D01*
X2617682Y-5578484D02*
X2741491Y-5578484D01*
X2808158Y-5378484D02*
X2931967Y-5378484D01*
X2931967Y-5378484D02*
X2865301Y-5454674D01*
X2865301Y-5454674D02*
X2893872Y-5454674D01*
X2893872Y-5454674D02*
X2912920Y-5464198D01*
X2912920Y-5464198D02*
X2922444Y-5473722D01*
X2922444Y-5473722D02*
X2931967Y-5492770D01*
X2931967Y-5492770D02*
X2931967Y-5540389D01*
X2931967Y-5540389D02*
X2922444Y-5559436D01*
X2922444Y-5559436D02*
X2912920Y-5568960D01*
X2912920Y-5568960D02*
X2893872Y-5578484D01*
X2893872Y-5578484D02*
X2836729Y-5578484D01*
X2836729Y-5578484D02*
X2817682Y-5568960D01*
X2817682Y-5568960D02*
X2808158Y-5559436D01*
X3103396Y-5378484D02*
X3065301Y-5378484D01*
X3065301Y-5378484D02*
X3046253Y-5388008D01*
X3046253Y-5388008D02*
X3036729Y-5397531D01*
X3036729Y-5397531D02*
X3017682Y-5426103D01*
X3017682Y-5426103D02*
X3008158Y-5464198D01*
X3008158Y-5464198D02*
X3008158Y-5540389D01*
X3008158Y-5540389D02*
X3017682Y-5559436D01*
X3017682Y-5559436D02*
X3027206Y-5568960D01*
X3027206Y-5568960D02*
X3046253Y-5578484D01*
X3046253Y-5578484D02*
X3084348Y-5578484D01*
X3084348Y-5578484D02*
X3103396Y-5568960D01*
X3103396Y-5568960D02*
X3112920Y-5559436D01*
X3112920Y-5559436D02*
X3122444Y-5540389D01*
X3122444Y-5540389D02*
X3122444Y-5492770D01*
X3122444Y-5492770D02*
X3112920Y-5473722D01*
X3112920Y-5473722D02*
X3103396Y-5464198D01*
X3103396Y-5464198D02*
X3084348Y-5454674D01*
X3084348Y-5454674D02*
X3046253Y-5454674D01*
X3046253Y-5454674D02*
X3027206Y-5464198D01*
X3027206Y-5464198D02*
X3017682Y-5473722D01*
X3017682Y-5473722D02*
X3008158Y-5492770D01*
X3198634Y-5378484D02*
X3198634Y-5416579D01*
X3274825Y-5378484D02*
X3274825Y-5416579D01*
X3570063Y-5654674D02*
X3560539Y-5645150D01*
X3560539Y-5645150D02*
X3541491Y-5616579D01*
X3541491Y-5616579D02*
X3531968Y-5597531D01*
X3531968Y-5597531D02*
X3522444Y-5568960D01*
X3522444Y-5568960D02*
X3512920Y-5521341D01*
X3512920Y-5521341D02*
X3512920Y-5483246D01*
X3512920Y-5483246D02*
X3522444Y-5435627D01*
X3522444Y-5435627D02*
X3531968Y-5407055D01*
X3531968Y-5407055D02*
X3541491Y-5388008D01*
X3541491Y-5388008D02*
X3560539Y-5359436D01*
X3560539Y-5359436D02*
X3570063Y-5349912D01*
X3684348Y-5378484D02*
X3703396Y-5378484D01*
X3703396Y-5378484D02*
X3722444Y-5388008D01*
X3722444Y-5388008D02*
X3731968Y-5397531D01*
X3731968Y-5397531D02*
X3741491Y-5416579D01*
X3741491Y-5416579D02*
X3751015Y-5454674D01*
X3751015Y-5454674D02*
X3751015Y-5502293D01*
X3751015Y-5502293D02*
X3741491Y-5540389D01*
X3741491Y-5540389D02*
X3731968Y-5559436D01*
X3731968Y-5559436D02*
X3722444Y-5568960D01*
X3722444Y-5568960D02*
X3703396Y-5578484D01*
X3703396Y-5578484D02*
X3684348Y-5578484D01*
X3684348Y-5578484D02*
X3665301Y-5568960D01*
X3665301Y-5568960D02*
X3655777Y-5559436D01*
X3655777Y-5559436D02*
X3646253Y-5540389D01*
X3646253Y-5540389D02*
X3636729Y-5502293D01*
X3636729Y-5502293D02*
X3636729Y-5454674D01*
X3636729Y-5454674D02*
X3646253Y-5416579D01*
X3646253Y-5416579D02*
X3655777Y-5397531D01*
X3655777Y-5397531D02*
X3665301Y-5388008D01*
X3665301Y-5388008D02*
X3684348Y-5378484D01*
X3989110Y-5578484D02*
X3989110Y-5378484D01*
X4074825Y-5578484D02*
X4074825Y-5473722D01*
X4074825Y-5473722D02*
X4065301Y-5454674D01*
X4065301Y-5454674D02*
X4046253Y-5445150D01*
X4046253Y-5445150D02*
X4017682Y-5445150D01*
X4017682Y-5445150D02*
X3998634Y-5454674D01*
X3998634Y-5454674D02*
X3989110Y-5464198D01*
X4198634Y-5578484D02*
X4179587Y-5568960D01*
X4179587Y-5568960D02*
X4170063Y-5559436D01*
X4170063Y-5559436D02*
X4160539Y-5540389D01*
X4160539Y-5540389D02*
X4160539Y-5483246D01*
X4160539Y-5483246D02*
X4170063Y-5464198D01*
X4170063Y-5464198D02*
X4179587Y-5454674D01*
X4179587Y-5454674D02*
X4198634Y-5445150D01*
X4198634Y-5445150D02*
X4227206Y-5445150D01*
X4227206Y-5445150D02*
X4246253Y-5454674D01*
X4246253Y-5454674D02*
X4255777Y-5464198D01*
X4255777Y-5464198D02*
X4265301Y-5483246D01*
X4265301Y-5483246D02*
X4265301Y-5540389D01*
X4265301Y-5540389D02*
X4255777Y-5559436D01*
X4255777Y-5559436D02*
X4246253Y-5568960D01*
X4246253Y-5568960D02*
X4227206Y-5578484D01*
X4227206Y-5578484D02*
X4198634Y-5578484D01*
X4379587Y-5578484D02*
X4360539Y-5568960D01*
X4360539Y-5568960D02*
X4351015Y-5549912D01*
X4351015Y-5549912D02*
X4351015Y-5378484D01*
X4531968Y-5568960D02*
X4512920Y-5578484D01*
X4512920Y-5578484D02*
X4474825Y-5578484D01*
X4474825Y-5578484D02*
X4455777Y-5568960D01*
X4455777Y-5568960D02*
X4446253Y-5549912D01*
X4446253Y-5549912D02*
X4446253Y-5473722D01*
X4446253Y-5473722D02*
X4455777Y-5454674D01*
X4455777Y-5454674D02*
X4474825Y-5445150D01*
X4474825Y-5445150D02*
X4512920Y-5445150D01*
X4512920Y-5445150D02*
X4531968Y-5454674D01*
X4531968Y-5454674D02*
X4541492Y-5473722D01*
X4541492Y-5473722D02*
X4541492Y-5492770D01*
X4541492Y-5492770D02*
X4446253Y-5511817D01*
X4617682Y-5568960D02*
X4636730Y-5578484D01*
X4636730Y-5578484D02*
X4674825Y-5578484D01*
X4674825Y-5578484D02*
X4693873Y-5568960D01*
X4693873Y-5568960D02*
X4703396Y-5549912D01*
X4703396Y-5549912D02*
X4703396Y-5540389D01*
X4703396Y-5540389D02*
X4693873Y-5521341D01*
X4693873Y-5521341D02*
X4674825Y-5511817D01*
X4674825Y-5511817D02*
X4646253Y-5511817D01*
X4646253Y-5511817D02*
X4627206Y-5502293D01*
X4627206Y-5502293D02*
X4617682Y-5483246D01*
X4617682Y-5483246D02*
X4617682Y-5473722D01*
X4617682Y-5473722D02*
X4627206Y-5454674D01*
X4627206Y-5454674D02*
X4646253Y-5445150D01*
X4646253Y-5445150D02*
X4674825Y-5445150D01*
X4674825Y-5445150D02*
X4693873Y-5454674D01*
X4941492Y-5502293D02*
X5093873Y-5502293D01*
X5017682Y-5578484D02*
X5017682Y-5426103D01*
X5427206Y-5445150D02*
X5427206Y-5578484D01*
X5379587Y-5368960D02*
X5331968Y-5511817D01*
X5331968Y-5511817D02*
X5455777Y-5511817D01*
X5674825Y-5568960D02*
X5693873Y-5578484D01*
X5693873Y-5578484D02*
X5731968Y-5578484D01*
X5731968Y-5578484D02*
X5751015Y-5568960D01*
X5751015Y-5568960D02*
X5760539Y-5549912D01*
X5760539Y-5549912D02*
X5760539Y-5540389D01*
X5760539Y-5540389D02*
X5751015Y-5521341D01*
X5751015Y-5521341D02*
X5731968Y-5511817D01*
X5731968Y-5511817D02*
X5703396Y-5511817D01*
X5703396Y-5511817D02*
X5684349Y-5502293D01*
X5684349Y-5502293D02*
X5674825Y-5483246D01*
X5674825Y-5483246D02*
X5674825Y-5473722D01*
X5674825Y-5473722D02*
X5684349Y-5454674D01*
X5684349Y-5454674D02*
X5703396Y-5445150D01*
X5703396Y-5445150D02*
X5731968Y-5445150D01*
X5731968Y-5445150D02*
X5751015Y-5454674D01*
X5874825Y-5578484D02*
X5855777Y-5568960D01*
X5855777Y-5568960D02*
X5846254Y-5549912D01*
X5846254Y-5549912D02*
X5846254Y-5378484D01*
X5979587Y-5578484D02*
X5960539Y-5568960D01*
X5960539Y-5568960D02*
X5951015Y-5559436D01*
X5951015Y-5559436D02*
X5941492Y-5540389D01*
X5941492Y-5540389D02*
X5941492Y-5483246D01*
X5941492Y-5483246D02*
X5951015Y-5464198D01*
X5951015Y-5464198D02*
X5960539Y-5454674D01*
X5960539Y-5454674D02*
X5979587Y-5445150D01*
X5979587Y-5445150D02*
X6008158Y-5445150D01*
X6008158Y-5445150D02*
X6027206Y-5454674D01*
X6027206Y-5454674D02*
X6036730Y-5464198D01*
X6036730Y-5464198D02*
X6046254Y-5483246D01*
X6046254Y-5483246D02*
X6046254Y-5540389D01*
X6046254Y-5540389D02*
X6036730Y-5559436D01*
X6036730Y-5559436D02*
X6027206Y-5568960D01*
X6027206Y-5568960D02*
X6008158Y-5578484D01*
X6008158Y-5578484D02*
X5979587Y-5578484D01*
X6103396Y-5445150D02*
X6179587Y-5445150D01*
X6131968Y-5378484D02*
X6131968Y-5549912D01*
X6131968Y-5549912D02*
X6141492Y-5568960D01*
X6141492Y-5568960D02*
X6160539Y-5578484D01*
X6160539Y-5578484D02*
X6179587Y-5578484D01*
X6236730Y-5568960D02*
X6255777Y-5578484D01*
X6255777Y-5578484D02*
X6293873Y-5578484D01*
X6293873Y-5578484D02*
X6312920Y-5568960D01*
X6312920Y-5568960D02*
X6322444Y-5549912D01*
X6322444Y-5549912D02*
X6322444Y-5540389D01*
X6322444Y-5540389D02*
X6312920Y-5521341D01*
X6312920Y-5521341D02*
X6293873Y-5511817D01*
X6293873Y-5511817D02*
X6265301Y-5511817D01*
X6265301Y-5511817D02*
X6246254Y-5502293D01*
X6246254Y-5502293D02*
X6236730Y-5483246D01*
X6236730Y-5483246D02*
X6236730Y-5473722D01*
X6236730Y-5473722D02*
X6246254Y-5454674D01*
X6246254Y-5454674D02*
X6265301Y-5445150D01*
X6265301Y-5445150D02*
X6293873Y-5445150D01*
X6293873Y-5445150D02*
X6312920Y-5454674D01*
X6389111Y-5654674D02*
X6398635Y-5645150D01*
X6398635Y-5645150D02*
X6417682Y-5616579D01*
X6417682Y-5616579D02*
X6427206Y-5597531D01*
X6427206Y-5597531D02*
X6436730Y-5568960D01*
X6436730Y-5568960D02*
X6446254Y-5521341D01*
X6446254Y-5521341D02*
X6446254Y-5483246D01*
X6446254Y-5483246D02*
X6436730Y-5435627D01*
X6436730Y-5435627D02*
X6427206Y-5407055D01*
X6427206Y-5407055D02*
X6417682Y-5388008D01*
X6417682Y-5388008D02*
X6398635Y-5359436D01*
X6398635Y-5359436D02*
X6389111Y-5349912D01*
X-105000Y-5851000D02*
X-5000Y-5751000D01*
X-105000Y-5651000D01*
X-205000Y-5751000D01*
X-105000Y-5851000D01*
X236729Y-5642484D02*
X360539Y-5642484D01*
X360539Y-5642484D02*
X293872Y-5718674D01*
X293872Y-5718674D02*
X322444Y-5718674D01*
X322444Y-5718674D02*
X341491Y-5728198D01*
X341491Y-5728198D02*
X351015Y-5737722D01*
X351015Y-5737722D02*
X360539Y-5756769D01*
X360539Y-5756769D02*
X360539Y-5804388D01*
X360539Y-5804388D02*
X351015Y-5823436D01*
X351015Y-5823436D02*
X341491Y-5832960D01*
X341491Y-5832960D02*
X322444Y-5842484D01*
X322444Y-5842484D02*
X265301Y-5842484D01*
X265301Y-5842484D02*
X246253Y-5832960D01*
X246253Y-5832960D02*
X236729Y-5823436D01*
X446253Y-5823436D02*
X455777Y-5832960D01*
X455777Y-5832960D02*
X446253Y-5842484D01*
X446253Y-5842484D02*
X436729Y-5832960D01*
X436729Y-5832960D02*
X446253Y-5823436D01*
X446253Y-5823436D02*
X446253Y-5842484D01*
X531967Y-5661531D02*
X541491Y-5652008D01*
X541491Y-5652008D02*
X560539Y-5642484D01*
X560539Y-5642484D02*
X608158Y-5642484D01*
X608158Y-5642484D02*
X627205Y-5652008D01*
X627205Y-5652008D02*
X636729Y-5661531D01*
X636729Y-5661531D02*
X646253Y-5680579D01*
X646253Y-5680579D02*
X646253Y-5699627D01*
X646253Y-5699627D02*
X636729Y-5728198D01*
X636729Y-5728198D02*
X522443Y-5842484D01*
X522443Y-5842484D02*
X646253Y-5842484D01*
X770062Y-5642484D02*
X789110Y-5642484D01*
X789110Y-5642484D02*
X808158Y-5652008D01*
X808158Y-5652008D02*
X817682Y-5661531D01*
X817682Y-5661531D02*
X827205Y-5680579D01*
X827205Y-5680579D02*
X836729Y-5718674D01*
X836729Y-5718674D02*
X836729Y-5766293D01*
X836729Y-5766293D02*
X827205Y-5804388D01*
X827205Y-5804388D02*
X817682Y-5823436D01*
X817682Y-5823436D02*
X808158Y-5832960D01*
X808158Y-5832960D02*
X789110Y-5842484D01*
X789110Y-5842484D02*
X770062Y-5842484D01*
X770062Y-5842484D02*
X751015Y-5832960D01*
X751015Y-5832960D02*
X741491Y-5823436D01*
X741491Y-5823436D02*
X731967Y-5804388D01*
X731967Y-5804388D02*
X722443Y-5766293D01*
X722443Y-5766293D02*
X722443Y-5718674D01*
X722443Y-5718674D02*
X731967Y-5680579D01*
X731967Y-5680579D02*
X741491Y-5661531D01*
X741491Y-5661531D02*
X751015Y-5652008D01*
X751015Y-5652008D02*
X770062Y-5642484D01*
X960539Y-5642484D02*
X979586Y-5642484D01*
X979586Y-5642484D02*
X998634Y-5652008D01*
X998634Y-5652008D02*
X1008158Y-5661531D01*
X1008158Y-5661531D02*
X1017682Y-5680579D01*
X1017682Y-5680579D02*
X1027205Y-5718674D01*
X1027205Y-5718674D02*
X1027205Y-5766293D01*
X1027205Y-5766293D02*
X1017682Y-5804388D01*
X1017682Y-5804388D02*
X1008158Y-5823436D01*
X1008158Y-5823436D02*
X998634Y-5832960D01*
X998634Y-5832960D02*
X979586Y-5842484D01*
X979586Y-5842484D02*
X960539Y-5842484D01*
X960539Y-5842484D02*
X941491Y-5832960D01*
X941491Y-5832960D02*
X931967Y-5823436D01*
X931967Y-5823436D02*
X922443Y-5804388D01*
X922443Y-5804388D02*
X912920Y-5766293D01*
X912920Y-5766293D02*
X912920Y-5718674D01*
X912920Y-5718674D02*
X922443Y-5680579D01*
X922443Y-5680579D02*
X931967Y-5661531D01*
X931967Y-5661531D02*
X941491Y-5652008D01*
X941491Y-5652008D02*
X960539Y-5642484D01*
X1112920Y-5842484D02*
X1112920Y-5709150D01*
X1112920Y-5728198D02*
X1122444Y-5718674D01*
X1122444Y-5718674D02*
X1141491Y-5709150D01*
X1141491Y-5709150D02*
X1170063Y-5709150D01*
X1170063Y-5709150D02*
X1189110Y-5718674D01*
X1189110Y-5718674D02*
X1198634Y-5737722D01*
X1198634Y-5737722D02*
X1198634Y-5842484D01*
X1198634Y-5737722D02*
X1208158Y-5718674D01*
X1208158Y-5718674D02*
X1227205Y-5709150D01*
X1227205Y-5709150D02*
X1255777Y-5709150D01*
X1255777Y-5709150D02*
X1274825Y-5718674D01*
X1274825Y-5718674D02*
X1284348Y-5737722D01*
X1284348Y-5737722D02*
X1284348Y-5842484D01*
X1379586Y-5842484D02*
X1379586Y-5709150D01*
X1379586Y-5728198D02*
X1389110Y-5718674D01*
X1389110Y-5718674D02*
X1408158Y-5709150D01*
X1408158Y-5709150D02*
X1436729Y-5709150D01*
X1436729Y-5709150D02*
X1455777Y-5718674D01*
X1455777Y-5718674D02*
X1465301Y-5737722D01*
X1465301Y-5737722D02*
X1465301Y-5842484D01*
X1465301Y-5737722D02*
X1474824Y-5718674D01*
X1474824Y-5718674D02*
X1493872Y-5709150D01*
X1493872Y-5709150D02*
X1522443Y-5709150D01*
X1522443Y-5709150D02*
X1541491Y-5718674D01*
X1541491Y-5718674D02*
X1551015Y-5737722D01*
X1551015Y-5737722D02*
X1551015Y-5842484D01*
X1941491Y-5632960D02*
X1770063Y-5890103D01*
X2198634Y-5642484D02*
X2217682Y-5642484D01*
X2217682Y-5642484D02*
X2236729Y-5652008D01*
X2236729Y-5652008D02*
X2246253Y-5661531D01*
X2246253Y-5661531D02*
X2255777Y-5680579D01*
X2255777Y-5680579D02*
X2265301Y-5718674D01*
X2265301Y-5718674D02*
X2265301Y-5766293D01*
X2265301Y-5766293D02*
X2255777Y-5804388D01*
X2255777Y-5804388D02*
X2246253Y-5823436D01*
X2246253Y-5823436D02*
X2236729Y-5832960D01*
X2236729Y-5832960D02*
X2217682Y-5842484D01*
X2217682Y-5842484D02*
X2198634Y-5842484D01*
X2198634Y-5842484D02*
X2179587Y-5832960D01*
X2179587Y-5832960D02*
X2170063Y-5823436D01*
X2170063Y-5823436D02*
X2160539Y-5804388D01*
X2160539Y-5804388D02*
X2151015Y-5766293D01*
X2151015Y-5766293D02*
X2151015Y-5718674D01*
X2151015Y-5718674D02*
X2160539Y-5680579D01*
X2160539Y-5680579D02*
X2170063Y-5661531D01*
X2170063Y-5661531D02*
X2179587Y-5652008D01*
X2179587Y-5652008D02*
X2198634Y-5642484D01*
X2351015Y-5823436D02*
X2360539Y-5832960D01*
X2360539Y-5832960D02*
X2351015Y-5842484D01*
X2351015Y-5842484D02*
X2341491Y-5832960D01*
X2341491Y-5832960D02*
X2351015Y-5823436D01*
X2351015Y-5823436D02*
X2351015Y-5842484D01*
X2551015Y-5842484D02*
X2436729Y-5842484D01*
X2493872Y-5842484D02*
X2493872Y-5642484D01*
X2493872Y-5642484D02*
X2474825Y-5671055D01*
X2474825Y-5671055D02*
X2455777Y-5690103D01*
X2455777Y-5690103D02*
X2436729Y-5699627D01*
X2627206Y-5661531D02*
X2636729Y-5652008D01*
X2636729Y-5652008D02*
X2655777Y-5642484D01*
X2655777Y-5642484D02*
X2703396Y-5642484D01*
X2703396Y-5642484D02*
X2722444Y-5652008D01*
X2722444Y-5652008D02*
X2731968Y-5661531D01*
X2731968Y-5661531D02*
X2741491Y-5680579D01*
X2741491Y-5680579D02*
X2741491Y-5699627D01*
X2741491Y-5699627D02*
X2731968Y-5728198D01*
X2731968Y-5728198D02*
X2617682Y-5842484D01*
X2617682Y-5842484D02*
X2741491Y-5842484D01*
X2912920Y-5642484D02*
X2874825Y-5642484D01*
X2874825Y-5642484D02*
X2855777Y-5652008D01*
X2855777Y-5652008D02*
X2846253Y-5661531D01*
X2846253Y-5661531D02*
X2827206Y-5690103D01*
X2827206Y-5690103D02*
X2817682Y-5728198D01*
X2817682Y-5728198D02*
X2817682Y-5804388D01*
X2817682Y-5804388D02*
X2827206Y-5823436D01*
X2827206Y-5823436D02*
X2836729Y-5832960D01*
X2836729Y-5832960D02*
X2855777Y-5842484D01*
X2855777Y-5842484D02*
X2893872Y-5842484D01*
X2893872Y-5842484D02*
X2912920Y-5832960D01*
X2912920Y-5832960D02*
X2922444Y-5823436D01*
X2922444Y-5823436D02*
X2931967Y-5804388D01*
X2931967Y-5804388D02*
X2931967Y-5756769D01*
X2931967Y-5756769D02*
X2922444Y-5737722D01*
X2922444Y-5737722D02*
X2912920Y-5728198D01*
X2912920Y-5728198D02*
X2893872Y-5718674D01*
X2893872Y-5718674D02*
X2855777Y-5718674D01*
X2855777Y-5718674D02*
X2836729Y-5728198D01*
X2836729Y-5728198D02*
X2827206Y-5737722D01*
X2827206Y-5737722D02*
X2817682Y-5756769D01*
X3055777Y-5642484D02*
X3074825Y-5642484D01*
X3074825Y-5642484D02*
X3093872Y-5652008D01*
X3093872Y-5652008D02*
X3103396Y-5661531D01*
X3103396Y-5661531D02*
X3112920Y-5680579D01*
X3112920Y-5680579D02*
X3122444Y-5718674D01*
X3122444Y-5718674D02*
X3122444Y-5766293D01*
X3122444Y-5766293D02*
X3112920Y-5804388D01*
X3112920Y-5804388D02*
X3103396Y-5823436D01*
X3103396Y-5823436D02*
X3093872Y-5832960D01*
X3093872Y-5832960D02*
X3074825Y-5842484D01*
X3074825Y-5842484D02*
X3055777Y-5842484D01*
X3055777Y-5842484D02*
X3036729Y-5832960D01*
X3036729Y-5832960D02*
X3027206Y-5823436D01*
X3027206Y-5823436D02*
X3017682Y-5804388D01*
X3017682Y-5804388D02*
X3008158Y-5766293D01*
X3008158Y-5766293D02*
X3008158Y-5718674D01*
X3008158Y-5718674D02*
X3017682Y-5680579D01*
X3017682Y-5680579D02*
X3027206Y-5661531D01*
X3027206Y-5661531D02*
X3036729Y-5652008D01*
X3036729Y-5652008D02*
X3055777Y-5642484D01*
X3198634Y-5642484D02*
X3198634Y-5680579D01*
X3274825Y-5642484D02*
X3274825Y-5680579D01*
X3570063Y-5918674D02*
X3560539Y-5909150D01*
X3560539Y-5909150D02*
X3541491Y-5880579D01*
X3541491Y-5880579D02*
X3531968Y-5861531D01*
X3531968Y-5861531D02*
X3522444Y-5832960D01*
X3522444Y-5832960D02*
X3512920Y-5785341D01*
X3512920Y-5785341D02*
X3512920Y-5747246D01*
X3512920Y-5747246D02*
X3522444Y-5699627D01*
X3522444Y-5699627D02*
X3531968Y-5671055D01*
X3531968Y-5671055D02*
X3541491Y-5652008D01*
X3541491Y-5652008D02*
X3560539Y-5623436D01*
X3560539Y-5623436D02*
X3570063Y-5613912D01*
X3731968Y-5709150D02*
X3731968Y-5842484D01*
X3684348Y-5632960D02*
X3636729Y-5775817D01*
X3636729Y-5775817D02*
X3760539Y-5775817D01*
X3989110Y-5842484D02*
X3989110Y-5642484D01*
X4074825Y-5842484D02*
X4074825Y-5737722D01*
X4074825Y-5737722D02*
X4065301Y-5718674D01*
X4065301Y-5718674D02*
X4046253Y-5709150D01*
X4046253Y-5709150D02*
X4017682Y-5709150D01*
X4017682Y-5709150D02*
X3998634Y-5718674D01*
X3998634Y-5718674D02*
X3989110Y-5728198D01*
X4198634Y-5842484D02*
X4179587Y-5832960D01*
X4179587Y-5832960D02*
X4170063Y-5823436D01*
X4170063Y-5823436D02*
X4160539Y-5804388D01*
X4160539Y-5804388D02*
X4160539Y-5747246D01*
X4160539Y-5747246D02*
X4170063Y-5728198D01*
X4170063Y-5728198D02*
X4179587Y-5718674D01*
X4179587Y-5718674D02*
X4198634Y-5709150D01*
X4198634Y-5709150D02*
X4227206Y-5709150D01*
X4227206Y-5709150D02*
X4246253Y-5718674D01*
X4246253Y-5718674D02*
X4255777Y-5728198D01*
X4255777Y-5728198D02*
X4265301Y-5747246D01*
X4265301Y-5747246D02*
X4265301Y-5804388D01*
X4265301Y-5804388D02*
X4255777Y-5823436D01*
X4255777Y-5823436D02*
X4246253Y-5832960D01*
X4246253Y-5832960D02*
X4227206Y-5842484D01*
X4227206Y-5842484D02*
X4198634Y-5842484D01*
X4379587Y-5842484D02*
X4360539Y-5832960D01*
X4360539Y-5832960D02*
X4351015Y-5813912D01*
X4351015Y-5813912D02*
X4351015Y-5642484D01*
X4531968Y-5832960D02*
X4512920Y-5842484D01*
X4512920Y-5842484D02*
X4474825Y-5842484D01*
X4474825Y-5842484D02*
X4455777Y-5832960D01*
X4455777Y-5832960D02*
X4446253Y-5813912D01*
X4446253Y-5813912D02*
X4446253Y-5737722D01*
X4446253Y-5737722D02*
X4455777Y-5718674D01*
X4455777Y-5718674D02*
X4474825Y-5709150D01*
X4474825Y-5709150D02*
X4512920Y-5709150D01*
X4512920Y-5709150D02*
X4531968Y-5718674D01*
X4531968Y-5718674D02*
X4541492Y-5737722D01*
X4541492Y-5737722D02*
X4541492Y-5756769D01*
X4541492Y-5756769D02*
X4446253Y-5775817D01*
X4617682Y-5832960D02*
X4636730Y-5842484D01*
X4636730Y-5842484D02*
X4674825Y-5842484D01*
X4674825Y-5842484D02*
X4693873Y-5832960D01*
X4693873Y-5832960D02*
X4703396Y-5813912D01*
X4703396Y-5813912D02*
X4703396Y-5804388D01*
X4703396Y-5804388D02*
X4693873Y-5785341D01*
X4693873Y-5785341D02*
X4674825Y-5775817D01*
X4674825Y-5775817D02*
X4646253Y-5775817D01*
X4646253Y-5775817D02*
X4627206Y-5766293D01*
X4627206Y-5766293D02*
X4617682Y-5747246D01*
X4617682Y-5747246D02*
X4617682Y-5737722D01*
X4617682Y-5737722D02*
X4627206Y-5718674D01*
X4627206Y-5718674D02*
X4646253Y-5709150D01*
X4646253Y-5709150D02*
X4674825Y-5709150D01*
X4674825Y-5709150D02*
X4693873Y-5718674D01*
X4770063Y-5918674D02*
X4779587Y-5909150D01*
X4779587Y-5909150D02*
X4798634Y-5880579D01*
X4798634Y-5880579D02*
X4808158Y-5861531D01*
X4808158Y-5861531D02*
X4817682Y-5832960D01*
X4817682Y-5832960D02*
X4827206Y-5785341D01*
X4827206Y-5785341D02*
X4827206Y-5747246D01*
X4827206Y-5747246D02*
X4817682Y-5699627D01*
X4817682Y-5699627D02*
X4808158Y-5671055D01*
X4808158Y-5671055D02*
X4798634Y-5652008D01*
X4798634Y-5652008D02*
X4779587Y-5623436D01*
X4779587Y-5623436D02*
X4770063Y-5613912D01*
X-205000Y-5971000D02*
X-5000Y-6171000D01*
X-5000Y-5971000D02*
X-205000Y-6171000D01*
X-5000Y-6071000D02*
G75*
G02*
X-205000Y-6071000I-100000J0D01*
G01*
X-205000Y-6071000D02*
G75*
G02*
X-5000Y-6071000I100000J0D01*
G01*
X236729Y-5962484D02*
X360539Y-5962484D01*
X360539Y-5962484D02*
X293872Y-6038674D01*
X293872Y-6038674D02*
X322444Y-6038674D01*
X322444Y-6038674D02*
X341491Y-6048198D01*
X341491Y-6048198D02*
X351015Y-6057722D01*
X351015Y-6057722D02*
X360539Y-6076769D01*
X360539Y-6076769D02*
X360539Y-6124388D01*
X360539Y-6124388D02*
X351015Y-6143436D01*
X351015Y-6143436D02*
X341491Y-6152960D01*
X341491Y-6152960D02*
X322444Y-6162484D01*
X322444Y-6162484D02*
X265301Y-6162484D01*
X265301Y-6162484D02*
X246253Y-6152960D01*
X246253Y-6152960D02*
X236729Y-6143436D01*
X446253Y-6143436D02*
X455777Y-6152960D01*
X455777Y-6152960D02*
X446253Y-6162484D01*
X446253Y-6162484D02*
X436729Y-6152960D01*
X436729Y-6152960D02*
X446253Y-6143436D01*
X446253Y-6143436D02*
X446253Y-6162484D01*
X522443Y-5962484D02*
X655777Y-5962484D01*
X655777Y-5962484D02*
X570063Y-6162484D01*
X770062Y-5962484D02*
X789110Y-5962484D01*
X789110Y-5962484D02*
X808158Y-5972008D01*
X808158Y-5972008D02*
X817682Y-5981531D01*
X817682Y-5981531D02*
X827205Y-6000579D01*
X827205Y-6000579D02*
X836729Y-6038674D01*
X836729Y-6038674D02*
X836729Y-6086293D01*
X836729Y-6086293D02*
X827205Y-6124388D01*
X827205Y-6124388D02*
X817682Y-6143436D01*
X817682Y-6143436D02*
X808158Y-6152960D01*
X808158Y-6152960D02*
X789110Y-6162484D01*
X789110Y-6162484D02*
X770062Y-6162484D01*
X770062Y-6162484D02*
X751015Y-6152960D01*
X751015Y-6152960D02*
X741491Y-6143436D01*
X741491Y-6143436D02*
X731967Y-6124388D01*
X731967Y-6124388D02*
X722443Y-6086293D01*
X722443Y-6086293D02*
X722443Y-6038674D01*
X722443Y-6038674D02*
X731967Y-6000579D01*
X731967Y-6000579D02*
X741491Y-5981531D01*
X741491Y-5981531D02*
X751015Y-5972008D01*
X751015Y-5972008D02*
X770062Y-5962484D01*
X960539Y-5962484D02*
X979586Y-5962484D01*
X979586Y-5962484D02*
X998634Y-5972008D01*
X998634Y-5972008D02*
X1008158Y-5981531D01*
X1008158Y-5981531D02*
X1017682Y-6000579D01*
X1017682Y-6000579D02*
X1027205Y-6038674D01*
X1027205Y-6038674D02*
X1027205Y-6086293D01*
X1027205Y-6086293D02*
X1017682Y-6124388D01*
X1017682Y-6124388D02*
X1008158Y-6143436D01*
X1008158Y-6143436D02*
X998634Y-6152960D01*
X998634Y-6152960D02*
X979586Y-6162484D01*
X979586Y-6162484D02*
X960539Y-6162484D01*
X960539Y-6162484D02*
X941491Y-6152960D01*
X941491Y-6152960D02*
X931967Y-6143436D01*
X931967Y-6143436D02*
X922443Y-6124388D01*
X922443Y-6124388D02*
X912920Y-6086293D01*
X912920Y-6086293D02*
X912920Y-6038674D01*
X912920Y-6038674D02*
X922443Y-6000579D01*
X922443Y-6000579D02*
X931967Y-5981531D01*
X931967Y-5981531D02*
X941491Y-5972008D01*
X941491Y-5972008D02*
X960539Y-5962484D01*
X1112920Y-6162484D02*
X1112920Y-6029150D01*
X1112920Y-6048198D02*
X1122444Y-6038674D01*
X1122444Y-6038674D02*
X1141491Y-6029150D01*
X1141491Y-6029150D02*
X1170063Y-6029150D01*
X1170063Y-6029150D02*
X1189110Y-6038674D01*
X1189110Y-6038674D02*
X1198634Y-6057722D01*
X1198634Y-6057722D02*
X1198634Y-6162484D01*
X1198634Y-6057722D02*
X1208158Y-6038674D01*
X1208158Y-6038674D02*
X1227205Y-6029150D01*
X1227205Y-6029150D02*
X1255777Y-6029150D01*
X1255777Y-6029150D02*
X1274825Y-6038674D01*
X1274825Y-6038674D02*
X1284348Y-6057722D01*
X1284348Y-6057722D02*
X1284348Y-6162484D01*
X1379586Y-6162484D02*
X1379586Y-6029150D01*
X1379586Y-6048198D02*
X1389110Y-6038674D01*
X1389110Y-6038674D02*
X1408158Y-6029150D01*
X1408158Y-6029150D02*
X1436729Y-6029150D01*
X1436729Y-6029150D02*
X1455777Y-6038674D01*
X1455777Y-6038674D02*
X1465301Y-6057722D01*
X1465301Y-6057722D02*
X1465301Y-6162484D01*
X1465301Y-6057722D02*
X1474824Y-6038674D01*
X1474824Y-6038674D02*
X1493872Y-6029150D01*
X1493872Y-6029150D02*
X1522443Y-6029150D01*
X1522443Y-6029150D02*
X1541491Y-6038674D01*
X1541491Y-6038674D02*
X1551015Y-6057722D01*
X1551015Y-6057722D02*
X1551015Y-6162484D01*
X1941491Y-5952960D02*
X1770063Y-6210103D01*
X2198634Y-5962484D02*
X2217682Y-5962484D01*
X2217682Y-5962484D02*
X2236729Y-5972008D01*
X2236729Y-5972008D02*
X2246253Y-5981531D01*
X2246253Y-5981531D02*
X2255777Y-6000579D01*
X2255777Y-6000579D02*
X2265301Y-6038674D01*
X2265301Y-6038674D02*
X2265301Y-6086293D01*
X2265301Y-6086293D02*
X2255777Y-6124388D01*
X2255777Y-6124388D02*
X2246253Y-6143436D01*
X2246253Y-6143436D02*
X2236729Y-6152960D01*
X2236729Y-6152960D02*
X2217682Y-6162484D01*
X2217682Y-6162484D02*
X2198634Y-6162484D01*
X2198634Y-6162484D02*
X2179587Y-6152960D01*
X2179587Y-6152960D02*
X2170063Y-6143436D01*
X2170063Y-6143436D02*
X2160539Y-6124388D01*
X2160539Y-6124388D02*
X2151015Y-6086293D01*
X2151015Y-6086293D02*
X2151015Y-6038674D01*
X2151015Y-6038674D02*
X2160539Y-6000579D01*
X2160539Y-6000579D02*
X2170063Y-5981531D01*
X2170063Y-5981531D02*
X2179587Y-5972008D01*
X2179587Y-5972008D02*
X2198634Y-5962484D01*
X2351015Y-6143436D02*
X2360539Y-6152960D01*
X2360539Y-6152960D02*
X2351015Y-6162484D01*
X2351015Y-6162484D02*
X2341491Y-6152960D01*
X2341491Y-6152960D02*
X2351015Y-6143436D01*
X2351015Y-6143436D02*
X2351015Y-6162484D01*
X2551015Y-6162484D02*
X2436729Y-6162484D01*
X2493872Y-6162484D02*
X2493872Y-5962484D01*
X2493872Y-5962484D02*
X2474825Y-5991055D01*
X2474825Y-5991055D02*
X2455777Y-6010103D01*
X2455777Y-6010103D02*
X2436729Y-6019627D01*
X2722444Y-6029150D02*
X2722444Y-6162484D01*
X2674825Y-5952960D02*
X2627206Y-6095817D01*
X2627206Y-6095817D02*
X2751015Y-6095817D01*
X2922444Y-5962484D02*
X2827206Y-5962484D01*
X2827206Y-5962484D02*
X2817682Y-6057722D01*
X2817682Y-6057722D02*
X2827206Y-6048198D01*
X2827206Y-6048198D02*
X2846253Y-6038674D01*
X2846253Y-6038674D02*
X2893872Y-6038674D01*
X2893872Y-6038674D02*
X2912920Y-6048198D01*
X2912920Y-6048198D02*
X2922444Y-6057722D01*
X2922444Y-6057722D02*
X2931967Y-6076769D01*
X2931967Y-6076769D02*
X2931967Y-6124388D01*
X2931967Y-6124388D02*
X2922444Y-6143436D01*
X2922444Y-6143436D02*
X2912920Y-6152960D01*
X2912920Y-6152960D02*
X2893872Y-6162484D01*
X2893872Y-6162484D02*
X2846253Y-6162484D01*
X2846253Y-6162484D02*
X2827206Y-6152960D01*
X2827206Y-6152960D02*
X2817682Y-6143436D01*
X2998634Y-5962484D02*
X3131967Y-5962484D01*
X3131967Y-5962484D02*
X3046253Y-6162484D01*
X3198634Y-5962484D02*
X3198634Y-6000579D01*
X3274825Y-5962484D02*
X3274825Y-6000579D01*
X3570063Y-6238674D02*
X3560539Y-6229150D01*
X3560539Y-6229150D02*
X3541491Y-6200579D01*
X3541491Y-6200579D02*
X3531968Y-6181531D01*
X3531968Y-6181531D02*
X3522444Y-6152960D01*
X3522444Y-6152960D02*
X3512920Y-6105341D01*
X3512920Y-6105341D02*
X3512920Y-6067246D01*
X3512920Y-6067246D02*
X3522444Y-6019627D01*
X3522444Y-6019627D02*
X3531968Y-5991055D01*
X3531968Y-5991055D02*
X3541491Y-5972008D01*
X3541491Y-5972008D02*
X3560539Y-5943436D01*
X3560539Y-5943436D02*
X3570063Y-5933912D01*
X3751015Y-6162484D02*
X3636729Y-6162484D01*
X3693872Y-6162484D02*
X3693872Y-5962484D01*
X3693872Y-5962484D02*
X3674825Y-5991055D01*
X3674825Y-5991055D02*
X3655777Y-6010103D01*
X3655777Y-6010103D02*
X3636729Y-6019627D01*
X3989110Y-6162484D02*
X3989110Y-5962484D01*
X4074825Y-6162484D02*
X4074825Y-6057722D01*
X4074825Y-6057722D02*
X4065301Y-6038674D01*
X4065301Y-6038674D02*
X4046253Y-6029150D01*
X4046253Y-6029150D02*
X4017682Y-6029150D01*
X4017682Y-6029150D02*
X3998634Y-6038674D01*
X3998634Y-6038674D02*
X3989110Y-6048198D01*
X4198634Y-6162484D02*
X4179587Y-6152960D01*
X4179587Y-6152960D02*
X4170063Y-6143436D01*
X4170063Y-6143436D02*
X4160539Y-6124388D01*
X4160539Y-6124388D02*
X4160539Y-6067246D01*
X4160539Y-6067246D02*
X4170063Y-6048198D01*
X4170063Y-6048198D02*
X4179587Y-6038674D01*
X4179587Y-6038674D02*
X4198634Y-6029150D01*
X4198634Y-6029150D02*
X4227206Y-6029150D01*
X4227206Y-6029150D02*
X4246253Y-6038674D01*
X4246253Y-6038674D02*
X4255777Y-6048198D01*
X4255777Y-6048198D02*
X4265301Y-6067246D01*
X4265301Y-6067246D02*
X4265301Y-6124388D01*
X4265301Y-6124388D02*
X4255777Y-6143436D01*
X4255777Y-6143436D02*
X4246253Y-6152960D01*
X4246253Y-6152960D02*
X4227206Y-6162484D01*
X4227206Y-6162484D02*
X4198634Y-6162484D01*
X4379587Y-6162484D02*
X4360539Y-6152960D01*
X4360539Y-6152960D02*
X4351015Y-6133912D01*
X4351015Y-6133912D02*
X4351015Y-5962484D01*
X4531968Y-6152960D02*
X4512920Y-6162484D01*
X4512920Y-6162484D02*
X4474825Y-6162484D01*
X4474825Y-6162484D02*
X4455777Y-6152960D01*
X4455777Y-6152960D02*
X4446253Y-6133912D01*
X4446253Y-6133912D02*
X4446253Y-6057722D01*
X4446253Y-6057722D02*
X4455777Y-6038674D01*
X4455777Y-6038674D02*
X4474825Y-6029150D01*
X4474825Y-6029150D02*
X4512920Y-6029150D01*
X4512920Y-6029150D02*
X4531968Y-6038674D01*
X4531968Y-6038674D02*
X4541492Y-6057722D01*
X4541492Y-6057722D02*
X4541492Y-6076769D01*
X4541492Y-6076769D02*
X4446253Y-6095817D01*
X4608158Y-6238674D02*
X4617682Y-6229150D01*
X4617682Y-6229150D02*
X4636730Y-6200579D01*
X4636730Y-6200579D02*
X4646253Y-6181531D01*
X4646253Y-6181531D02*
X4655777Y-6152960D01*
X4655777Y-6152960D02*
X4665301Y-6105341D01*
X4665301Y-6105341D02*
X4665301Y-6067246D01*
X4665301Y-6067246D02*
X4655777Y-6019627D01*
X4655777Y-6019627D02*
X4646253Y-5991055D01*
X4646253Y-5991055D02*
X4636730Y-5972008D01*
X4636730Y-5972008D02*
X4617682Y-5943436D01*
X4617682Y-5943436D02*
X4608158Y-5933912D01*
M02*
