%TF.GenerationSoftware,KiCad,Pcbnew,10.0.6*%
%TF.CreationDate,2026-09-20T14:32:54-04:00*%
%TF.ProjectId,USBC_M2E_HaLow_Adapter,55534243-5f4d-4324-955f-48614c6f775f,rev?*%
%TF.SameCoordinates,Original*%
%TF.FileFunction,Copper,L1,Top*%
%TF.FilePolarity,Positive*%
%FSLAX46Y46*%
G04 Gerber Fmt 4.6, Leading zero omitted, Abs format (unit mm)*
G04 Created by KiCad (PCBNEW 10.0.6) date 2026-09-20 14:32:54*
%MOMM*%
%LPD*%
G01*
G04 APERTURE LIST*
G04 Aperture macros list*
%AMRoundRect*
0 Rectangle with rounded corners*
0 $1 Rounding radius*
0 $2 $3 $4 $5 $6 $7 $8 $9 X,Y pos of 4 corners*
0 Add a 4 corners polygon primitive as box body*
4,1,4,$2,$3,$4,$5,$6,$7,$8,$9,$2,$3,0*
0 Add four circle primitives for the rounded corners*
1,1,$1+$1,$2,$3*
1,1,$1+$1,$4,$5*
1,1,$1+$1,$6,$7*
1,1,$1+$1,$8,$9*
0 Add four rect primitives between the rounded corners*
20,1,$1+$1,$2,$3,$4,$5,0*
20,1,$1+$1,$4,$5,$6,$7,0*
20,1,$1+$1,$6,$7,$8,$9,0*
20,1,$1+$1,$8,$9,$2,$3,0*%
G04 Aperture macros list end*
%TA.AperFunction,SMDPad,CuDef*%
%ADD10RoundRect,0.150000X0.512500X0.150000X-0.512500X0.150000X-0.512500X-0.150000X0.512500X-0.150000X0*%
%TD*%
%TA.AperFunction,SMDPad,CuDef*%
%ADD11RoundRect,0.135000X-0.135000X-0.185000X0.135000X-0.185000X0.135000X0.185000X-0.135000X0.185000X0*%
%TD*%
%TA.AperFunction,ComponentPad*%
%ADD12C,0.800000*%
%TD*%
%TA.AperFunction,ComponentPad*%
%ADD13C,6.400000*%
%TD*%
%TA.AperFunction,SMDPad,CuDef*%
%ADD14RoundRect,0.250000X-1.100000X0.325000X-1.100000X-0.325000X1.100000X-0.325000X1.100000X0.325000X0*%
%TD*%
%TA.AperFunction,SMDPad,CuDef*%
%ADD15RoundRect,0.150000X-0.575000X0.150000X-0.575000X-0.150000X0.575000X-0.150000X0.575000X0.150000X0*%
%TD*%
%TA.AperFunction,SMDPad,CuDef*%
%ADD16RoundRect,0.075000X-0.650000X0.075000X-0.650000X-0.075000X0.650000X-0.075000X0.650000X0.075000X0*%
%TD*%
%TA.AperFunction,ComponentPad*%
%ADD17O,2.100000X1.000000*%
%TD*%
%TA.AperFunction,ComponentPad*%
%ADD18O,1.600000X1.000000*%
%TD*%
%TA.AperFunction,SMDPad,CuDef*%
%ADD19C,1.000000*%
%TD*%
%TA.AperFunction,SMDPad,CuDef*%
%ADD20RoundRect,0.225000X-0.250000X0.225000X-0.250000X-0.225000X0.250000X-0.225000X0.250000X0.225000X0*%
%TD*%
%TA.AperFunction,SMDPad,CuDef*%
%ADD21C,1.500000*%
%TD*%
%TA.AperFunction,SMDPad,CuDef*%
%ADD22RoundRect,0.140000X-0.140000X-0.170000X0.140000X-0.170000X0.140000X0.170000X-0.140000X0.170000X0*%
%TD*%
%TA.AperFunction,SMDPad,CuDef*%
%ADD23RoundRect,0.250000X-0.300000X-0.300000X0.300000X-0.300000X0.300000X0.300000X-0.300000X0.300000X0*%
%TD*%
%TA.AperFunction,SMDPad,CuDef*%
%ADD24RoundRect,0.250000X-0.250000X-0.475000X0.250000X-0.475000X0.250000X0.475000X-0.250000X0.475000X0*%
%TD*%
%TA.AperFunction,SMDPad,CuDef*%
%ADD25RoundRect,0.140000X-0.170000X0.140000X-0.170000X-0.140000X0.170000X-0.140000X0.170000X0.140000X0*%
%TD*%
%TA.AperFunction,SMDPad,CuDef*%
%ADD26RoundRect,0.250000X-0.650000X0.325000X-0.650000X-0.325000X0.650000X-0.325000X0.650000X0.325000X0*%
%TD*%
%TA.AperFunction,SMDPad,CuDef*%
%ADD27R,2.350000X3.500000*%
%TD*%
%TA.AperFunction,SMDPad,CuDef*%
%ADD28RoundRect,0.135000X0.135000X0.185000X-0.135000X0.185000X-0.135000X-0.185000X0.135000X-0.185000X0*%
%TD*%
%TA.AperFunction,SMDPad,CuDef*%
%ADD29R,1.550000X0.300000*%
%TD*%
%TA.AperFunction,SMDPad,CuDef*%
%ADD30R,2.750000X1.200000*%
%TD*%
%TA.AperFunction,ComponentPad*%
%ADD31C,4.300000*%
%TD*%
%TA.AperFunction,SMDPad,CuDef*%
%ADD32C,5.600000*%
%TD*%
%TA.AperFunction,ViaPad*%
%ADD33C,0.800000*%
%TD*%
%TA.AperFunction,ViaPad*%
%ADD34C,0.600000*%
%TD*%
%TA.AperFunction,Conductor*%
%ADD35C,0.300000*%
%TD*%
%TA.AperFunction,Conductor*%
%ADD36C,0.400000*%
%TD*%
%TA.AperFunction,Conductor*%
%ADD37C,0.250000*%
%TD*%
%TA.AperFunction,Conductor*%
%ADD38C,0.500000*%
%TD*%
%TA.AperFunction,Conductor*%
%ADD39C,0.800000*%
%TD*%
%TA.AperFunction,Conductor*%
%ADD40C,0.600000*%
%TD*%
%TA.AperFunction,Conductor*%
%ADD41C,0.200000*%
%TD*%
%TA.AperFunction,Conductor*%
%ADD42C,0.334500*%
%TD*%
%TA.AperFunction,Conductor*%
%ADD43C,1.200000*%
%TD*%
%TA.AperFunction,Conductor*%
%ADD44C,1.500000*%
%TD*%
G04 APERTURE END LIST*
D10*
%TO.P,U2,1*%
%TO.N,GND*%
X14037500Y-5250000D03*
%TO.P,U2,2*%
%TO.N,/SW*%
X14037500Y-4300000D03*
%TO.P,U2,3*%
%TO.N,VBUS*%
X14037500Y-3350000D03*
%TO.P,U2,4*%
%TO.N,/FB*%
X11762500Y-3350000D03*
%TO.P,U2,5*%
%TO.N,VBUS*%
X11762500Y-4300000D03*
%TO.P,U2,6*%
%TO.N,/VBST*%
X11762500Y-5250000D03*
%TD*%
D11*
%TO.P,R2,1*%
%TO.N,/CC2*%
X9790000Y-23650000D03*
%TO.P,R2,2*%
%TO.N,GND*%
X10810000Y-23650000D03*
%TD*%
D12*
%TO.P,H3,1*%
%TO.N,GND*%
X1600000Y-36500000D03*
X2302944Y-34802944D03*
X2302944Y-38197056D03*
X4000000Y-34100000D03*
D13*
X4000000Y-36500000D03*
D12*
X4000000Y-38900000D03*
X5697056Y-34802944D03*
X5697056Y-38197056D03*
X6400000Y-36500000D03*
%TD*%
%TO.P,H2,1*%
%TO.N,GND*%
X50100000Y-4000000D03*
X50802944Y-2302944D03*
X50802944Y-5697056D03*
X52500000Y-1600000D03*
D13*
X52500000Y-4000000D03*
D12*
X52500000Y-6400000D03*
X54197056Y-2302944D03*
X54197056Y-5697056D03*
X54900000Y-4000000D03*
%TD*%
D14*
%TO.P,C1,1*%
%TO.N,VBUS*%
X18200000Y-2825000D03*
%TO.P,C1,2*%
%TO.N,GND*%
X18200000Y-5775000D03*
%TD*%
D11*
%TO.P,R1,1*%
%TO.N,/CC1*%
X9790000Y-19850000D03*
%TO.P,R1,2*%
%TO.N,GND*%
X10810000Y-19850000D03*
%TD*%
D15*
%TO.P,J1,A1*%
%TO.N,GND*%
X7195000Y-18250000D03*
%TO.P,J1,A4*%
%TO.N,VBUS*%
X7195000Y-19050000D03*
D16*
%TO.P,J1,A5*%
%TO.N,/CC1*%
X7195000Y-20250000D03*
%TO.P,J1,A6*%
%TO.N,/USB_D_P*%
X7195000Y-21250000D03*
%TO.P,J1,A7*%
%TO.N,/USB_D_N*%
X7195000Y-21750000D03*
%TO.P,J1,A8*%
%TO.N,unconnected-(J1-SBU1-PadA8)*%
X7195000Y-22750000D03*
D15*
%TO.P,J1,A9*%
%TO.N,VBUS*%
X7195000Y-23950000D03*
%TO.P,J1,A12*%
%TO.N,GND*%
X7195000Y-24750000D03*
%TO.P,J1,B1*%
X7195000Y-24750000D03*
%TO.P,J1,B4*%
%TO.N,VBUS*%
X7195000Y-23950000D03*
D16*
%TO.P,J1,B5*%
%TO.N,/CC2*%
X7195000Y-23250000D03*
%TO.P,J1,B6*%
%TO.N,/USB_D_P*%
X7195000Y-22250000D03*
%TO.P,J1,B7*%
%TO.N,/USB_D_N*%
X7195000Y-20750000D03*
%TO.P,J1,B8*%
%TO.N,unconnected-(J1-SBU2-PadB8)*%
X7195000Y-19750000D03*
D15*
%TO.P,J1,B9*%
%TO.N,VBUS*%
X7195000Y-19050000D03*
%TO.P,J1,B12*%
%TO.N,GND*%
X7195000Y-18250000D03*
D17*
%TO.P,J1,SH*%
X6280000Y-17180000D03*
D18*
X2100000Y-17180000D03*
D17*
X6280000Y-25820000D03*
D18*
X2100000Y-25820000D03*
%TD*%
D10*
%TO.P,U1,1*%
%TO.N,/USB_D_N*%
X14437500Y-22450000D03*
%TO.P,U1,2*%
%TO.N,GND*%
X14437500Y-21500000D03*
%TO.P,U1,3*%
%TO.N,/USB_D_P*%
X14437500Y-20550000D03*
%TO.P,U1,4*%
X12162500Y-20550000D03*
%TO.P,U1,5*%
%TO.N,unconnected-(U1-VBUS-Pad5)*%
X12162500Y-21500000D03*
%TO.P,U1,6*%
%TO.N,/USB_D_N*%
X12162500Y-22450000D03*
%TD*%
D19*
%TO.P,FID3,*%
%TO.N,*%
X46000000Y-36200000D03*
%TD*%
D20*
%TO.P,C7,1*%
%TO.N,+3V3*%
X25770000Y-33625000D03*
%TO.P,C7,2*%
%TO.N,GND*%
X25770000Y-35175000D03*
%TD*%
D21*
%TO.P,TP3,1*%
%TO.N,GND*%
X15500000Y-14599999D03*
%TD*%
D22*
%TO.P,C3,1*%
%TO.N,/SW*%
X9320000Y-5450000D03*
%TO.P,C3,2*%
%TO.N,/VBST*%
X10280000Y-5450000D03*
%TD*%
%TO.P,C8,1*%
%TO.N,+3V3*%
X27320000Y-30250000D03*
%TO.P,C8,2*%
%TO.N,GND*%
X28280000Y-30250000D03*
%TD*%
D19*
%TO.P,FID1,*%
%TO.N,*%
X10000000Y-37500000D03*
%TD*%
D12*
%TO.P,H4,1*%
%TO.N,GND*%
X50100000Y-36500000D03*
X50802944Y-34802944D03*
X50802944Y-38197056D03*
X52500000Y-34100000D03*
D13*
X52500000Y-36500000D03*
D12*
X52500000Y-38900000D03*
X54197056Y-34802944D03*
X54197056Y-38197056D03*
X54900000Y-36500000D03*
%TD*%
D23*
%TO.P,D1,1*%
%TO.N,VBUS*%
X9400000Y-17600000D03*
%TO.P,D1,2*%
%TO.N,GND*%
X12200000Y-17600000D03*
%TD*%
D24*
%TO.P,C4,1*%
%TO.N,+3V3*%
X29650000Y-3200000D03*
%TO.P,C4,2*%
%TO.N,GND*%
X31550000Y-3200000D03*
%TD*%
D21*
%TO.P,TP2,1*%
%TO.N,VBUS*%
X12000000Y-14599999D03*
%TD*%
D12*
%TO.P,H1,1*%
%TO.N,GND*%
X1600000Y-4000000D03*
X2302944Y-2302944D03*
X2302944Y-5697056D03*
X4000000Y-1600000D03*
D13*
X4000000Y-4000000D03*
D12*
X4000000Y-6400000D03*
X5697056Y-2302944D03*
X5697056Y-5697056D03*
X6400000Y-4000000D03*
%TD*%
D25*
%TO.P,C2,1*%
%TO.N,VBUS*%
X16000000Y-3820000D03*
%TO.P,C2,2*%
%TO.N,GND*%
X16000000Y-4780000D03*
%TD*%
D26*
%TO.P,C6,1*%
%TO.N,+3V3*%
X28070000Y-33425000D03*
%TO.P,C6,2*%
%TO.N,GND*%
X28070000Y-36375000D03*
%TD*%
D22*
%TO.P,C9,1*%
%TO.N,+3V3*%
X27320000Y-12750000D03*
%TO.P,C9,2*%
%TO.N,GND*%
X28280000Y-12750000D03*
%TD*%
D24*
%TO.P,C5,1*%
%TO.N,+3V3*%
X29650000Y-5400000D03*
%TO.P,C5,2*%
%TO.N,GND*%
X31550000Y-5400000D03*
%TD*%
D27*
%TO.P,L1,1*%
%TO.N,/SW*%
X21300000Y-4300000D03*
%TO.P,L1,2*%
%TO.N,+3V3*%
X27000000Y-4300000D03*
%TD*%
D19*
%TO.P,FID2,*%
%TO.N,*%
X46000000Y-4000000D03*
%TD*%
D11*
%TO.P,R3,1*%
%TO.N,+3V3*%
X9290000Y-2150000D03*
%TO.P,R3,2*%
%TO.N,/FB*%
X10310000Y-2150000D03*
%TD*%
D21*
%TO.P,TP1,1*%
%TO.N,+3V3*%
X33000000Y-35000000D03*
%TD*%
D28*
%TO.P,R4,1*%
%TO.N,/FB*%
X10310000Y-3350000D03*
%TO.P,R4,2*%
%TO.N,GND*%
X9290000Y-3350000D03*
%TD*%
D29*
%TO.P,J2,1*%
%TO.N,GND*%
X18230000Y-30750000D03*
%TO.P,J2,2*%
%TO.N,+3V3*%
X25770000Y-30500000D03*
%TO.P,J2,3*%
%TO.N,/USB_D_P*%
X18230000Y-30250000D03*
%TO.P,J2,4*%
%TO.N,+3V3*%
X25770000Y-30000000D03*
%TO.P,J2,5*%
%TO.N,/USB_D_N*%
X18230000Y-29750000D03*
%TO.P,J2,6*%
%TO.N,unconnected-(J2-~{LED_1}-Pad6)*%
X25770000Y-29500000D03*
%TO.P,J2,7*%
%TO.N,GND*%
X18230000Y-29250000D03*
%TO.P,J2,8*%
%TO.N,unconnected-(J2-PCM_CLK{slash}I2S_SCK-Pad8)*%
X25770000Y-29000000D03*
%TO.P,J2,9*%
%TO.N,unconnected-(J2-SDIO_CLK-Pad9)*%
X18230000Y-28750000D03*
%TO.P,J2,10*%
%TO.N,unconnected-(J2-PCM_SYNC{slash}I2S_WS-Pad10)*%
X25770000Y-28500000D03*
%TO.P,J2,11*%
%TO.N,unconnected-(J2-SDIO_CMD-Pad11)*%
X18230000Y-28250000D03*
%TO.P,J2,12*%
%TO.N,unconnected-(J2-PCM_IN{slash}I2S_SD_IN-Pad12)*%
X25770000Y-28000000D03*
%TO.P,J2,13*%
%TO.N,unconnected-(J2-SDIO_DATA0-Pad13)*%
X18230000Y-27750000D03*
%TO.P,J2,14*%
%TO.N,unconnected-(J2-PCM_OUT{slash}I2S_SD_OUT-Pad14)*%
X25770000Y-27500000D03*
%TO.P,J2,15*%
%TO.N,unconnected-(J2-SDIO_DATA1-Pad15)*%
X18230000Y-27250000D03*
%TO.P,J2,16*%
%TO.N,unconnected-(J2-~{LED_2}-Pad16)*%
X25770000Y-27000000D03*
%TO.P,J2,17*%
%TO.N,unconnected-(J2-SDIO_DATA2-Pad17)*%
X18230000Y-26750000D03*
%TO.P,J2,18*%
%TO.N,GND*%
X25770000Y-26500000D03*
%TO.P,J2,19*%
%TO.N,unconnected-(J2-SDIO_DATA3-Pad19)*%
X18230000Y-26250000D03*
%TO.P,J2,20*%
%TO.N,unconnected-(J2-~{UART_WAKE}-Pad20)*%
X25770000Y-26000000D03*
%TO.P,J2,21*%
%TO.N,unconnected-(J2-~{SDIO_WAKE}-Pad21)*%
X18230000Y-25750000D03*
%TO.P,J2,22*%
%TO.N,unconnected-(J2-UART_RXD-Pad22)*%
X25770000Y-25500000D03*
%TO.P,J2,23*%
%TO.N,unconnected-(J2-~{SDIO_RESET}-Pad23)*%
X18230000Y-25250000D03*
%TO.P,J2,32*%
%TO.N,unconnected-(J2-UART_TXD-Pad32)*%
X25770000Y-23000000D03*
%TO.P,J2,33*%
%TO.N,GND*%
X18230000Y-22750000D03*
%TO.P,J2,34*%
%TO.N,unconnected-(J2-UART_CTS-Pad34)*%
X25770000Y-22500000D03*
%TO.P,J2,35*%
%TO.N,unconnected-(J2-PETp0-Pad35)*%
X18230000Y-22250000D03*
%TO.P,J2,36*%
%TO.N,unconnected-(J2-UART_RTS-Pad36)*%
X25770000Y-22000000D03*
%TO.P,J2,37*%
%TO.N,unconnected-(J2-PETn0-Pad37)*%
X18230000Y-21750000D03*
%TO.P,J2,38*%
%TO.N,unconnected-(J2-VENDOR_DEFINED-Pad38)*%
X25770000Y-21500000D03*
%TO.P,J2,39*%
%TO.N,GND*%
X18230000Y-21250000D03*
%TO.P,J2,40*%
%TO.N,unconnected-(J2-VENDOR_DEFINED-Pad40)*%
X25770000Y-21000000D03*
%TO.P,J2,41*%
%TO.N,unconnected-(J2-PERp0-Pad41)*%
X18230000Y-20750000D03*
%TO.P,J2,42*%
%TO.N,unconnected-(J2-VENDOR_DEFINED-Pad42)*%
X25770000Y-20500000D03*
%TO.P,J2,43*%
%TO.N,unconnected-(J2-PERn0-Pad43)*%
X18230000Y-20250000D03*
%TO.P,J2,44*%
%TO.N,unconnected-(J2-COEX3-Pad44)*%
X25770000Y-20000000D03*
%TO.P,J2,45*%
%TO.N,GND*%
X18230000Y-19750000D03*
%TO.P,J2,46*%
%TO.N,unconnected-(J2-COEX2-Pad46)*%
X25770000Y-19500000D03*
%TO.P,J2,47*%
%TO.N,unconnected-(J2-REFCLKp0-Pad47)*%
X18230000Y-19250000D03*
%TO.P,J2,48*%
%TO.N,unconnected-(J2-COEX1-Pad48)*%
X25770000Y-19000000D03*
%TO.P,J2,49*%
%TO.N,unconnected-(J2-REFCLKn0-Pad49)*%
X18230000Y-18750000D03*
%TO.P,J2,50*%
%TO.N,unconnected-(J2-SUSCLK-Pad50)*%
X25770000Y-18500000D03*
%TO.P,J2,51*%
%TO.N,GND*%
X18230000Y-18250000D03*
%TO.P,J2,52*%
%TO.N,unconnected-(J2-~{PERST0}-Pad52)*%
X25770000Y-18000000D03*
%TO.P,J2,53*%
%TO.N,unconnected-(J2-~{CLKREQ0}-Pad53)*%
X18230000Y-17750000D03*
%TO.P,J2,54*%
%TO.N,unconnected-(J2-~{W_DISABLE2}-Pad54)*%
X25770000Y-17500000D03*
%TO.P,J2,55*%
%TO.N,unconnected-(J2-~{PEWAKE0}-Pad55)*%
X18230000Y-17250000D03*
%TO.P,J2,56*%
%TO.N,unconnected-(J2-~{W_DISABLE1}-Pad56)*%
X25770000Y-17000000D03*
%TO.P,J2,57*%
%TO.N,GND*%
X18230000Y-16750000D03*
%TO.P,J2,58*%
%TO.N,unconnected-(J2-I2C_DATA-Pad58)*%
X25770000Y-16500000D03*
%TO.P,J2,59*%
%TO.N,unconnected-(J2-RESERVED{slash}PETp1-Pad59)*%
X18230000Y-16250000D03*
%TO.P,J2,60*%
%TO.N,unconnected-(J2-I2C_CLK-Pad60)*%
X25770000Y-16000000D03*
%TO.P,J2,61*%
%TO.N,unconnected-(J2-RESERVED{slash}PETn1-Pad61)*%
X18230000Y-15750000D03*
%TO.P,J2,62*%
%TO.N,unconnected-(J2-~{ALERT}-Pad62)*%
X25770000Y-15500000D03*
%TO.P,J2,63*%
%TO.N,GND*%
X18230000Y-15250000D03*
%TO.P,J2,64*%
%TO.N,unconnected-(J2-RESERVED-Pad64)*%
X25770000Y-15000000D03*
%TO.P,J2,65*%
%TO.N,unconnected-(J2-RESERVED{slash}PERp1-Pad65)*%
X18230000Y-14750000D03*
%TO.P,J2,66*%
%TO.N,unconnected-(J2-UIM_SWP{slash}~{PERST1}-Pad66)*%
X25770000Y-14500000D03*
%TO.P,J2,67*%
%TO.N,unconnected-(J2-RESERVED{slash}PERn1-Pad67)*%
X18230000Y-14250000D03*
%TO.P,J2,68*%
%TO.N,unconnected-(J2-UIM_POWER_SNK{slash}~{CLKREQ1}-Pad68)*%
X25770000Y-14000000D03*
%TO.P,J2,69*%
%TO.N,GND*%
X18230000Y-13750000D03*
%TO.P,J2,70*%
%TO.N,unconnected-(J2-UIM_POWER_SRC{slash}GPIO1{slash}~{PEWAKE1}-Pad70)*%
X25770000Y-13500000D03*
%TO.P,J2,71*%
%TO.N,unconnected-(J2-RESERVED{slash}REFCLKp1-Pad71)*%
X18230000Y-13250000D03*
%TO.P,J2,72*%
%TO.N,+3V3*%
X25770000Y-13000000D03*
%TO.P,J2,73*%
%TO.N,unconnected-(J2-RESERVED{slash}REFCLKn1-Pad73)*%
X18230000Y-12750000D03*
%TO.P,J2,74*%
%TO.N,+3V3*%
X25770000Y-12500000D03*
%TO.P,J2,75*%
%TO.N,GND*%
X18230000Y-12250000D03*
D30*
%TO.P,J2,76*%
X19000000Y-31850000D03*
%TO.P,J2,77*%
X19000000Y-11150000D03*
%TD*%
D31*
%TO.P,H5,1*%
%TO.N,GND*%
X51750000Y-21500000D03*
D32*
X51750000Y-21500000D03*
%TD*%
D33*
%TO.N,GND*%
X28070000Y-38100000D03*
D34*
X12000000Y-12000000D03*
X28280000Y-29200000D03*
X11700000Y-19100000D03*
D33*
X32900000Y-5400000D03*
D34*
X12000000Y-30000000D03*
D33*
X18200000Y-8000000D03*
D34*
X20000000Y-9000000D03*
D33*
X32900000Y-3200000D03*
D34*
X19400000Y-33700000D03*
X45000000Y-9000000D03*
X11800000Y-23650000D03*
X14500000Y-27000000D03*
X13300000Y-17600000D03*
X35000000Y-9000000D03*
X21800000Y-25100000D03*
X17000000Y-20300000D03*
X15200000Y-25100000D03*
X22200000Y-27500000D03*
X35000000Y-34500000D03*
X45000000Y-34500000D03*
X40000000Y-21500000D03*
X25770000Y-36400000D03*
X33000000Y-21500000D03*
X21800000Y-22800000D03*
X14039999Y-6400000D03*
X13300000Y-21500000D03*
X28280000Y-13800000D03*
X16000000Y-6000000D03*
D33*
%TO.N,/SW*%
X21300000Y-1750000D03*
D34*
X13000000Y-4300000D03*
X9320000Y-6500000D03*
D33*
X21300000Y-6850000D03*
D34*
X15150000Y-4300000D03*
%TO.N,VBUS*%
X8600000Y-24500000D03*
D33*
X10350000Y-16150000D03*
X16200000Y-2200000D03*
X9400000Y-16150000D03*
D34*
X8300000Y-4300000D03*
D33*
X15000000Y-2200000D03*
D34*
%TO.N,/USB_D_P*%
X9600000Y-22650000D03*
X9600000Y-21150000D03*
%TO.N,/USB_D_N*%
X8600000Y-20600000D03*
X8600000Y-21950000D03*
%TD*%
%TO.N,GND*%
D35*
X10810000Y-23650000D02*
X11800000Y-23650000D01*
X10810000Y-19850000D02*
X11700000Y-19100000D01*
X6895000Y-24750000D02*
X6445000Y-25300000D01*
X25770000Y-35175000D02*
X25770000Y-36400000D01*
X16000000Y-4780000D02*
X16000000Y-6000000D01*
X6895000Y-18250000D02*
X6445000Y-17700000D01*
X28280000Y-30250000D02*
X28280000Y-29200000D01*
D36*
X28070000Y-36375000D02*
X28070000Y-38100000D01*
D37*
X14438000Y-21500000D02*
X13300000Y-21500000D01*
D36*
X31550000Y-3200000D02*
X32900000Y-3200000D01*
X31550000Y-5400000D02*
X32900000Y-5400000D01*
D35*
X14037000Y-5250000D02*
X14039999Y-6400000D01*
X28280000Y-12750000D02*
X28280000Y-13800000D01*
X12200000Y-17600000D02*
X13300000Y-17600000D01*
D36*
X18200000Y-5775000D02*
X18200000Y-8000000D01*
%TO.N,/SW*%
D38*
X14037000Y-4300000D02*
X15150000Y-4300000D01*
D39*
X21300000Y-6850000D02*
X21300000Y-5500000D01*
D38*
X13000000Y-4300000D02*
X14037000Y-4300000D01*
D39*
X21300000Y-1750000D02*
X21300000Y-3100000D01*
D35*
X9320000Y-5450000D02*
X9320000Y-6500000D01*
%TO.N,VBUS*%
D40*
X9400000Y-17600000D02*
X9400000Y-16150000D01*
D38*
X9400000Y-17950000D02*
X9400000Y-17600000D01*
D40*
X15000000Y-2200000D02*
X15000000Y-3450000D01*
X16200000Y-2200000D02*
X16200000Y-3450000D01*
D35*
X7195000Y-23950000D02*
X7950000Y-23950000D01*
D37*
X11763000Y-4300000D02*
X8300000Y-4300000D01*
D35*
X8500000Y-24500000D02*
X8600000Y-24500000D01*
D40*
X9400000Y-17099999D02*
X10350000Y-16150000D01*
D36*
X11900000Y-14599999D02*
X12000000Y-14599999D01*
D38*
X16000000Y-3450000D02*
X18200000Y-3450000D01*
X14037000Y-3350000D02*
X16000000Y-3450000D01*
X7195000Y-19050000D02*
X8300000Y-19050000D01*
D35*
X7950000Y-23950000D02*
X8500000Y-24500000D01*
D36*
X10350000Y-16150000D02*
X11900000Y-14599999D01*
D38*
X8300000Y-19050000D02*
X9400000Y-17950000D01*
%TO.N,/FB*%
D41*
X10310000Y-2150000D02*
X10310000Y-3350000D01*
X10310000Y-3350000D02*
X11763000Y-3350000D01*
%TO.N,/VBST*%
D37*
X11763000Y-5250000D02*
X10900000Y-5250000D01*
X10900000Y-5250000D02*
X10700000Y-5450000D01*
X10700000Y-5450000D02*
X10280000Y-5450000D01*
%TO.N,/CC2*%
D41*
X7195000Y-23250000D02*
X8000000Y-23250000D01*
X8000000Y-23250000D02*
X8400000Y-23650000D01*
X8400000Y-23650000D02*
X9789999Y-23650000D01*
%TO.N,/CC1*%
X8000000Y-20250000D02*
X8400000Y-19850000D01*
X8400000Y-19850000D02*
X9789999Y-19850000D01*
X7195000Y-20250000D02*
X8000000Y-20250000D01*
%TO.N,/USB_D_P*%
D37*
X10000000Y-21150000D02*
X10600000Y-20550000D01*
D42*
X16543399Y-22750000D02*
X16543399Y-23399200D01*
D37*
X9100000Y-21150000D02*
X9600000Y-21150000D01*
X10600000Y-20550000D02*
X12162000Y-20550000D01*
D42*
X21143400Y-29600799D02*
X20500800Y-30243400D01*
D37*
X14438000Y-20550000D02*
X16000400Y-20550000D01*
D42*
X16543399Y-23399200D02*
X16900800Y-23756599D01*
D37*
X16543399Y-21093000D02*
X16543399Y-22750000D01*
X7195000Y-22250000D02*
X8000000Y-22250000D01*
X16000400Y-20550000D02*
X16543399Y-21093000D01*
X20000000Y-30243400D02*
X19850000Y-30250000D01*
D42*
X20500800Y-30243400D02*
X20000000Y-30243400D01*
D37*
X8000000Y-22250000D02*
X8400000Y-22650000D01*
X8400000Y-22650000D02*
X9600000Y-22650000D01*
D42*
X21143400Y-24399200D02*
X21143400Y-29600799D01*
D37*
X9000000Y-21250000D02*
X9100000Y-21150000D01*
X9600000Y-21150000D02*
X10000000Y-21150000D01*
X12162000Y-20550000D02*
X14438000Y-20550000D01*
D42*
X16900800Y-23756599D02*
X20500800Y-23756599D01*
X20500800Y-23756599D02*
X21143400Y-24399200D01*
D37*
X7195000Y-21250000D02*
X9000000Y-21250000D01*
X19850000Y-30250000D02*
X18530000Y-30250000D01*
%TO.N,/USB_D_N*%
D42*
X20299200Y-29756599D02*
X20000000Y-29756599D01*
X16699200Y-24243400D02*
X20299200Y-24243400D01*
D37*
X12162000Y-22450000D02*
X14438000Y-22450000D01*
D42*
X20656500Y-29399200D02*
X20299200Y-29756599D01*
X16056600Y-22750000D02*
X16056600Y-23600799D01*
D37*
X10100000Y-21950000D02*
X10600000Y-22450000D01*
X8200000Y-21750000D02*
X8400000Y-21950000D01*
X19850000Y-29750000D02*
X18530000Y-29750000D01*
X20000000Y-29756599D02*
X19850000Y-29750000D01*
X14438000Y-22450000D02*
X15756599Y-22450000D01*
X15756599Y-22450000D02*
X16056600Y-22750000D01*
D42*
X20656500Y-24600799D02*
X20656500Y-29399200D01*
D37*
X8350000Y-20600000D02*
X8600000Y-20600000D01*
X8200000Y-20750000D02*
X8350000Y-20600000D01*
X10600000Y-22450000D02*
X12162000Y-22450000D01*
X7195000Y-21750000D02*
X8200000Y-21750000D01*
X8400000Y-21950000D02*
X8600000Y-21950000D01*
D42*
X20299200Y-24243400D02*
X20656500Y-24600799D01*
X16056600Y-23600799D02*
X16699200Y-24243400D01*
D37*
X7195000Y-20750000D02*
X8200000Y-20750000D01*
X8600000Y-21950000D02*
X10100000Y-21950000D01*
%TO.N,+3V3*%
D40*
X29650000Y-31450000D02*
X27050000Y-31450000D01*
D38*
X29650000Y-33625000D02*
X31025000Y-35000000D01*
D37*
X27050000Y-12500000D02*
X25770000Y-12500000D01*
D41*
X9289999Y-2150000D02*
X9289999Y-700000D01*
D40*
X27050000Y-11550000D02*
X27050000Y-12750000D01*
X27050000Y-31450000D02*
X27050000Y-30250000D01*
D43*
X29650000Y-5400000D02*
X29650000Y-33625000D01*
D39*
X29650000Y-33625000D02*
X28070000Y-33625000D01*
D38*
X31025000Y-35000000D02*
X33000000Y-35000000D01*
D41*
X9289999Y-700000D02*
X27100000Y-700000D01*
D37*
X27050000Y-30000000D02*
X25770000Y-30000000D01*
D41*
X27100000Y-700000D02*
X27100000Y-2900000D01*
D36*
X27050000Y-30250000D02*
X27320000Y-30250000D01*
X27050000Y-12750000D02*
X27320000Y-12750000D01*
D37*
X27050000Y-13000000D02*
X25770000Y-13000000D01*
D39*
X28070000Y-33625000D02*
X25770000Y-33625000D01*
D44*
X27000000Y-4300000D02*
X29650000Y-4300000D01*
D43*
X29650000Y-3200000D02*
X29650000Y-5400000D01*
D37*
X27050000Y-30500000D02*
X25770000Y-30500000D01*
D40*
X29650000Y-11550000D02*
X27050000Y-11550000D01*
%TD*%
%TA.AperFunction,Conductor*%
%TO.N,GND*%
G36*
X13598290Y-20898385D02*
G01*
X13644045Y-20951189D01*
X13653989Y-21020347D01*
X13624964Y-21083903D01*
X13618932Y-21090381D01*
X13597363Y-21111949D01*
X13597360Y-21111953D01*
X13539833Y-21224855D01*
X13525000Y-21318513D01*
X13525000Y-21350000D01*
X15349999Y-21350000D01*
X15349999Y-21318520D01*
X15335164Y-21224850D01*
X15335162Y-21224844D01*
X15277643Y-21111958D01*
X15277636Y-21111949D01*
X15256068Y-21090381D01*
X15222583Y-21029058D01*
X15227567Y-20959366D01*
X15269439Y-20903433D01*
X15334903Y-20879016D01*
X15343749Y-20878700D01*
X15812886Y-20878700D01*
X15879925Y-20898385D01*
X15900567Y-20915019D01*
X16178380Y-21192832D01*
X16211865Y-21254155D01*
X16214699Y-21280513D01*
X16214699Y-22143886D01*
X16195014Y-22210925D01*
X16142210Y-22256680D01*
X16073052Y-22266624D01*
X16009496Y-22237599D01*
X16003018Y-22231567D01*
X15958424Y-22186973D01*
X15883792Y-22143886D01*
X15883472Y-22143701D01*
X15799873Y-22121300D01*
X15799870Y-22121300D01*
X15343749Y-22121300D01*
X15276710Y-22101615D01*
X15230955Y-22048811D01*
X15221011Y-21979653D01*
X15250036Y-21916097D01*
X15256068Y-21909619D01*
X15277636Y-21888050D01*
X15277639Y-21888046D01*
X15335166Y-21775144D01*
X15350000Y-21681486D01*
X15350000Y-21650000D01*
X13525001Y-21650000D01*
X13525001Y-21681479D01*
X13539835Y-21775149D01*
X13539837Y-21775155D01*
X13597356Y-21888041D01*
X13597363Y-21888050D01*
X13618932Y-21909619D01*
X13652417Y-21970942D01*
X13647433Y-22040634D01*
X13605561Y-22096567D01*
X13540097Y-22120984D01*
X13531251Y-22121300D01*
X13047871Y-22121300D01*
X12980832Y-22101615D01*
X12960190Y-22084981D01*
X12935626Y-22060417D01*
X12902141Y-21999094D01*
X12907125Y-21929402D01*
X12935627Y-21885054D01*
X12964196Y-21856485D01*
X12964198Y-21856483D01*
X13015573Y-21751393D01*
X13025500Y-21683260D01*
X13025500Y-21316740D01*
X13015573Y-21248607D01*
X12964198Y-21143517D01*
X12964196Y-21143515D01*
X12964196Y-21143514D01*
X12935626Y-21114944D01*
X12902141Y-21053621D01*
X12907125Y-20983929D01*
X12935628Y-20939580D01*
X12960192Y-20915017D01*
X13021515Y-20881533D01*
X13047871Y-20878700D01*
X13531251Y-20878700D01*
X13598290Y-20898385D01*
G37*
%TD.AperFunction*%
%TA.AperFunction,Conductor*%
G36*
X9032205Y-320185D02*
G01*
X9077960Y-372989D01*
X9087904Y-442147D01*
X9058879Y-505703D01*
X9052847Y-512181D01*
X9049540Y-515487D01*
X9049534Y-515495D01*
X9009981Y-584004D01*
X9009978Y-584009D01*
X8989499Y-660439D01*
X8989499Y-1604669D01*
X8969814Y-1671708D01*
X8953181Y-1692350D01*
X8875934Y-1769597D01*
X8825931Y-1876828D01*
X8819500Y-1925683D01*
X8819500Y-2374316D01*
X8825931Y-2423171D01*
X8875935Y-2530404D01*
X8959596Y-2614065D01*
X8968483Y-2620288D01*
X8966498Y-2623121D01*
X9004842Y-2656882D01*
X9023995Y-2724075D01*
X9003780Y-2790956D01*
X8954460Y-2834493D01*
X8928190Y-2847335D01*
X8837336Y-2938189D01*
X8780903Y-3053625D01*
X8770000Y-3128464D01*
X8770000Y-3200000D01*
X9166000Y-3200000D01*
X9233039Y-3219685D01*
X9278794Y-3272489D01*
X9290000Y-3324000D01*
X9290000Y-3376000D01*
X9270315Y-3443039D01*
X9217511Y-3488794D01*
X9166000Y-3500000D01*
X8770001Y-3500000D01*
X8770001Y-3571539D01*
X8780903Y-3646374D01*
X8837336Y-3761810D01*
X8838345Y-3762819D01*
X8839283Y-3764538D01*
X8843306Y-3770172D01*
X8842625Y-3770657D01*
X8871830Y-3824142D01*
X8866846Y-3893834D01*
X8824974Y-3949767D01*
X8759510Y-3974184D01*
X8750664Y-3974500D01*
X8733676Y-3974500D01*
X8666637Y-3954815D01*
X8645995Y-3938181D01*
X8607316Y-3899502D01*
X8607314Y-3899500D01*
X8520712Y-3849500D01*
X8493187Y-3833608D01*
X8406900Y-3810488D01*
X8365892Y-3799500D01*
X8234108Y-3799500D01*
X8106812Y-3833608D01*
X7992686Y-3899500D01*
X7992683Y-3899502D01*
X7899502Y-3992683D01*
X7899500Y-3992686D01*
X7833608Y-4106812D01*
X7799500Y-4234108D01*
X7799500Y-4365891D01*
X7833608Y-4493187D01*
X7866554Y-4550250D01*
X7899500Y-4607314D01*
X7992686Y-4700500D01*
X8083700Y-4753047D01*
X8101425Y-4763281D01*
X8106814Y-4766392D01*
X8234108Y-4800500D01*
X8234110Y-4800500D01*
X8365890Y-4800500D01*
X8365892Y-4800500D01*
X8493186Y-4766392D01*
X8607314Y-4700500D01*
X8645995Y-4661819D01*
X8707318Y-4628334D01*
X8733676Y-4625500D01*
X10878456Y-4625500D01*
X10882777Y-4626769D01*
X10887179Y-4625807D01*
X10916002Y-4636524D01*
X10945495Y-4645185D01*
X10948443Y-4648588D01*
X10952668Y-4650159D01*
X10966137Y-4661819D01*
X10991637Y-4687319D01*
X11025122Y-4748642D01*
X11020138Y-4818334D01*
X10991637Y-4862681D01*
X10966138Y-4888180D01*
X10904815Y-4921665D01*
X10878457Y-4924499D01*
X10857147Y-4924499D01*
X10818589Y-4934830D01*
X10778479Y-4945578D01*
X10778477Y-4945579D01*
X10774361Y-4946682D01*
X10737250Y-4968108D01*
X10736046Y-4968802D01*
X10736017Y-4968819D01*
X10712541Y-4982373D01*
X10644641Y-4998844D01*
X10598138Y-4987367D01*
X10509487Y-4946028D01*
X10509485Y-4946027D01*
X10509486Y-4946027D01*
X10459902Y-4939500D01*
X10100105Y-4939500D01*
X10086949Y-4941232D01*
X10050513Y-4946028D01*
X10050511Y-4946029D01*
X10050509Y-4946029D01*
X9941683Y-4996776D01*
X9887681Y-5050779D01*
X9826358Y-5084264D01*
X9756666Y-5079280D01*
X9712319Y-5050779D01*
X9658316Y-4996776D01*
X9598362Y-4968819D01*
X9549487Y-4946028D01*
X9549485Y-4946027D01*
X9549486Y-4946027D01*
X9499902Y-4939500D01*
X9140105Y-4939500D01*
X9126949Y-4941232D01*
X9090513Y-4946028D01*
X9090511Y-4946029D01*
X9090509Y-4946029D01*
X8981683Y-4996776D01*
X8896776Y-5081683D01*
X8846027Y-5190514D01*
X8839500Y-5240098D01*
X8839500Y-5659894D01*
X8839501Y-5659900D01*
X8846028Y-5709487D01*
X8846029Y-5709489D01*
X8846029Y-5709490D01*
X8896776Y-5818316D01*
X8933181Y-5854721D01*
X8966666Y-5916044D01*
X8969500Y-5942402D01*
X8969500Y-6091324D01*
X8949815Y-6158363D01*
X8933181Y-6179005D01*
X8919502Y-6192683D01*
X8919500Y-6192686D01*
X8853608Y-6306812D01*
X8819500Y-6434108D01*
X8819500Y-6565891D01*
X8853608Y-6693187D01*
X8886554Y-6750250D01*
X8919500Y-6807314D01*
X9012686Y-6900500D01*
X9126814Y-6966392D01*
X9254108Y-7000500D01*
X9254110Y-7000500D01*
X9385890Y-7000500D01*
X9385892Y-7000500D01*
X9513186Y-6966392D01*
X9627314Y-6900500D01*
X9720500Y-6807314D01*
X9786392Y-6693186D01*
X9820500Y-6565892D01*
X9820500Y-6434108D01*
X9786392Y-6306814D01*
X9720500Y-6192686D01*
X9706819Y-6179005D01*
X9673334Y-6117682D01*
X9670500Y-6091324D01*
X9670500Y-5942402D01*
X9690185Y-5875363D01*
X9706819Y-5854721D01*
X9712319Y-5849221D01*
X9773642Y-5815736D01*
X9843334Y-5820720D01*
X9887681Y-5849221D01*
X9941684Y-5903224D01*
X10050513Y-5953972D01*
X10100099Y-5960500D01*
X10459900Y-5960499D01*
X10509487Y-5953972D01*
X10618316Y-5903224D01*
X10703224Y-5818316D01*
X10703227Y-5818309D01*
X10705084Y-5815658D01*
X10709062Y-5812477D01*
X10710895Y-5810645D01*
X10711099Y-5810849D01*
X10759658Y-5772030D01*
X10774541Y-5767009D01*
X10825639Y-5753318D01*
X10899862Y-5710465D01*
X10899869Y-5710457D01*
X10906308Y-5705518D01*
X10907363Y-5706893D01*
X10960021Y-5678133D01*
X11029713Y-5683110D01*
X11040852Y-5687895D01*
X11043516Y-5689197D01*
X11043517Y-5689198D01*
X11148607Y-5740573D01*
X11182673Y-5745536D01*
X11216739Y-5750500D01*
X11216740Y-5750500D01*
X12308261Y-5750500D01*
X12330971Y-5747191D01*
X12376393Y-5740573D01*
X12481483Y-5689198D01*
X12564198Y-5606483D01*
X12615573Y-5501393D01*
X12625500Y-5433260D01*
X12625500Y-5066740D01*
X12623174Y-5050779D01*
X12618671Y-5019871D01*
X12615573Y-4998607D01*
X12564198Y-4893517D01*
X12564197Y-4893516D01*
X12560629Y-4886217D01*
X12548870Y-4817344D01*
X12576214Y-4753047D01*
X12633978Y-4713740D01*
X12703824Y-4711902D01*
X12734027Y-4724368D01*
X12783700Y-4753047D01*
X12801425Y-4763281D01*
X12806814Y-4766392D01*
X12934108Y-4800500D01*
X12934110Y-4800500D01*
X13065890Y-4800500D01*
X13065892Y-4800500D01*
X13193186Y-4766392D01*
X13193194Y-4766387D01*
X13200696Y-4763281D01*
X13201249Y-4764618D01*
X13253937Y-4750500D01*
X13312948Y-4750500D01*
X13367407Y-4763098D01*
X13423607Y-4790573D01*
X13457673Y-4795536D01*
X13491739Y-4800500D01*
X13491740Y-4800500D01*
X14583261Y-4800500D01*
X14605971Y-4797191D01*
X14651393Y-4790573D01*
X14707592Y-4763098D01*
X14762052Y-4750500D01*
X14896063Y-4750500D01*
X14948750Y-4764618D01*
X14949304Y-4763281D01*
X14956807Y-4766388D01*
X14956814Y-4766392D01*
X15084108Y-4800500D01*
X15084110Y-4800500D01*
X15215890Y-4800500D01*
X15215892Y-4800500D01*
X15343186Y-4766392D01*
X15457314Y-4700500D01*
X15550500Y-4607314D01*
X15616392Y-4493186D01*
X15644036Y-4390012D01*
X15680399Y-4330356D01*
X15743246Y-4299826D01*
X15779994Y-4299170D01*
X15783516Y-4299633D01*
X15790099Y-4300500D01*
X16209900Y-4300499D01*
X16259487Y-4293972D01*
X16368316Y-4243224D01*
X16453224Y-4158316D01*
X16503972Y-4049487D01*
X16509392Y-4008315D01*
X16537657Y-3944419D01*
X16595981Y-3905948D01*
X16632331Y-3900500D01*
X18259306Y-3900500D01*
X18259309Y-3900500D01*
X18373886Y-3869799D01*
X18476613Y-3810489D01*
X18560489Y-3726613D01*
X18597505Y-3662500D01*
X18648072Y-3614284D01*
X18704892Y-3600500D01*
X19354270Y-3600500D01*
X19384699Y-3597646D01*
X19384701Y-3597646D01*
X19448790Y-3575219D01*
X19512882Y-3552793D01*
X19622150Y-3472150D01*
X19700731Y-3365674D01*
X19756377Y-3323426D01*
X19826033Y-3317967D01*
X19887583Y-3351034D01*
X19921484Y-3412128D01*
X19924500Y-3439310D01*
X19924500Y-6069752D01*
X19936131Y-6128229D01*
X19936132Y-6128230D01*
X19980447Y-6194552D01*
X20046769Y-6238867D01*
X20046770Y-6238868D01*
X20105247Y-6250499D01*
X20105250Y-6250500D01*
X20105252Y-6250500D01*
X20575500Y-6250500D01*
X20642539Y-6270185D01*
X20688294Y-6322989D01*
X20699500Y-6374500D01*
X20699500Y-6929056D01*
X20740423Y-7081783D01*
X20740426Y-7081790D01*
X20819475Y-7218709D01*
X20819479Y-7218714D01*
X20819480Y-7218716D01*
X20931284Y-7330520D01*
X20931286Y-7330521D01*
X20931290Y-7330524D01*
X21068209Y-7409573D01*
X21068216Y-7409577D01*
X21220943Y-7450500D01*
X21220945Y-7450500D01*
X21379055Y-7450500D01*
X21379057Y-7450500D01*
X21531784Y-7409577D01*
X21668716Y-7330520D01*
X21780520Y-7218716D01*
X21859577Y-7081784D01*
X21900500Y-6929057D01*
X21900500Y-6770943D01*
X21900500Y-6374500D01*
X21920185Y-6307461D01*
X21972989Y-6261706D01*
X22024500Y-6250500D01*
X22494750Y-6250500D01*
X22494751Y-6250499D01*
X22509568Y-6247552D01*
X22553229Y-6238868D01*
X22553229Y-6238867D01*
X22553231Y-6238867D01*
X22619552Y-6194552D01*
X22663867Y-6128231D01*
X22663867Y-6128229D01*
X22663868Y-6128229D01*
X22675499Y-6069752D01*
X22675500Y-6069750D01*
X22675500Y-2530249D01*
X22675499Y-2530247D01*
X22663868Y-2471770D01*
X22663867Y-2471769D01*
X22619552Y-2405447D01*
X22553230Y-2361132D01*
X22553229Y-2361131D01*
X22494752Y-2349500D01*
X22494748Y-2349500D01*
X22024500Y-2349500D01*
X21957461Y-2329815D01*
X21911706Y-2277011D01*
X21900500Y-2225500D01*
X21900500Y-1670945D01*
X21900500Y-1670943D01*
X21859577Y-1518216D01*
X21859573Y-1518209D01*
X21780524Y-1381290D01*
X21780518Y-1381282D01*
X21668717Y-1269481D01*
X21668712Y-1269477D01*
X21603603Y-1231887D01*
X21555388Y-1181321D01*
X21542164Y-1112714D01*
X21568132Y-1047849D01*
X21625046Y-1007320D01*
X21665603Y-1000500D01*
X26675500Y-1000500D01*
X26742539Y-1020185D01*
X26788294Y-1072989D01*
X26799500Y-1124500D01*
X26799500Y-2225500D01*
X26779815Y-2292539D01*
X26727011Y-2338294D01*
X26675500Y-2349500D01*
X25805247Y-2349500D01*
X25746770Y-2361131D01*
X25746769Y-2361132D01*
X25680447Y-2405447D01*
X25636132Y-2471769D01*
X25636131Y-2471770D01*
X25624500Y-2530247D01*
X25624500Y-6069752D01*
X25636131Y-6128229D01*
X25636132Y-6128230D01*
X25680447Y-6194552D01*
X25746769Y-6238867D01*
X25746770Y-6238868D01*
X25805247Y-6250499D01*
X25805250Y-6250500D01*
X25805252Y-6250500D01*
X28194750Y-6250500D01*
X28194751Y-6250499D01*
X28209568Y-6247552D01*
X28253229Y-6238868D01*
X28253229Y-6238867D01*
X28253231Y-6238867D01*
X28319552Y-6194552D01*
X28363867Y-6128231D01*
X28363867Y-6128229D01*
X28363868Y-6128229D01*
X28375499Y-6069752D01*
X28375500Y-6069750D01*
X28375500Y-5374500D01*
X28395185Y-5307461D01*
X28447989Y-5261706D01*
X28499500Y-5250500D01*
X28725500Y-5250500D01*
X28792539Y-5270185D01*
X28838294Y-5322989D01*
X28849500Y-5374500D01*
X28849500Y-10925500D01*
X28829815Y-10992539D01*
X28777011Y-11038294D01*
X28725500Y-11049500D01*
X26984108Y-11049500D01*
X26856812Y-11083608D01*
X26742686Y-11149500D01*
X26742683Y-11149502D01*
X26649502Y-11242683D01*
X26649500Y-11242686D01*
X26583608Y-11356812D01*
X26549500Y-11484108D01*
X26549500Y-12025500D01*
X26529815Y-12092539D01*
X26477011Y-12138294D01*
X26425500Y-12149500D01*
X24975247Y-12149500D01*
X24916770Y-12161131D01*
X24916769Y-12161132D01*
X24850447Y-12205447D01*
X24806132Y-12271769D01*
X24806131Y-12271770D01*
X24794500Y-12330247D01*
X24794500Y-12669747D01*
X24805651Y-12725810D01*
X24805651Y-12774190D01*
X24794500Y-12830252D01*
X24794500Y-13169747D01*
X24805651Y-13225810D01*
X24805651Y-13274190D01*
X24795445Y-13325499D01*
X24794500Y-13330252D01*
X24794500Y-13669748D01*
X24797738Y-13686026D01*
X24805651Y-13725810D01*
X24805651Y-13774190D01*
X24794500Y-13830252D01*
X24794500Y-14169748D01*
X24798011Y-14187399D01*
X24805651Y-14225810D01*
X24805651Y-14274190D01*
X24798865Y-14308309D01*
X24794500Y-14330252D01*
X24794500Y-14669748D01*
X24798011Y-14687399D01*
X24805651Y-14725810D01*
X24805651Y-14774190D01*
X24794500Y-14830252D01*
X24794500Y-15169748D01*
X24798011Y-15187399D01*
X24805651Y-15225810D01*
X24805651Y-15274190D01*
X24794500Y-15330252D01*
X24794500Y-15669748D01*
X24798011Y-15687399D01*
X24805651Y-15725810D01*
X24805651Y-15774190D01*
X24804240Y-15781284D01*
X24794500Y-15830252D01*
X24794500Y-16169748D01*
X24798011Y-16187399D01*
X24805651Y-16225810D01*
X24805651Y-16274190D01*
X24794500Y-16330252D01*
X24794500Y-16669748D01*
X24798011Y-16687399D01*
X24805651Y-16725810D01*
X24805651Y-16774190D01*
X24794500Y-16830252D01*
X24794500Y-17169748D01*
X24795330Y-17173920D01*
X24805651Y-17225810D01*
X24805651Y-17274190D01*
X24794550Y-17330000D01*
X24794500Y-17330252D01*
X24794500Y-17669748D01*
X24796602Y-17680315D01*
X24805651Y-17725810D01*
X24805651Y-17774190D01*
X24794500Y-17830252D01*
X24794500Y-18169748D01*
X24798011Y-18187399D01*
X24805651Y-18225810D01*
X24805651Y-18274190D01*
X24799962Y-18302793D01*
X24794500Y-18330252D01*
X24794500Y-18669748D01*
X24796087Y-18677728D01*
X24805651Y-18725810D01*
X24805651Y-18774190D01*
X24797964Y-18812835D01*
X24794500Y-18830252D01*
X24794500Y-19169748D01*
X24798011Y-19187399D01*
X24805651Y-19225810D01*
X24805651Y-19274190D01*
X24800240Y-19301393D01*
X24794500Y-19330252D01*
X24794500Y-19669748D01*
X24798011Y-19687399D01*
X24805651Y-19725810D01*
X24805651Y-19774190D01*
X24794501Y-19830249D01*
X24794500Y-19830252D01*
X24794500Y-20169748D01*
X24794587Y-20170185D01*
X24805651Y-20225810D01*
X24805651Y-20274190D01*
X24803108Y-20286975D01*
X24794500Y-20330252D01*
X24794500Y-20669748D01*
X24796664Y-20680627D01*
X24805651Y-20725810D01*
X24805651Y-20774190D01*
X24794500Y-20830252D01*
X24794500Y-21169748D01*
X24798011Y-21187399D01*
X24805651Y-21225810D01*
X24805651Y-21274190D01*
X24797188Y-21316739D01*
X24794500Y-21330252D01*
X24794500Y-21669748D01*
X24796835Y-21681486D01*
X24805651Y-21725810D01*
X24805651Y-21774190D01*
X24805459Y-21775155D01*
X24794500Y-21830252D01*
X24794500Y-22169748D01*
X24797926Y-22186973D01*
X24805651Y-22225810D01*
X24805651Y-22274190D01*
X24794500Y-22330252D01*
X24794500Y-22669748D01*
X24798011Y-22687399D01*
X24805651Y-22725810D01*
X24805651Y-22774190D01*
X24794500Y-22830252D01*
X24794500Y-23169752D01*
X24806131Y-23228229D01*
X24806132Y-23228230D01*
X24850447Y-23294552D01*
X24916769Y-23338867D01*
X24916770Y-23338868D01*
X24975247Y-23350499D01*
X24975250Y-23350500D01*
X24975252Y-23350500D01*
X26564750Y-23350500D01*
X26564751Y-23350499D01*
X26579568Y-23347552D01*
X26623229Y-23338868D01*
X26623229Y-23338867D01*
X26623231Y-23338867D01*
X26689552Y-23294552D01*
X26733867Y-23228231D01*
X26733867Y-23228229D01*
X26733868Y-23228229D01*
X26745499Y-23169752D01*
X26745500Y-23169750D01*
X26745500Y-22830249D01*
X26734349Y-22774192D01*
X26734349Y-22725808D01*
X26745500Y-22669750D01*
X26745500Y-22330249D01*
X26734349Y-22274192D01*
X26734349Y-22225808D01*
X26745500Y-22169750D01*
X26745500Y-21830249D01*
X26734349Y-21774192D01*
X26734349Y-21725808D01*
X26745500Y-21669750D01*
X26745500Y-21330249D01*
X26734349Y-21274192D01*
X26734349Y-21225808D01*
X26745500Y-21169750D01*
X26745500Y-20830249D01*
X26734349Y-20774192D01*
X26734349Y-20725808D01*
X26745500Y-20669750D01*
X26745500Y-20330249D01*
X26734349Y-20274192D01*
X26734349Y-20225808D01*
X26745500Y-20169750D01*
X26745500Y-19830249D01*
X26734349Y-19774192D01*
X26734349Y-19725808D01*
X26745500Y-19669750D01*
X26745500Y-19330249D01*
X26734349Y-19274192D01*
X26734349Y-19225808D01*
X26745500Y-19169750D01*
X26745500Y-18830249D01*
X26734349Y-18774192D01*
X26734349Y-18725808D01*
X26745500Y-18669750D01*
X26745500Y-18330249D01*
X26734349Y-18274192D01*
X26734349Y-18225808D01*
X26745500Y-18169750D01*
X26745500Y-17830249D01*
X26734349Y-17774192D01*
X26734349Y-17725808D01*
X26745500Y-17669750D01*
X26745500Y-17330249D01*
X26734349Y-17274192D01*
X26734349Y-17225808D01*
X26745500Y-17169750D01*
X26745500Y-16830249D01*
X26734349Y-16774192D01*
X26734349Y-16725808D01*
X26745500Y-16669750D01*
X26745500Y-16330249D01*
X26734349Y-16274192D01*
X26734349Y-16225808D01*
X26745500Y-16169750D01*
X26745500Y-15830249D01*
X26734349Y-15774192D01*
X26734349Y-15725808D01*
X26745500Y-15669750D01*
X26745500Y-15330249D01*
X26734349Y-15274192D01*
X26734349Y-15225808D01*
X26745500Y-15169750D01*
X26745500Y-14830249D01*
X26734349Y-14774192D01*
X26734349Y-14725808D01*
X26745500Y-14669750D01*
X26745500Y-14330249D01*
X26734349Y-14274192D01*
X26734349Y-14225808D01*
X26745500Y-14169750D01*
X26745500Y-13830249D01*
X26734349Y-13774192D01*
X26734349Y-13725808D01*
X26745500Y-13669750D01*
X26745500Y-13449500D01*
X26765185Y-13382461D01*
X26817989Y-13336706D01*
X26869500Y-13325500D01*
X27092851Y-13325500D01*
X27092853Y-13325500D01*
X27175638Y-13303318D01*
X27221027Y-13277111D01*
X27283027Y-13260499D01*
X27499895Y-13260499D01*
X27499900Y-13260499D01*
X27549487Y-13253972D01*
X27658316Y-13203224D01*
X27677319Y-13184220D01*
X27738638Y-13150737D01*
X27808329Y-13155720D01*
X27852679Y-13184222D01*
X27907901Y-13239444D01*
X27907906Y-13239448D01*
X28017984Y-13295536D01*
X28017983Y-13295536D01*
X28109304Y-13309999D01*
X28129999Y-13309999D01*
X28130000Y-13309998D01*
X28130000Y-12874000D01*
X28149685Y-12806961D01*
X28202489Y-12761206D01*
X28254000Y-12750000D01*
X28306000Y-12750000D01*
X28373039Y-12769685D01*
X28418794Y-12822489D01*
X28430000Y-12874000D01*
X28430000Y-13309999D01*
X28450689Y-13309999D01*
X28542017Y-13295534D01*
X28652094Y-13239447D01*
X28652617Y-13239068D01*
X28653359Y-13238803D01*
X28660788Y-13235018D01*
X28661277Y-13235978D01*
X28718424Y-13215590D01*
X28786477Y-13231417D01*
X28835171Y-13281524D01*
X28849500Y-13339388D01*
X28849500Y-29660611D01*
X28829815Y-29727650D01*
X28777011Y-29773405D01*
X28707853Y-29783349D01*
X28661097Y-29764375D01*
X28660788Y-29764982D01*
X28653727Y-29761384D01*
X28652625Y-29760937D01*
X28652097Y-29760554D01*
X28542015Y-29704463D01*
X28450691Y-29690000D01*
X28430000Y-29690000D01*
X28430000Y-30126000D01*
X28410315Y-30193039D01*
X28357511Y-30238794D01*
X28306000Y-30250000D01*
X28254000Y-30250000D01*
X28186961Y-30230315D01*
X28141206Y-30177511D01*
X28130000Y-30126000D01*
X28130000Y-29690001D01*
X28129999Y-29690000D01*
X28109315Y-29690000D01*
X28017982Y-29704465D01*
X27907906Y-29760552D01*
X27907904Y-29760552D01*
X27852679Y-29815778D01*
X27791355Y-29849262D01*
X27721664Y-29844277D01*
X27677317Y-29815777D01*
X27658316Y-29796776D01*
X27608197Y-29773405D01*
X27549487Y-29746028D01*
X27549485Y-29746027D01*
X27549486Y-29746027D01*
X27499902Y-29739500D01*
X27499901Y-29739500D01*
X27283028Y-29739500D01*
X27221029Y-29722888D01*
X27175638Y-29696682D01*
X27150700Y-29690000D01*
X27092853Y-29674500D01*
X27092852Y-29674500D01*
X26869500Y-29674500D01*
X26802461Y-29654815D01*
X26756706Y-29602011D01*
X26745500Y-29550500D01*
X26745500Y-29330249D01*
X26734349Y-29274192D01*
X26734349Y-29225808D01*
X26745500Y-29169750D01*
X26745500Y-28830249D01*
X26734349Y-28774192D01*
X26734349Y-28725808D01*
X26745500Y-28669750D01*
X26745500Y-28330249D01*
X26734349Y-28274192D01*
X26734349Y-28225808D01*
X26745500Y-28169750D01*
X26745500Y-27830249D01*
X26734349Y-27774192D01*
X26734349Y-27725808D01*
X26745500Y-27669750D01*
X26745500Y-27330249D01*
X26734349Y-27274192D01*
X26734349Y-27225808D01*
X26745500Y-27169750D01*
X26745500Y-26837533D01*
X26765185Y-26770494D01*
X26766399Y-26768641D01*
X26780495Y-26747545D01*
X26780496Y-26747543D01*
X26794999Y-26674628D01*
X26795000Y-26674626D01*
X26795000Y-26650000D01*
X26575916Y-26650000D01*
X26570839Y-26648509D01*
X26570839Y-26649500D01*
X24969161Y-26649500D01*
X24969161Y-26648895D01*
X24964084Y-26650000D01*
X24745000Y-26650000D01*
X24745000Y-26674626D01*
X24744999Y-26674626D01*
X24759504Y-26747543D01*
X24773602Y-26768642D01*
X24794480Y-26835320D01*
X24794500Y-26837533D01*
X24794500Y-27169748D01*
X24798011Y-27187399D01*
X24805651Y-27225810D01*
X24805651Y-27274190D01*
X24794500Y-27330252D01*
X24794500Y-27669748D01*
X24798011Y-27687399D01*
X24805651Y-27725810D01*
X24805651Y-27774190D01*
X24794500Y-27830252D01*
X24794500Y-28169748D01*
X24798011Y-28187399D01*
X24805651Y-28225810D01*
X24805651Y-28274190D01*
X24794500Y-28330252D01*
X24794500Y-28669748D01*
X24798011Y-28687399D01*
X24805651Y-28725810D01*
X24805651Y-28774190D01*
X24794500Y-28830252D01*
X24794500Y-29169748D01*
X24798011Y-29187399D01*
X24805651Y-29225810D01*
X24805651Y-29274190D01*
X24794500Y-29330252D01*
X24794500Y-29669747D01*
X24805651Y-29725810D01*
X24805651Y-29774190D01*
X24794500Y-29830252D01*
X24794500Y-30169747D01*
X24805651Y-30225810D01*
X24805651Y-30274190D01*
X24794500Y-30330252D01*
X24794500Y-30669752D01*
X24806131Y-30728229D01*
X24806132Y-30728230D01*
X24850447Y-30794552D01*
X24916769Y-30838867D01*
X24916770Y-30838868D01*
X24975247Y-30850499D01*
X24975250Y-30850500D01*
X24975252Y-30850500D01*
X26425500Y-30850500D01*
X26492539Y-30870185D01*
X26538294Y-30922989D01*
X26549500Y-30974500D01*
X26549500Y-31515891D01*
X26583608Y-31643187D01*
X26616410Y-31700000D01*
X26649500Y-31757314D01*
X26742686Y-31850500D01*
X26856814Y-31916392D01*
X26984108Y-31950500D01*
X27115892Y-31950500D01*
X28725500Y-31950500D01*
X28792539Y-31970185D01*
X28838294Y-32022989D01*
X28849500Y-32074500D01*
X28849500Y-32525500D01*
X28829815Y-32592539D01*
X28777011Y-32638294D01*
X28725500Y-32649500D01*
X27365730Y-32649500D01*
X27335300Y-32652353D01*
X27335298Y-32652353D01*
X27207119Y-32697206D01*
X27207117Y-32697207D01*
X27097850Y-32777850D01*
X27017207Y-32887118D01*
X26998193Y-32941456D01*
X26957473Y-32998231D01*
X26892520Y-33023978D01*
X26881153Y-33024500D01*
X26250055Y-33024500D01*
X26193762Y-33010986D01*
X26153122Y-32990279D01*
X26053493Y-32974500D01*
X26053488Y-32974500D01*
X25486512Y-32974500D01*
X25486507Y-32974500D01*
X25386878Y-32990279D01*
X25266778Y-33051473D01*
X25266774Y-33051476D01*
X25171476Y-33146774D01*
X25171473Y-33146778D01*
X25110279Y-33266878D01*
X25094500Y-33366506D01*
X25094500Y-33883493D01*
X25110279Y-33983121D01*
X25110280Y-33983124D01*
X25110281Y-33983126D01*
X25162711Y-34086025D01*
X25171473Y-34103221D01*
X25171476Y-34103225D01*
X25266774Y-34198523D01*
X25266778Y-34198526D01*
X25266780Y-34198528D01*
X25386874Y-34259719D01*
X25386876Y-34259719D01*
X25386878Y-34259720D01*
X25486507Y-34275500D01*
X25486512Y-34275500D01*
X26053493Y-34275500D01*
X26153122Y-34259720D01*
X26153123Y-34259719D01*
X26153126Y-34259719D01*
X26193762Y-34239013D01*
X26250055Y-34225500D01*
X27990943Y-34225500D01*
X29070234Y-34225500D01*
X29137273Y-34245185D01*
X29139125Y-34246398D01*
X29270814Y-34334390D01*
X29270827Y-34334397D01*
X29414936Y-34394088D01*
X29416503Y-34394737D01*
X29565643Y-34424403D01*
X29571153Y-34425499D01*
X29571156Y-34425500D01*
X29571158Y-34425500D01*
X29728843Y-34425500D01*
X29734358Y-34424403D01*
X29803950Y-34430627D01*
X29846234Y-34458337D01*
X30748386Y-35360490D01*
X30851113Y-35419799D01*
X30875321Y-35426284D01*
X30875324Y-35426286D01*
X30875325Y-35426286D01*
X30905447Y-35434357D01*
X30965691Y-35450500D01*
X32091578Y-35450500D01*
X32158617Y-35470185D01*
X32194680Y-35505609D01*
X32261697Y-35605907D01*
X32261700Y-35605911D01*
X32394088Y-35738299D01*
X32394092Y-35738302D01*
X32549762Y-35842318D01*
X32549768Y-35842321D01*
X32549769Y-35842322D01*
X32722749Y-35913973D01*
X32865170Y-35942302D01*
X32906379Y-35950499D01*
X32906383Y-35950500D01*
X32906384Y-35950500D01*
X33093617Y-35950500D01*
X33093618Y-35950499D01*
X33277251Y-35913973D01*
X33450231Y-35842322D01*
X33605908Y-35738302D01*
X33738302Y-35605908D01*
X33842322Y-35450231D01*
X33913973Y-35277251D01*
X33950500Y-35093616D01*
X33950500Y-34906384D01*
X33913973Y-34722749D01*
X33842322Y-34549769D01*
X33842321Y-34549768D01*
X33842318Y-34549762D01*
X33738302Y-34394092D01*
X33738299Y-34394088D01*
X33605911Y-34261700D01*
X33605907Y-34261697D01*
X33450237Y-34157681D01*
X33450228Y-34157676D01*
X33277251Y-34086027D01*
X33277243Y-34086025D01*
X33093620Y-34049500D01*
X33093616Y-34049500D01*
X32906384Y-34049500D01*
X32906379Y-34049500D01*
X32722756Y-34086025D01*
X32722748Y-34086027D01*
X32549771Y-34157676D01*
X32549762Y-34157681D01*
X32394092Y-34261697D01*
X32394088Y-34261700D01*
X32261700Y-34394088D01*
X32261697Y-34394092D01*
X32194680Y-34494391D01*
X32141068Y-34539196D01*
X32091578Y-34549500D01*
X31262966Y-34549500D01*
X31195927Y-34529815D01*
X31175285Y-34513181D01*
X30483338Y-33821235D01*
X30449853Y-33759912D01*
X30449403Y-33709358D01*
X30450500Y-33703844D01*
X30450500Y-21328709D01*
X48700000Y-21328709D01*
X48700000Y-21671290D01*
X48738352Y-22011684D01*
X48738355Y-22011698D01*
X48814583Y-22345678D01*
X48814587Y-22345690D01*
X48927728Y-22669027D01*
X49076360Y-22977664D01*
X49258619Y-23267727D01*
X49472207Y-23535559D01*
X49487258Y-23550610D01*
X50338455Y-22699412D01*
X50356105Y-22722413D01*
X50527587Y-22893895D01*
X50550587Y-22911544D01*
X49699390Y-23762742D01*
X49714440Y-23777792D01*
X49982272Y-23991380D01*
X50272335Y-24173639D01*
X50580972Y-24322271D01*
X50904309Y-24435412D01*
X50904321Y-24435416D01*
X51238301Y-24511644D01*
X51238315Y-24511647D01*
X51578709Y-24549999D01*
X51578713Y-24550000D01*
X51921287Y-24550000D01*
X51921290Y-24549999D01*
X52261684Y-24511647D01*
X52261698Y-24511644D01*
X52595678Y-24435416D01*
X52595690Y-24435412D01*
X52919027Y-24322271D01*
X53227664Y-24173639D01*
X53517727Y-23991380D01*
X53785559Y-23777792D01*
X53800610Y-23762742D01*
X52949412Y-22911544D01*
X52972413Y-22893895D01*
X53143895Y-22722413D01*
X53161544Y-22699412D01*
X54012742Y-23550610D01*
X54027792Y-23535559D01*
X54241380Y-23267727D01*
X54423639Y-22977664D01*
X54572271Y-22669027D01*
X54685412Y-22345690D01*
X54685416Y-22345678D01*
X54761644Y-22011698D01*
X54761647Y-22011684D01*
X54799999Y-21671290D01*
X54800000Y-21671286D01*
X54800000Y-21328713D01*
X54799999Y-21328709D01*
X54761647Y-20988315D01*
X54761644Y-20988301D01*
X54685416Y-20654321D01*
X54685412Y-20654309D01*
X54572271Y-20330972D01*
X54423639Y-20022335D01*
X54241380Y-19732272D01*
X54027792Y-19464440D01*
X54012742Y-19449390D01*
X53161544Y-20300587D01*
X53143895Y-20277587D01*
X52972413Y-20106105D01*
X52949412Y-20088455D01*
X53800610Y-19237258D01*
X53785559Y-19222207D01*
X53517727Y-19008619D01*
X53227664Y-18826360D01*
X52919027Y-18677728D01*
X52595690Y-18564587D01*
X52595678Y-18564583D01*
X52261698Y-18488355D01*
X52261684Y-18488352D01*
X51921290Y-18450000D01*
X51578709Y-18450000D01*
X51238315Y-18488352D01*
X51238301Y-18488355D01*
X50904321Y-18564583D01*
X50904309Y-18564587D01*
X50580972Y-18677728D01*
X50272335Y-18826360D01*
X49982272Y-19008619D01*
X49714440Y-19222207D01*
X49699390Y-19237258D01*
X50550587Y-20088455D01*
X50527587Y-20106105D01*
X50356105Y-20277587D01*
X50338455Y-20300587D01*
X49487258Y-19449390D01*
X49472207Y-19464440D01*
X49258619Y-19732272D01*
X49076360Y-20022335D01*
X48927728Y-20330972D01*
X48814587Y-20654309D01*
X48814583Y-20654321D01*
X48738355Y-20988301D01*
X48738352Y-20988315D01*
X48700000Y-21328709D01*
X30450500Y-21328709D01*
X30450500Y-4850437D01*
X30470185Y-4783398D01*
X30471399Y-4781545D01*
X30492317Y-4750239D01*
X30492318Y-4750236D01*
X30492322Y-4750231D01*
X30563973Y-4577251D01*
X30600500Y-4393616D01*
X30600500Y-4206384D01*
X30563973Y-4022749D01*
X30518674Y-3913389D01*
X44899500Y-3913389D01*
X44899500Y-4086610D01*
X44925694Y-4251998D01*
X44926598Y-4257701D01*
X44980127Y-4422445D01*
X45058768Y-4576788D01*
X45160586Y-4716928D01*
X45283072Y-4839414D01*
X45423212Y-4941232D01*
X45577555Y-5019873D01*
X45742299Y-5073402D01*
X45913389Y-5100500D01*
X45913390Y-5100500D01*
X46086610Y-5100500D01*
X46086611Y-5100500D01*
X46257701Y-5073402D01*
X46422445Y-5019873D01*
X46576788Y-4941232D01*
X46716928Y-4839414D01*
X46839414Y-4716928D01*
X46941232Y-4576788D01*
X47019873Y-4422445D01*
X47073402Y-4257701D01*
X47100500Y-4086611D01*
X47100500Y-3913389D01*
X47073402Y-3742299D01*
X47019873Y-3577555D01*
X46941232Y-3423212D01*
X46839414Y-3283072D01*
X46716928Y-3160586D01*
X46576788Y-3058768D01*
X46422445Y-2980127D01*
X46257701Y-2926598D01*
X46257699Y-2926597D01*
X46257698Y-2926597D01*
X46126271Y-2905781D01*
X46086611Y-2899500D01*
X45913389Y-2899500D01*
X45873728Y-2905781D01*
X45742302Y-2926597D01*
X45742299Y-2926598D01*
X45619464Y-2966510D01*
X45577552Y-2980128D01*
X45423211Y-3058768D01*
X45368378Y-3098607D01*
X45283072Y-3160586D01*
X45283070Y-3160588D01*
X45283069Y-3160588D01*
X45160588Y-3283069D01*
X45160588Y-3283070D01*
X45160586Y-3283072D01*
X45153708Y-3292539D01*
X45058768Y-3423211D01*
X44980128Y-3577552D01*
X44926597Y-3742302D01*
X44899500Y-3913389D01*
X30518674Y-3913389D01*
X30492322Y-3849769D01*
X30466530Y-3811168D01*
X30462732Y-3803263D01*
X30458445Y-3777086D01*
X30450520Y-3751774D01*
X30450500Y-3749562D01*
X30450500Y-3121155D01*
X30450499Y-3121153D01*
X30436246Y-3049500D01*
X30419737Y-2966503D01*
X30403208Y-2926597D01*
X30359939Y-2822136D01*
X30350500Y-2774684D01*
X30350500Y-2670730D01*
X30347646Y-2640300D01*
X30347646Y-2640298D01*
X30310488Y-2534109D01*
X30302793Y-2512118D01*
X30222150Y-2402850D01*
X30112882Y-2322207D01*
X30112880Y-2322206D01*
X29984700Y-2277353D01*
X29954270Y-2274500D01*
X29954266Y-2274500D01*
X29345734Y-2274500D01*
X29345730Y-2274500D01*
X29315300Y-2277353D01*
X29315298Y-2277353D01*
X29187119Y-2322206D01*
X29187117Y-2322207D01*
X29077850Y-2402850D01*
X28997207Y-2512117D01*
X28997206Y-2512119D01*
X28952353Y-2640298D01*
X28952353Y-2640300D01*
X28949500Y-2670730D01*
X28949500Y-2774684D01*
X28940061Y-2822136D01*
X28880264Y-2966498D01*
X28880261Y-2966510D01*
X28849500Y-3121153D01*
X28849500Y-3225500D01*
X28829815Y-3292539D01*
X28777011Y-3338294D01*
X28725500Y-3349500D01*
X28499500Y-3349500D01*
X28432461Y-3329815D01*
X28386706Y-3277011D01*
X28375500Y-3225500D01*
X28375500Y-2530249D01*
X28375499Y-2530247D01*
X28363868Y-2471770D01*
X28363867Y-2471769D01*
X28319552Y-2405447D01*
X28253230Y-2361132D01*
X28253229Y-2361131D01*
X28194752Y-2349500D01*
X28194748Y-2349500D01*
X27524500Y-2349500D01*
X27457461Y-2329815D01*
X27411706Y-2277011D01*
X27400500Y-2225500D01*
X27400500Y-660439D01*
X27380020Y-584009D01*
X27380017Y-584004D01*
X27340464Y-515495D01*
X27340458Y-515487D01*
X27337152Y-512181D01*
X27303667Y-450858D01*
X27308651Y-381166D01*
X27350523Y-325233D01*
X27415987Y-300816D01*
X27424833Y-300500D01*
X54452406Y-300500D01*
X54495572Y-300500D01*
X54504418Y-300816D01*
X54733024Y-317165D01*
X54750525Y-319682D01*
X54970143Y-367456D01*
X54987102Y-372435D01*
X55197698Y-450984D01*
X55213778Y-458328D01*
X55411036Y-566039D01*
X55425919Y-575604D01*
X55605836Y-710288D01*
X55619207Y-721874D01*
X55778125Y-880792D01*
X55789711Y-894163D01*
X55924395Y-1074080D01*
X55933960Y-1088963D01*
X56041668Y-1286215D01*
X56049018Y-1302308D01*
X56127561Y-1512889D01*
X56132545Y-1529865D01*
X56180316Y-1749468D01*
X56182834Y-1766980D01*
X56199184Y-1995581D01*
X56199500Y-2004427D01*
X56199500Y-38495572D01*
X56199184Y-38504418D01*
X56182834Y-38733019D01*
X56180316Y-38750531D01*
X56132545Y-38970134D01*
X56127561Y-38987110D01*
X56049018Y-39197691D01*
X56041668Y-39213784D01*
X55933960Y-39411036D01*
X55924395Y-39425919D01*
X55789711Y-39605836D01*
X55778125Y-39619207D01*
X55619207Y-39778125D01*
X55605836Y-39789711D01*
X55425919Y-39924395D01*
X55411036Y-39933960D01*
X55213784Y-40041668D01*
X55197691Y-40049018D01*
X54987110Y-40127561D01*
X54970134Y-40132545D01*
X54750531Y-40180316D01*
X54733019Y-40182834D01*
X54504418Y-40199184D01*
X54495572Y-40199500D01*
X2004428Y-40199500D01*
X1995582Y-40199184D01*
X1766980Y-40182834D01*
X1749468Y-40180316D01*
X1529865Y-40132545D01*
X1512889Y-40127561D01*
X1302308Y-40049018D01*
X1286215Y-40041668D01*
X1088963Y-39933960D01*
X1074080Y-39924395D01*
X894163Y-39789711D01*
X880792Y-39778125D01*
X721874Y-39619207D01*
X710288Y-39605836D01*
X575604Y-39425919D01*
X566039Y-39411036D01*
X458331Y-39213784D01*
X450984Y-39197698D01*
X372435Y-38987102D01*
X367456Y-38970143D01*
X319682Y-38750525D01*
X317165Y-38733019D01*
X300816Y-38504418D01*
X300500Y-38495572D01*
X300500Y-37413389D01*
X8899500Y-37413389D01*
X8899500Y-37586611D01*
X8926598Y-37757701D01*
X8980127Y-37922445D01*
X9058768Y-38076788D01*
X9160586Y-38216928D01*
X9283072Y-38339414D01*
X9423212Y-38441232D01*
X9577555Y-38519873D01*
X9742299Y-38573402D01*
X9913389Y-38600500D01*
X9913390Y-38600500D01*
X10086610Y-38600500D01*
X10086611Y-38600500D01*
X10257701Y-38573402D01*
X10422445Y-38519873D01*
X10576788Y-38441232D01*
X10716928Y-38339414D01*
X10839414Y-38216928D01*
X10941232Y-38076788D01*
X11019873Y-37922445D01*
X11073402Y-37757701D01*
X11100500Y-37586611D01*
X11100500Y-37413389D01*
X11073402Y-37242299D01*
X11019873Y-37077555D01*
X10941232Y-36923212D01*
X10839414Y-36783072D01*
X10716928Y-36660586D01*
X10576788Y-36558768D01*
X10422445Y-36480127D01*
X10257701Y-36426598D01*
X10257699Y-36426597D01*
X10257698Y-36426597D01*
X10126271Y-36405781D01*
X10086611Y-36399500D01*
X9913389Y-36399500D01*
X9873728Y-36405781D01*
X9742302Y-36426597D01*
X9577552Y-36480128D01*
X9423211Y-36558768D01*
X9343256Y-36616859D01*
X9283072Y-36660586D01*
X9283070Y-36660588D01*
X9283069Y-36660588D01*
X9160588Y-36783069D01*
X9160588Y-36783070D01*
X9160586Y-36783072D01*
X9116859Y-36843256D01*
X9058768Y-36923211D01*
X8980128Y-37077552D01*
X8926597Y-37242302D01*
X8917380Y-37300500D01*
X8899500Y-37413389D01*
X300500Y-37413389D01*
X300500Y-36113389D01*
X44899500Y-36113389D01*
X44899500Y-36286610D01*
X44921671Y-36426598D01*
X44926598Y-36457701D01*
X44980127Y-36622445D01*
X45058768Y-36776788D01*
X45160586Y-36916928D01*
X45283072Y-37039414D01*
X45423212Y-37141232D01*
X45577555Y-37219873D01*
X45742299Y-37273402D01*
X45913389Y-37300500D01*
X45913390Y-37300500D01*
X46086610Y-37300500D01*
X46086611Y-37300500D01*
X46257701Y-37273402D01*
X46422445Y-37219873D01*
X46576788Y-37141232D01*
X46716928Y-37039414D01*
X46839414Y-36916928D01*
X46941232Y-36776788D01*
X47019873Y-36622445D01*
X47073402Y-36457701D01*
X47100500Y-36286611D01*
X47100500Y-36113389D01*
X47073402Y-35942299D01*
X47019873Y-35777555D01*
X46941232Y-35623212D01*
X46839414Y-35483072D01*
X46716928Y-35360586D01*
X46576788Y-35258768D01*
X46422445Y-35180127D01*
X46257701Y-35126598D01*
X46257699Y-35126597D01*
X46257698Y-35126597D01*
X46126271Y-35105781D01*
X46086611Y-35099500D01*
X45913389Y-35099500D01*
X45873728Y-35105781D01*
X45742302Y-35126597D01*
X45577552Y-35180128D01*
X45423211Y-35258768D01*
X45397783Y-35277243D01*
X45283072Y-35360586D01*
X45283070Y-35360588D01*
X45283069Y-35360588D01*
X45160588Y-35483069D01*
X45160588Y-35483070D01*
X45160586Y-35483072D01*
X45144212Y-35505609D01*
X45058768Y-35623211D01*
X44980128Y-35777552D01*
X44926597Y-35942302D01*
X44899500Y-36113389D01*
X300500Y-36113389D01*
X300500Y-32474628D01*
X17375000Y-32474628D01*
X17389503Y-32547540D01*
X17389505Y-32547544D01*
X17444760Y-32630239D01*
X17527455Y-32685494D01*
X17527459Y-32685496D01*
X17600371Y-32699999D01*
X17600374Y-32700000D01*
X18850000Y-32700000D01*
X19150000Y-32700000D01*
X20399626Y-32700000D01*
X20399628Y-32699999D01*
X20472540Y-32685496D01*
X20472544Y-32685494D01*
X20555239Y-32630239D01*
X20610494Y-32547544D01*
X20610496Y-32547540D01*
X20624999Y-32474628D01*
X20625000Y-32474626D01*
X20625000Y-32000000D01*
X19150000Y-32000000D01*
X19150000Y-32700000D01*
X18850000Y-32700000D01*
X18850000Y-32000000D01*
X17375000Y-32000000D01*
X17375000Y-32474628D01*
X300500Y-32474628D01*
X300500Y-30924628D01*
X17205000Y-30924628D01*
X17219503Y-30997540D01*
X17219505Y-30997544D01*
X17274760Y-31080239D01*
X17320425Y-31110752D01*
X17365230Y-31164364D01*
X17373882Y-31219284D01*
X17375000Y-31219284D01*
X17375000Y-31700000D01*
X20625000Y-31700000D01*
X20625000Y-31573920D01*
X22749499Y-31573920D01*
X22778340Y-31718907D01*
X22778343Y-31718917D01*
X22834912Y-31855488D01*
X22834919Y-31855501D01*
X22917048Y-31978415D01*
X22917051Y-31978419D01*
X23021580Y-32082948D01*
X23021584Y-32082951D01*
X23144498Y-32165080D01*
X23144511Y-32165087D01*
X23281082Y-32221656D01*
X23281087Y-32221658D01*
X23281091Y-32221658D01*
X23281092Y-32221659D01*
X23426079Y-32250500D01*
X23426082Y-32250500D01*
X23573920Y-32250500D01*
X23671462Y-32231096D01*
X23718913Y-32221658D01*
X23855495Y-32165084D01*
X23978416Y-32082951D01*
X24082951Y-31978416D01*
X24165084Y-31855495D01*
X24221658Y-31718913D01*
X24236721Y-31643187D01*
X24250500Y-31573920D01*
X24250500Y-31426079D01*
X24221659Y-31281092D01*
X24221658Y-31281091D01*
X24221658Y-31281087D01*
X24198580Y-31225371D01*
X24165087Y-31144511D01*
X24165080Y-31144498D01*
X24082951Y-31021584D01*
X24082948Y-31021580D01*
X23978419Y-30917051D01*
X23978415Y-30917048D01*
X23855501Y-30834919D01*
X23855488Y-30834912D01*
X23718917Y-30778343D01*
X23718907Y-30778340D01*
X23573920Y-30749500D01*
X23573918Y-30749500D01*
X23426082Y-30749500D01*
X23426080Y-30749500D01*
X23281092Y-30778340D01*
X23281082Y-30778343D01*
X23144511Y-30834912D01*
X23144498Y-30834919D01*
X23021584Y-30917048D01*
X23021580Y-30917051D01*
X22917051Y-31021580D01*
X22917048Y-31021584D01*
X22834919Y-31144498D01*
X22834912Y-31144511D01*
X22778343Y-31281082D01*
X22778340Y-31281092D01*
X22749500Y-31426079D01*
X22749500Y-31426082D01*
X22749500Y-31573918D01*
X22749500Y-31573920D01*
X22749499Y-31573920D01*
X20625000Y-31573920D01*
X20625000Y-31225373D01*
X20624999Y-31225371D01*
X20610496Y-31152459D01*
X20610494Y-31152455D01*
X20555239Y-31069760D01*
X20472544Y-31014505D01*
X20472540Y-31014503D01*
X20399627Y-31000000D01*
X19379000Y-31000000D01*
X19311961Y-30980315D01*
X19266206Y-30927511D01*
X19260107Y-30911221D01*
X19257533Y-30902533D01*
X19255000Y-30900000D01*
X17205000Y-30900000D01*
X17205000Y-30924628D01*
X300500Y-30924628D01*
X300500Y-29088389D01*
X17205000Y-29088389D01*
X17205000Y-29100000D01*
X17424084Y-29100000D01*
X17425449Y-29100401D01*
X17430897Y-29100500D01*
X19030839Y-29100500D01*
X19030839Y-29100570D01*
X19035916Y-29100000D01*
X19255000Y-29100000D01*
X19255000Y-29075373D01*
X19254999Y-29075371D01*
X19240496Y-29002459D01*
X19240494Y-29002453D01*
X19226397Y-28981355D01*
X19205520Y-28914678D01*
X19205500Y-28912466D01*
X19205500Y-28580249D01*
X19194349Y-28524192D01*
X19194349Y-28475808D01*
X19205500Y-28419750D01*
X19205500Y-28080249D01*
X19194349Y-28024192D01*
X19194349Y-27975808D01*
X19205500Y-27919750D01*
X19205500Y-27580249D01*
X19194349Y-27524192D01*
X19194349Y-27475808D01*
X19205500Y-27419750D01*
X19205500Y-27080249D01*
X19194349Y-27024192D01*
X19194349Y-26975808D01*
X19205500Y-26919750D01*
X19205500Y-26580249D01*
X19194349Y-26524192D01*
X19194349Y-26475808D01*
X19205500Y-26419750D01*
X19205500Y-26080249D01*
X19194349Y-26024192D01*
X19194349Y-25975808D01*
X19205500Y-25919750D01*
X19205500Y-25580249D01*
X19194349Y-25524192D01*
X19194349Y-25475808D01*
X19205500Y-25419750D01*
X19205500Y-25080249D01*
X19205499Y-25080247D01*
X19193868Y-25021770D01*
X19193867Y-25021769D01*
X19149552Y-24955447D01*
X19083230Y-24911132D01*
X19083229Y-24911131D01*
X19024752Y-24899500D01*
X19024748Y-24899500D01*
X17435252Y-24899500D01*
X17435247Y-24899500D01*
X17376770Y-24911131D01*
X17376769Y-24911132D01*
X17310447Y-24955447D01*
X17266132Y-25021769D01*
X17266131Y-25021770D01*
X17254500Y-25080247D01*
X17254500Y-25080252D01*
X17254500Y-25419748D01*
X17258011Y-25437399D01*
X17265651Y-25475810D01*
X17265651Y-25524190D01*
X17254500Y-25580252D01*
X17254500Y-25919748D01*
X17257692Y-25935796D01*
X17265651Y-25975810D01*
X17265651Y-26024190D01*
X17254500Y-26080252D01*
X17254500Y-26419748D01*
X17258011Y-26437399D01*
X17265651Y-26475810D01*
X17265651Y-26524190D01*
X17262272Y-26541179D01*
X17254500Y-26580252D01*
X17254500Y-26919748D01*
X17258011Y-26937399D01*
X17265651Y-26975810D01*
X17265651Y-27024190D01*
X17254500Y-27080252D01*
X17254500Y-27419748D01*
X17258011Y-27437399D01*
X17265651Y-27475810D01*
X17265651Y-27524190D01*
X17254500Y-27580252D01*
X17254500Y-27919748D01*
X17258011Y-27937399D01*
X17265651Y-27975810D01*
X17265651Y-28024190D01*
X17254500Y-28080252D01*
X17254500Y-28419748D01*
X17258011Y-28437399D01*
X17265651Y-28475810D01*
X17265651Y-28524190D01*
X17254500Y-28580252D01*
X17254500Y-28912465D01*
X17254134Y-28913710D01*
X17254475Y-28914964D01*
X17248749Y-28949790D01*
X17205000Y-29088389D01*
X300500Y-29088389D01*
X300500Y-25669999D01*
X1065142Y-25669999D01*
X1065143Y-25670000D01*
X1540192Y-25670000D01*
X1520444Y-25704204D01*
X1500000Y-25780504D01*
X1500000Y-25859496D01*
X1520444Y-25935796D01*
X1540192Y-25970000D01*
X1065143Y-25970000D01*
X1078820Y-26038761D01*
X1078822Y-26038767D01*
X1135357Y-26175254D01*
X1135362Y-26175264D01*
X1217436Y-26298096D01*
X1217439Y-26298100D01*
X1321899Y-26402560D01*
X1321903Y-26402563D01*
X1444735Y-26484637D01*
X1444745Y-26484642D01*
X1581232Y-26541177D01*
X1581240Y-26541179D01*
X1726126Y-26569999D01*
X1726129Y-26570000D01*
X1950000Y-26570000D01*
X1950000Y-26120000D01*
X2250000Y-26120000D01*
X2250000Y-26570000D01*
X2473871Y-26570000D01*
X2473873Y-26569999D01*
X2618759Y-26541179D01*
X2618767Y-26541177D01*
X2755254Y-26484642D01*
X2755264Y-26484637D01*
X2878096Y-26402563D01*
X2878100Y-26402560D01*
X2982560Y-26298100D01*
X2982563Y-26298096D01*
X3064637Y-26175264D01*
X3064642Y-26175254D01*
X3121177Y-26038767D01*
X3121179Y-26038761D01*
X3134857Y-25970000D01*
X2659808Y-25970000D01*
X2679556Y-25935796D01*
X2700000Y-25859496D01*
X2700000Y-25780504D01*
X2679556Y-25704204D01*
X2659808Y-25670000D01*
X3134857Y-25670000D01*
X3134857Y-25669999D01*
X3121179Y-25601238D01*
X3121177Y-25601232D01*
X3064642Y-25464745D01*
X3064637Y-25464735D01*
X2982563Y-25341903D01*
X2982560Y-25341899D01*
X2878100Y-25237439D01*
X2878096Y-25237436D01*
X2755264Y-25155362D01*
X2755254Y-25155357D01*
X2618767Y-25098822D01*
X2618759Y-25098820D01*
X2473872Y-25070000D01*
X2250000Y-25070000D01*
X2250000Y-25520000D01*
X1950000Y-25520000D01*
X1950000Y-25070000D01*
X1726128Y-25070000D01*
X1581240Y-25098820D01*
X1581232Y-25098822D01*
X1444745Y-25155357D01*
X1444735Y-25155362D01*
X1321903Y-25237436D01*
X1321899Y-25237439D01*
X1217439Y-25341899D01*
X1217436Y-25341903D01*
X1135362Y-25464735D01*
X1135357Y-25464745D01*
X1078822Y-25601232D01*
X1078820Y-25601238D01*
X1065142Y-25669999D01*
X300500Y-25669999D01*
X300500Y-17029999D01*
X1065142Y-17029999D01*
X1065143Y-17030000D01*
X1540192Y-17030000D01*
X1520444Y-17064204D01*
X1500000Y-17140504D01*
X1500000Y-17219496D01*
X1520444Y-17295796D01*
X1540192Y-17330000D01*
X1065143Y-17330000D01*
X1078820Y-17398761D01*
X1078822Y-17398767D01*
X1135357Y-17535254D01*
X1135362Y-17535264D01*
X1217436Y-17658096D01*
X1217439Y-17658100D01*
X1321899Y-17762560D01*
X1321903Y-17762563D01*
X1444735Y-17844637D01*
X1444745Y-17844642D01*
X1581232Y-17901177D01*
X1581240Y-17901179D01*
X1726126Y-17929999D01*
X1726129Y-17930000D01*
X1950000Y-17930000D01*
X1950000Y-17480000D01*
X2250000Y-17480000D01*
X2250000Y-17930000D01*
X2473871Y-17930000D01*
X2473873Y-17929999D01*
X2618759Y-17901179D01*
X2618767Y-17901177D01*
X2755254Y-17844642D01*
X2755264Y-17844637D01*
X2878096Y-17762563D01*
X2878100Y-17762560D01*
X2982560Y-17658100D01*
X2982563Y-17658096D01*
X3064637Y-17535264D01*
X3064642Y-17535254D01*
X3121177Y-17398767D01*
X3121179Y-17398761D01*
X3134857Y-17330000D01*
X2659808Y-17330000D01*
X2679556Y-17295796D01*
X2700000Y-17219496D01*
X2700000Y-17140504D01*
X2679556Y-17064204D01*
X2659808Y-17030000D01*
X3134857Y-17030000D01*
X3134857Y-17029999D01*
X4995142Y-17029999D01*
X4995143Y-17030000D01*
X5470192Y-17030000D01*
X5450444Y-17064204D01*
X5430000Y-17140504D01*
X5430000Y-17219496D01*
X5450444Y-17295796D01*
X5470192Y-17330000D01*
X4995143Y-17330000D01*
X5008820Y-17398761D01*
X5008822Y-17398767D01*
X5065357Y-17535254D01*
X5065362Y-17535264D01*
X5147436Y-17658096D01*
X5147439Y-17658100D01*
X5251899Y-17762560D01*
X5251903Y-17762563D01*
X5374735Y-17844637D01*
X5374745Y-17844642D01*
X5516861Y-17903509D01*
X5516265Y-17904947D01*
X5568331Y-17939071D01*
X5596785Y-18002885D01*
X5586222Y-18071951D01*
X5539996Y-18124343D01*
X5535894Y-18126818D01*
X5427338Y-18189492D01*
X5427333Y-18189496D01*
X5329496Y-18287333D01*
X5329492Y-18287338D01*
X5260313Y-18407161D01*
X5260312Y-18407164D01*
X5224500Y-18540817D01*
X5224500Y-18679183D01*
X5256500Y-18798607D01*
X5260312Y-18812835D01*
X5260313Y-18812838D01*
X5329492Y-18932661D01*
X5329494Y-18932664D01*
X5329495Y-18932665D01*
X5427335Y-19030505D01*
X5547164Y-19099688D01*
X5680817Y-19135500D01*
X5680819Y-19135500D01*
X5819181Y-19135500D01*
X5819183Y-19135500D01*
X5952836Y-19099688D01*
X6072662Y-19030507D01*
X6079703Y-19026442D01*
X6080813Y-19028365D01*
X6135173Y-19007346D01*
X6203619Y-19021379D01*
X6253613Y-19070189D01*
X6269500Y-19130915D01*
X6269500Y-19233260D01*
X6279426Y-19301392D01*
X6279426Y-19301393D01*
X6325796Y-19396245D01*
X6337554Y-19465118D01*
X6317498Y-19519594D01*
X6285484Y-19567506D01*
X6285483Y-19567509D01*
X6269500Y-19647863D01*
X6269500Y-19852129D01*
X6269501Y-19852132D01*
X6283920Y-19924628D01*
X6285486Y-19932498D01*
X6290159Y-19943780D01*
X6288714Y-19944378D01*
X6305436Y-19997788D01*
X6289482Y-20055938D01*
X6290159Y-20056219D01*
X6287926Y-20061609D01*
X6286950Y-20065168D01*
X6285550Y-20067345D01*
X6285484Y-20067505D01*
X6269500Y-20147863D01*
X6269500Y-20352129D01*
X6285485Y-20432495D01*
X6290159Y-20443778D01*
X6288884Y-20444305D01*
X6305800Y-20498330D01*
X6295255Y-20550628D01*
X6269003Y-20610083D01*
X6269003Y-20610085D01*
X6266300Y-20633381D01*
X6266300Y-20866606D01*
X6266301Y-20866615D01*
X6269003Y-20889914D01*
X6269004Y-20889918D01*
X6295495Y-20949913D01*
X6304567Y-21019191D01*
X6295496Y-21050085D01*
X6269003Y-21110086D01*
X6266300Y-21133381D01*
X6266300Y-21366606D01*
X6266301Y-21366615D01*
X6269003Y-21389914D01*
X6269004Y-21389918D01*
X6295495Y-21449913D01*
X6304567Y-21519191D01*
X6295496Y-21550085D01*
X6269003Y-21610086D01*
X6266300Y-21633381D01*
X6266300Y-21866606D01*
X6266301Y-21866615D01*
X6269003Y-21889914D01*
X6269004Y-21889918D01*
X6295495Y-21949913D01*
X6304567Y-22019191D01*
X6295496Y-22050085D01*
X6269003Y-22110086D01*
X6266300Y-22133381D01*
X6266300Y-22366606D01*
X6266301Y-22366615D01*
X6269003Y-22389914D01*
X6269003Y-22389915D01*
X6295255Y-22449368D01*
X6304327Y-22518647D01*
X6289725Y-22556046D01*
X6290158Y-22556225D01*
X6285483Y-22567509D01*
X6269500Y-22647863D01*
X6269500Y-22852129D01*
X6269501Y-22852132D01*
X6283920Y-22924628D01*
X6285486Y-22932498D01*
X6290159Y-22943780D01*
X6288714Y-22944378D01*
X6305436Y-22997788D01*
X6289482Y-23055938D01*
X6290159Y-23056219D01*
X6287926Y-23061609D01*
X6286950Y-23065168D01*
X6285550Y-23067345D01*
X6285484Y-23067505D01*
X6269500Y-23147863D01*
X6269500Y-23352129D01*
X6285485Y-23432495D01*
X6317497Y-23480404D01*
X6338375Y-23547082D01*
X6325796Y-23603754D01*
X6279426Y-23698606D01*
X6279426Y-23698607D01*
X6269500Y-23766739D01*
X6269500Y-23869084D01*
X6249815Y-23936123D01*
X6197011Y-23981878D01*
X6127853Y-23991822D01*
X6080638Y-23971937D01*
X6079703Y-23973558D01*
X5952838Y-23900313D01*
X5952837Y-23900312D01*
X5952836Y-23900312D01*
X5819183Y-23864500D01*
X5680817Y-23864500D01*
X5547164Y-23900312D01*
X5547161Y-23900313D01*
X5427338Y-23969492D01*
X5427333Y-23969496D01*
X5329496Y-24067333D01*
X5329492Y-24067338D01*
X5260313Y-24187161D01*
X5260312Y-24187164D01*
X5224500Y-24320817D01*
X5224500Y-24459183D01*
X5253093Y-24565892D01*
X5260312Y-24592835D01*
X5260313Y-24592838D01*
X5329492Y-24712661D01*
X5329494Y-24712664D01*
X5329495Y-24712665D01*
X5427335Y-24810505D01*
X5535894Y-24873181D01*
X5584109Y-24923747D01*
X5597333Y-24992354D01*
X5571365Y-25057219D01*
X5516714Y-25096136D01*
X5516861Y-25096491D01*
X5515319Y-25097129D01*
X5514451Y-25097748D01*
X5511559Y-25098686D01*
X5374745Y-25155357D01*
X5374735Y-25155362D01*
X5251903Y-25237436D01*
X5251899Y-25237439D01*
X5147439Y-25341899D01*
X5147436Y-25341903D01*
X5065362Y-25464735D01*
X5065357Y-25464745D01*
X5008822Y-25601232D01*
X5008820Y-25601238D01*
X4995142Y-25669999D01*
X4995143Y-25670000D01*
X5470192Y-25670000D01*
X5450444Y-25704204D01*
X5430000Y-25780504D01*
X5430000Y-25859496D01*
X5450444Y-25935796D01*
X5470192Y-25970000D01*
X4995143Y-25970000D01*
X5008820Y-26038761D01*
X5008822Y-26038767D01*
X5065357Y-26175254D01*
X5065362Y-26175264D01*
X5147436Y-26298096D01*
X5147439Y-26298100D01*
X5251899Y-26402560D01*
X5251903Y-26402563D01*
X5374735Y-26484637D01*
X5374745Y-26484642D01*
X5511232Y-26541177D01*
X5511240Y-26541179D01*
X5656126Y-26569999D01*
X5656129Y-26570000D01*
X6130000Y-26570000D01*
X6130000Y-26120000D01*
X6430000Y-26120000D01*
X6430000Y-26570000D01*
X6903871Y-26570000D01*
X6903873Y-26569999D01*
X7048759Y-26541179D01*
X7048767Y-26541177D01*
X7185254Y-26484642D01*
X7185264Y-26484637D01*
X7308096Y-26402563D01*
X7308100Y-26402560D01*
X7412560Y-26298100D01*
X7412563Y-26298096D01*
X7494637Y-26175264D01*
X7494642Y-26175254D01*
X7551177Y-26038767D01*
X7551179Y-26038761D01*
X7564857Y-25970000D01*
X7089808Y-25970000D01*
X7109556Y-25935796D01*
X7130000Y-25859496D01*
X7130000Y-25780504D01*
X7109556Y-25704204D01*
X7089808Y-25670000D01*
X7564857Y-25670000D01*
X7564857Y-25669999D01*
X7551179Y-25601238D01*
X7551177Y-25601232D01*
X7497421Y-25471452D01*
X7489952Y-25401982D01*
X7521227Y-25339503D01*
X7581316Y-25303851D01*
X7611982Y-25299999D01*
X7801479Y-25299999D01*
X7895149Y-25285164D01*
X7895155Y-25285162D01*
X8008041Y-25227643D01*
X8008050Y-25227636D01*
X8097636Y-25138050D01*
X8097639Y-25138046D01*
X8155165Y-25025146D01*
X8156550Y-25016401D01*
X8186478Y-24953265D01*
X8245788Y-24916332D01*
X8315651Y-24917328D01*
X8341020Y-24928406D01*
X8406814Y-24966392D01*
X8534108Y-25000500D01*
X8534110Y-25000500D01*
X8665890Y-25000500D01*
X8665892Y-25000500D01*
X8793186Y-24966392D01*
X8907314Y-24900500D01*
X9000500Y-24807314D01*
X9066392Y-24693186D01*
X9100500Y-24565892D01*
X9100500Y-24434108D01*
X9066392Y-24306814D01*
X9000500Y-24192686D01*
X8969995Y-24162181D01*
X8936510Y-24100858D01*
X8941494Y-24031166D01*
X8983366Y-23975233D01*
X9048830Y-23950816D01*
X9057676Y-23950500D01*
X9259679Y-23950500D01*
X9326718Y-23970185D01*
X9372060Y-24022095D01*
X9375935Y-24030404D01*
X9459596Y-24114065D01*
X9566827Y-24164068D01*
X9615683Y-24170500D01*
X9615684Y-24170500D01*
X9964317Y-24170500D01*
X9980601Y-24168356D01*
X10013173Y-24164068D01*
X10120404Y-24114065D01*
X10177319Y-24057149D01*
X10238638Y-24023667D01*
X10308330Y-24028651D01*
X10352678Y-24057152D01*
X10448189Y-24152663D01*
X10563627Y-24209097D01*
X10638452Y-24219999D01*
X10960000Y-24219999D01*
X10981540Y-24219999D01*
X11056374Y-24209096D01*
X11171810Y-24152663D01*
X11262663Y-24061810D01*
X11319096Y-23946374D01*
X11330000Y-23871535D01*
X11330000Y-23800000D01*
X10960000Y-23800000D01*
X10960000Y-24219999D01*
X10638452Y-24219999D01*
X10660000Y-24219998D01*
X10660000Y-23500000D01*
X10960000Y-23500000D01*
X11329999Y-23500000D01*
X11329999Y-23428460D01*
X11319096Y-23353625D01*
X11262663Y-23238189D01*
X11171810Y-23147336D01*
X11056374Y-23090903D01*
X10981536Y-23080000D01*
X10960000Y-23080000D01*
X10960000Y-23500000D01*
X10660000Y-23500000D01*
X10660000Y-23080001D01*
X10659998Y-23079999D01*
X10638464Y-23080000D01*
X10563626Y-23090903D01*
X10448191Y-23147335D01*
X10352678Y-23242848D01*
X10291355Y-23276332D01*
X10221663Y-23271348D01*
X10177316Y-23242847D01*
X10120404Y-23185935D01*
X10085691Y-23169748D01*
X10045918Y-23151201D01*
X9993480Y-23105029D01*
X9974328Y-23037836D01*
X9994544Y-22970955D01*
X9999952Y-22963329D01*
X10003054Y-22959284D01*
X10003060Y-22959279D01*
X10069373Y-22844421D01*
X10103700Y-22716313D01*
X10103700Y-22716310D01*
X10104761Y-22708253D01*
X10106470Y-22708478D01*
X10123385Y-22650875D01*
X10176189Y-22605120D01*
X10245347Y-22595176D01*
X10308903Y-22624201D01*
X10315381Y-22630233D01*
X10398173Y-22713025D01*
X10473127Y-22756299D01*
X10556726Y-22778700D01*
X11277129Y-22778700D01*
X11344168Y-22798385D01*
X11364810Y-22815019D01*
X11441628Y-22891837D01*
X11441629Y-22891837D01*
X11441631Y-22891839D01*
X11547681Y-22943683D01*
X11547684Y-22943683D01*
X11547686Y-22943684D01*
X11564264Y-22946099D01*
X11616431Y-22953700D01*
X12708568Y-22953699D01*
X12777319Y-22943683D01*
X12883369Y-22891839D01*
X12883371Y-22891837D01*
X12960190Y-22815019D01*
X13021513Y-22781534D01*
X13047871Y-22778700D01*
X13552129Y-22778700D01*
X13619168Y-22798385D01*
X13639810Y-22815019D01*
X13716628Y-22891837D01*
X13716629Y-22891837D01*
X13716631Y-22891839D01*
X13822681Y-22943683D01*
X13822684Y-22943683D01*
X13822686Y-22943684D01*
X13839264Y-22946099D01*
X13891431Y-22953700D01*
X14983568Y-22953699D01*
X15052319Y-22943683D01*
X15158369Y-22891839D01*
X15158371Y-22891837D01*
X15235190Y-22815019D01*
X15296513Y-22781534D01*
X15322871Y-22778700D01*
X15561650Y-22778700D01*
X15628689Y-22798385D01*
X15674444Y-22851189D01*
X15685650Y-22902700D01*
X15685650Y-23649636D01*
X15698772Y-23698606D01*
X15710930Y-23743980D01*
X15743272Y-23800000D01*
X15759766Y-23828568D01*
X15828831Y-23897633D01*
X15828832Y-23897634D01*
X16471431Y-24540234D01*
X16471433Y-24540235D01*
X16471437Y-24540238D01*
X16515872Y-24565892D01*
X16556018Y-24589070D01*
X16650363Y-24614350D01*
X16748036Y-24614350D01*
X20094145Y-24614350D01*
X20161184Y-24634035D01*
X20181833Y-24650676D01*
X20249244Y-24718105D01*
X20282720Y-24779431D01*
X20285550Y-24805773D01*
X20285550Y-29194225D01*
X20265865Y-29261264D01*
X20249247Y-29281889D01*
X20181836Y-29349319D01*
X20120520Y-29382811D01*
X20094145Y-29385649D01*
X19951163Y-29385649D01*
X19856819Y-29410929D01*
X19856815Y-29410930D01*
X19848971Y-29413033D01*
X19848913Y-29412817D01*
X19829086Y-29417665D01*
X19829152Y-29417959D01*
X19827300Y-29418369D01*
X19825325Y-29418584D01*
X19820417Y-29419785D01*
X19813127Y-29420421D01*
X19813083Y-29419923D01*
X19800498Y-29421300D01*
X19327662Y-29421300D01*
X19260623Y-29401615D01*
X19258619Y-29400000D01*
X19055879Y-29400000D01*
X19031685Y-29397617D01*
X19025065Y-29396300D01*
X19025064Y-29396300D01*
X17434936Y-29396300D01*
X17434935Y-29396300D01*
X17428315Y-29397617D01*
X17413749Y-29399051D01*
X17411785Y-29399763D01*
X17410196Y-29399401D01*
X17404121Y-29400000D01*
X17205000Y-29400000D01*
X17205000Y-29424628D01*
X17219503Y-29497540D01*
X17219505Y-29497544D01*
X17230402Y-29513853D01*
X17251280Y-29580531D01*
X17251300Y-29582744D01*
X17251300Y-29920064D01*
X17251300Y-29920066D01*
X17251299Y-29920066D01*
X17262388Y-29975808D01*
X17262388Y-30024192D01*
X17251300Y-30079933D01*
X17251300Y-30417254D01*
X17231615Y-30484293D01*
X17230404Y-30486142D01*
X17219504Y-30502455D01*
X17205000Y-30575373D01*
X17205000Y-30600000D01*
X17404121Y-30600000D01*
X17428315Y-30602383D01*
X17434935Y-30603700D01*
X17434936Y-30603700D01*
X19025065Y-30603700D01*
X19031685Y-30602383D01*
X19055879Y-30600000D01*
X19266213Y-30600000D01*
X19274253Y-30596304D01*
X19301304Y-30581534D01*
X19307947Y-30580819D01*
X19309720Y-30580005D01*
X19312228Y-30580359D01*
X19327662Y-30578700D01*
X19800503Y-30578700D01*
X19813076Y-30580075D01*
X19813120Y-30579578D01*
X19820407Y-30580213D01*
X19825316Y-30581413D01*
X19827305Y-30581631D01*
X19829157Y-30582041D01*
X19829091Y-30582336D01*
X19848909Y-30587183D01*
X19848968Y-30586966D01*
X19856818Y-30589069D01*
X19856819Y-30589070D01*
X19951163Y-30614350D01*
X19951165Y-30614350D01*
X20549634Y-30614350D01*
X20549637Y-30614350D01*
X20643982Y-30589070D01*
X20728569Y-30540234D01*
X21371167Y-29897634D01*
X21371169Y-29897633D01*
X21440234Y-29828568D01*
X21489070Y-29743980D01*
X21514350Y-29649636D01*
X21514350Y-26338389D01*
X24745000Y-26338389D01*
X24745000Y-26350000D01*
X24964084Y-26350000D01*
X24974262Y-26350500D01*
X24975252Y-26350500D01*
X26565738Y-26350500D01*
X26575916Y-26350000D01*
X26795000Y-26350000D01*
X26795000Y-26325373D01*
X26794999Y-26325371D01*
X26780496Y-26252459D01*
X26780494Y-26252453D01*
X26766397Y-26231355D01*
X26745520Y-26164678D01*
X26745500Y-26162466D01*
X26745500Y-25830249D01*
X26734349Y-25774192D01*
X26734349Y-25725808D01*
X26745500Y-25669750D01*
X26745500Y-25330249D01*
X26745499Y-25330247D01*
X26733868Y-25271770D01*
X26733867Y-25271769D01*
X26689552Y-25205447D01*
X26623230Y-25161132D01*
X26623229Y-25161131D01*
X26564752Y-25149500D01*
X26564748Y-25149500D01*
X24975252Y-25149500D01*
X24975247Y-25149500D01*
X24916770Y-25161131D01*
X24916769Y-25161132D01*
X24850447Y-25205447D01*
X24806132Y-25271769D01*
X24806131Y-25271770D01*
X24794500Y-25330247D01*
X24794500Y-25330252D01*
X24794500Y-25669748D01*
X24794550Y-25669999D01*
X24805651Y-25725810D01*
X24805651Y-25774190D01*
X24794500Y-25830252D01*
X24794500Y-26162465D01*
X24794134Y-26163710D01*
X24794475Y-26164964D01*
X24788749Y-26199790D01*
X24745000Y-26338389D01*
X21514350Y-26338389D01*
X21514350Y-24350363D01*
X21489070Y-24256019D01*
X21440234Y-24171431D01*
X21371169Y-24102366D01*
X21371167Y-24102364D01*
X20728569Y-23459765D01*
X20728567Y-23459764D01*
X20728562Y-23459760D01*
X20643988Y-23410932D01*
X20643983Y-23410929D01*
X20620395Y-23404609D01*
X20549637Y-23385649D01*
X20549634Y-23385649D01*
X19103931Y-23385649D01*
X19036892Y-23365964D01*
X18991137Y-23313160D01*
X18981193Y-23244002D01*
X19010218Y-23180446D01*
X19068996Y-23142672D01*
X19079740Y-23140032D01*
X19102540Y-23135496D01*
X19102544Y-23135494D01*
X19185239Y-23080239D01*
X19240494Y-22997544D01*
X19240496Y-22997540D01*
X19254999Y-22924628D01*
X19255000Y-22924626D01*
X19255000Y-22900000D01*
X17205000Y-22900000D01*
X17205000Y-22924628D01*
X17219503Y-22997540D01*
X17219505Y-22997544D01*
X17274760Y-23080239D01*
X17357455Y-23135494D01*
X17357459Y-23135496D01*
X17380260Y-23140032D01*
X17442171Y-23172417D01*
X17476745Y-23233133D01*
X17473006Y-23302902D01*
X17432139Y-23359574D01*
X17367121Y-23385155D01*
X17356069Y-23385649D01*
X17105814Y-23385649D01*
X17038775Y-23365964D01*
X17018133Y-23349330D01*
X16950668Y-23281865D01*
X16917183Y-23220542D01*
X16914349Y-23194184D01*
X16914349Y-22701164D01*
X16914349Y-22701163D01*
X16889069Y-22606819D01*
X16888710Y-22606197D01*
X16888567Y-22605611D01*
X16885959Y-22599313D01*
X16886941Y-22598906D01*
X16882005Y-22578555D01*
X16880854Y-22575373D01*
X17205000Y-22575373D01*
X17205000Y-22600000D01*
X17424084Y-22600000D01*
X17434262Y-22600500D01*
X17435252Y-22600500D01*
X19025738Y-22600500D01*
X19035916Y-22600000D01*
X19255000Y-22600000D01*
X19255000Y-22575373D01*
X19254999Y-22575371D01*
X19240496Y-22502459D01*
X19240494Y-22502453D01*
X19226397Y-22481355D01*
X19205520Y-22414678D01*
X19205500Y-22412466D01*
X19205500Y-22080249D01*
X19194349Y-22024192D01*
X19194349Y-21975808D01*
X19205500Y-21919750D01*
X19205500Y-21587533D01*
X19225185Y-21520494D01*
X19226399Y-21518641D01*
X19240495Y-21497545D01*
X19240496Y-21497543D01*
X19254999Y-21424628D01*
X19255000Y-21424626D01*
X19255000Y-21400000D01*
X19035916Y-21400000D01*
X19030839Y-21398509D01*
X19030839Y-21399500D01*
X17434262Y-21399500D01*
X17424084Y-21400000D01*
X17218276Y-21400000D01*
X17251921Y-21562375D01*
X17254500Y-21587533D01*
X17254500Y-21919748D01*
X17256420Y-21929402D01*
X17265651Y-21975810D01*
X17265651Y-22024190D01*
X17254500Y-22080252D01*
X17254500Y-22412465D01*
X17245687Y-22442475D01*
X17238732Y-22472979D01*
X17235482Y-22477230D01*
X17234815Y-22479504D01*
X17233604Y-22481354D01*
X17219504Y-22502456D01*
X17205000Y-22575373D01*
X16880854Y-22575373D01*
X16872333Y-22551808D01*
X16872099Y-22544201D01*
X16872099Y-21049727D01*
X16872099Y-21049726D01*
X16849698Y-20966127D01*
X16839332Y-20948173D01*
X16806424Y-20891173D01*
X16806423Y-20891172D01*
X16806422Y-20891170D01*
X16202228Y-20286976D01*
X16202227Y-20286975D01*
X16127274Y-20243701D01*
X16127271Y-20243700D01*
X16121271Y-20242092D01*
X16104873Y-20237698D01*
X16104871Y-20237697D01*
X16046648Y-20222097D01*
X16043674Y-20221300D01*
X16043673Y-20221300D01*
X15322871Y-20221300D01*
X15255832Y-20201615D01*
X15235190Y-20184981D01*
X15158371Y-20108162D01*
X15101279Y-20080252D01*
X15052319Y-20056317D01*
X15052317Y-20056316D01*
X15052313Y-20056315D01*
X14983569Y-20046300D01*
X13891436Y-20046300D01*
X13822680Y-20056317D01*
X13716628Y-20108162D01*
X13639810Y-20184981D01*
X13578487Y-20218466D01*
X13552129Y-20221300D01*
X13047871Y-20221300D01*
X12980832Y-20201615D01*
X12960190Y-20184981D01*
X12883371Y-20108162D01*
X12826279Y-20080252D01*
X12777319Y-20056317D01*
X12777317Y-20056316D01*
X12777313Y-20056315D01*
X12708569Y-20046300D01*
X11616436Y-20046300D01*
X11547679Y-20056317D01*
X11508459Y-20075491D01*
X11439586Y-20087249D01*
X11375289Y-20059905D01*
X11344161Y-20014161D01*
X11330000Y-20000000D01*
X10934000Y-20000000D01*
X10925314Y-19997449D01*
X10916353Y-19998738D01*
X10892312Y-19987759D01*
X10866961Y-19980315D01*
X10861033Y-19973474D01*
X10852797Y-19969713D01*
X10838507Y-19947478D01*
X10821206Y-19927511D01*
X10820578Y-19924626D01*
X17204999Y-19924626D01*
X17219504Y-19997543D01*
X17233602Y-20018642D01*
X17254480Y-20085320D01*
X17254500Y-20087533D01*
X17254500Y-20419748D01*
X17254990Y-20422209D01*
X17265651Y-20475810D01*
X17265651Y-20524190D01*
X17254500Y-20580252D01*
X17254500Y-20912465D01*
X17249489Y-20929529D01*
X17249502Y-20947316D01*
X17239849Y-20962358D01*
X17234815Y-20979504D01*
X17233604Y-20981354D01*
X17219504Y-21002456D01*
X17205000Y-21075373D01*
X17205000Y-21100000D01*
X17424084Y-21100000D01*
X17434262Y-21100500D01*
X17435252Y-21100500D01*
X19025738Y-21100500D01*
X19035916Y-21100000D01*
X19255000Y-21100000D01*
X19255000Y-21075373D01*
X19254999Y-21075371D01*
X19240496Y-21002459D01*
X19240494Y-21002453D01*
X19226397Y-20981355D01*
X19205520Y-20914678D01*
X19205500Y-20912466D01*
X19205500Y-20580249D01*
X19194349Y-20524192D01*
X19194349Y-20475808D01*
X19205500Y-20419750D01*
X19205500Y-20087533D01*
X19225185Y-20020494D01*
X19226399Y-20018641D01*
X19240495Y-19997545D01*
X19240496Y-19997543D01*
X19254999Y-19924628D01*
X19255000Y-19924626D01*
X19255000Y-19900000D01*
X19035916Y-19900000D01*
X19030839Y-19898509D01*
X19030839Y-19899500D01*
X17429161Y-19899500D01*
X17429161Y-19898895D01*
X17424084Y-19900000D01*
X17205000Y-19900000D01*
X17205000Y-19924626D01*
X17204999Y-19924626D01*
X10820578Y-19924626D01*
X10818918Y-19916996D01*
X10815023Y-19910935D01*
X10810000Y-19876000D01*
X10810000Y-19850000D01*
X10784000Y-19850000D01*
X10716961Y-19830315D01*
X10671206Y-19777511D01*
X10660000Y-19726000D01*
X10660000Y-19700000D01*
X10960000Y-19700000D01*
X11329999Y-19700000D01*
X11329999Y-19628460D01*
X11322265Y-19575373D01*
X17205000Y-19575373D01*
X17205000Y-19600000D01*
X17424084Y-19600000D01*
X17434262Y-19600500D01*
X17435252Y-19600500D01*
X19025738Y-19600500D01*
X19035916Y-19600000D01*
X19255000Y-19600000D01*
X19255000Y-19575373D01*
X19254999Y-19575371D01*
X19240496Y-19502459D01*
X19240494Y-19502453D01*
X19226397Y-19481355D01*
X19205520Y-19414678D01*
X19205500Y-19412466D01*
X19205500Y-19080249D01*
X19194349Y-19024192D01*
X19194349Y-18975808D01*
X19205500Y-18919750D01*
X19205500Y-18587533D01*
X19225185Y-18520494D01*
X19226399Y-18518641D01*
X19240495Y-18497545D01*
X19240496Y-18497543D01*
X19254999Y-18424628D01*
X19255000Y-18424626D01*
X19255000Y-18400000D01*
X19035916Y-18400000D01*
X19030839Y-18398509D01*
X19030839Y-18399500D01*
X17434262Y-18399500D01*
X17424084Y-18400000D01*
X17218276Y-18400000D01*
X17251921Y-18562375D01*
X17254500Y-18587533D01*
X17254500Y-18919748D01*
X17257069Y-18932661D01*
X17265651Y-18975810D01*
X17265651Y-19024190D01*
X17254500Y-19080252D01*
X17254500Y-19412465D01*
X17234815Y-19479504D01*
X17233604Y-19481354D01*
X17219504Y-19502456D01*
X17205000Y-19575373D01*
X11322265Y-19575373D01*
X11319096Y-19553625D01*
X11262663Y-19438189D01*
X11171810Y-19347336D01*
X11056374Y-19290903D01*
X10981536Y-19280000D01*
X10960000Y-19280000D01*
X10960000Y-19700000D01*
X10660000Y-19700000D01*
X10660000Y-19280001D01*
X10659998Y-19279999D01*
X10638464Y-19280000D01*
X10563626Y-19290903D01*
X10448191Y-19347335D01*
X10352678Y-19442848D01*
X10291355Y-19476332D01*
X10221663Y-19471348D01*
X10177316Y-19442847D01*
X10120404Y-19385935D01*
X10013173Y-19335932D01*
X10013171Y-19335931D01*
X10013172Y-19335931D01*
X9964317Y-19329500D01*
X9964316Y-19329500D01*
X9615684Y-19329500D01*
X9615683Y-19329500D01*
X9566828Y-19335931D01*
X9459595Y-19385935D01*
X9375935Y-19469595D01*
X9375935Y-19469596D01*
X9372060Y-19477904D01*
X9325890Y-19530343D01*
X9259679Y-19549500D01*
X8736965Y-19549500D01*
X8669926Y-19529815D01*
X8624171Y-19477011D01*
X8614227Y-19407853D01*
X8643252Y-19344297D01*
X8649284Y-19337819D01*
X9600284Y-18386819D01*
X9661607Y-18353334D01*
X9687965Y-18350500D01*
X9754270Y-18350500D01*
X9784699Y-18347646D01*
X9784701Y-18347646D01*
X9848790Y-18325219D01*
X9912882Y-18302793D01*
X10022150Y-18222150D01*
X10102793Y-18112882D01*
X10126703Y-18044552D01*
X10147646Y-17984701D01*
X10147646Y-17984699D01*
X10150500Y-17954269D01*
X10150500Y-17245730D01*
X10147646Y-17215300D01*
X10147645Y-17215298D01*
X10133167Y-17173920D01*
X10129605Y-17104141D01*
X10162525Y-17045286D01*
X10283185Y-16924626D01*
X17204999Y-16924626D01*
X17219504Y-16997543D01*
X17233602Y-17018642D01*
X17254480Y-17085320D01*
X17254500Y-17087533D01*
X17254500Y-17419748D01*
X17254562Y-17420060D01*
X17265651Y-17475810D01*
X17265651Y-17524190D01*
X17254500Y-17580252D01*
X17254500Y-17912465D01*
X17234815Y-17979504D01*
X17233604Y-17981354D01*
X17219504Y-18002456D01*
X17205000Y-18075373D01*
X17205000Y-18100000D01*
X17424084Y-18100000D01*
X17434262Y-18100500D01*
X17435252Y-18100500D01*
X19025738Y-18100500D01*
X19035916Y-18100000D01*
X19255000Y-18100000D01*
X19255000Y-18075373D01*
X19254999Y-18075371D01*
X19240496Y-18002459D01*
X19240494Y-18002453D01*
X19226397Y-17981355D01*
X19205520Y-17914678D01*
X19205500Y-17912466D01*
X19205500Y-17580249D01*
X19194349Y-17524192D01*
X19194349Y-17475808D01*
X19205500Y-17419750D01*
X19205500Y-17087533D01*
X19225185Y-17020494D01*
X19226399Y-17018641D01*
X19240495Y-16997545D01*
X19240496Y-16997543D01*
X19254999Y-16924628D01*
X19255000Y-16924626D01*
X19255000Y-16900000D01*
X19035916Y-16900000D01*
X19030839Y-16898509D01*
X19030839Y-16899500D01*
X17429161Y-16899500D01*
X17429161Y-16898895D01*
X17424084Y-16900000D01*
X17205000Y-16900000D01*
X17205000Y-16924626D01*
X17204999Y-16924626D01*
X10283185Y-16924626D01*
X10444163Y-16763649D01*
X10458046Y-16755634D01*
X10467306Y-16745449D01*
X10499749Y-16731557D01*
X10581784Y-16709577D01*
X10718716Y-16630520D01*
X10773863Y-16575373D01*
X17205000Y-16575373D01*
X17205000Y-16600000D01*
X17424084Y-16600000D01*
X17434262Y-16600500D01*
X17435252Y-16600500D01*
X19025738Y-16600500D01*
X19035916Y-16600000D01*
X19255000Y-16600000D01*
X19255000Y-16575373D01*
X19254999Y-16575371D01*
X19240496Y-16502459D01*
X19240494Y-16502453D01*
X19226397Y-16481355D01*
X19205520Y-16414678D01*
X19205500Y-16412466D01*
X19205500Y-16080249D01*
X19194349Y-16024192D01*
X19194349Y-15975808D01*
X19205500Y-15919750D01*
X19205500Y-15587533D01*
X19225185Y-15520494D01*
X19226399Y-15518641D01*
X19240495Y-15497545D01*
X19240496Y-15497543D01*
X19254999Y-15424628D01*
X19255000Y-15424626D01*
X19255000Y-15400000D01*
X19035916Y-15400000D01*
X19030839Y-15398509D01*
X19030839Y-15399500D01*
X17434262Y-15399500D01*
X17424084Y-15400000D01*
X17218276Y-15400000D01*
X17251921Y-15562375D01*
X17254500Y-15587533D01*
X17254500Y-15919748D01*
X17258011Y-15937399D01*
X17265651Y-15975810D01*
X17265651Y-16024190D01*
X17254500Y-16080252D01*
X17254500Y-16412465D01*
X17234815Y-16479504D01*
X17233604Y-16481354D01*
X17219504Y-16502456D01*
X17205000Y-16575373D01*
X10773863Y-16575373D01*
X10830520Y-16518716D01*
X10909577Y-16381784D01*
X10950500Y-16229057D01*
X10950500Y-16167253D01*
X10970185Y-16100214D01*
X10986815Y-16079576D01*
X11543722Y-15522668D01*
X11605043Y-15489185D01*
X11674734Y-15494169D01*
X11678854Y-15495790D01*
X11722749Y-15513972D01*
X11887114Y-15546666D01*
X11906379Y-15550498D01*
X11906383Y-15550499D01*
X11906384Y-15550499D01*
X12093617Y-15550499D01*
X12093618Y-15550498D01*
X12277251Y-15513972D01*
X12450231Y-15442321D01*
X12504700Y-15405926D01*
X14906203Y-15405926D01*
X14906203Y-15405927D01*
X15026316Y-15486184D01*
X15026328Y-15486191D01*
X15208306Y-15561568D01*
X15208318Y-15561571D01*
X15401504Y-15599998D01*
X15401508Y-15599999D01*
X15598492Y-15599999D01*
X15598495Y-15599998D01*
X15791681Y-15561571D01*
X15791693Y-15561568D01*
X15973673Y-15486190D01*
X15973675Y-15486189D01*
X16093796Y-15405927D01*
X15500001Y-14812131D01*
X15500000Y-14812131D01*
X14906203Y-15405926D01*
X12504700Y-15405926D01*
X12605908Y-15338301D01*
X12613960Y-15330249D01*
X12672175Y-15272035D01*
X12738299Y-15205910D01*
X12738302Y-15205907D01*
X12842322Y-15050230D01*
X12913973Y-14877250D01*
X12950500Y-14693615D01*
X12950500Y-14506383D01*
X12949529Y-14501503D01*
X14500000Y-14501503D01*
X14500000Y-14698494D01*
X14538427Y-14891680D01*
X14538430Y-14891692D01*
X14613809Y-15073675D01*
X14613811Y-15073678D01*
X14694069Y-15193794D01*
X14694071Y-15193794D01*
X15287868Y-14599999D01*
X15287868Y-14599998D01*
X15712132Y-14599998D01*
X15712132Y-14599999D01*
X16305928Y-15193795D01*
X16385055Y-15075373D01*
X17205000Y-15075373D01*
X17205000Y-15100000D01*
X17424084Y-15100000D01*
X17434262Y-15100500D01*
X17435252Y-15100500D01*
X19025738Y-15100500D01*
X19035916Y-15100000D01*
X19255000Y-15100000D01*
X19255000Y-15075373D01*
X19254999Y-15075371D01*
X19240496Y-15002459D01*
X19240494Y-15002453D01*
X19226397Y-14981355D01*
X19205520Y-14914678D01*
X19205500Y-14912466D01*
X19205500Y-14580249D01*
X19194349Y-14524192D01*
X19194349Y-14475808D01*
X19205500Y-14419750D01*
X19205500Y-14087533D01*
X19225185Y-14020494D01*
X19226399Y-14018641D01*
X19240495Y-13997545D01*
X19240496Y-13997543D01*
X19254999Y-13924628D01*
X19255000Y-13924626D01*
X19255000Y-13900000D01*
X19035916Y-13900000D01*
X19030839Y-13898509D01*
X19030839Y-13899500D01*
X17434262Y-13899500D01*
X17424084Y-13900000D01*
X17218276Y-13900000D01*
X17251921Y-14062375D01*
X17254500Y-14087533D01*
X17254500Y-14419748D01*
X17258011Y-14437399D01*
X17265651Y-14475810D01*
X17265651Y-14524190D01*
X17254500Y-14580252D01*
X17254500Y-14912465D01*
X17234815Y-14979504D01*
X17233604Y-14981354D01*
X17219504Y-15002456D01*
X17205000Y-15075373D01*
X16385055Y-15075373D01*
X16386190Y-15073674D01*
X16386191Y-15073672D01*
X16461569Y-14891692D01*
X16461572Y-14891680D01*
X16499999Y-14698494D01*
X16500000Y-14698491D01*
X16500000Y-14501507D01*
X16499999Y-14501503D01*
X16461572Y-14308317D01*
X16461569Y-14308305D01*
X16386192Y-14126327D01*
X16386185Y-14126315D01*
X16305927Y-14006202D01*
X15712132Y-14599998D01*
X15287868Y-14599998D01*
X14694071Y-14006201D01*
X14694071Y-14006202D01*
X14613813Y-14126317D01*
X14613809Y-14126324D01*
X14538429Y-14308309D01*
X14538427Y-14308317D01*
X14500000Y-14501503D01*
X12949529Y-14501503D01*
X12949230Y-14500000D01*
X12926926Y-14387867D01*
X12913973Y-14322748D01*
X12842322Y-14149768D01*
X12842321Y-14149767D01*
X12842318Y-14149761D01*
X12738302Y-13994091D01*
X12738299Y-13994087D01*
X12605911Y-13861699D01*
X12605907Y-13861696D01*
X12504698Y-13794070D01*
X14906202Y-13794070D01*
X15500000Y-14387867D01*
X15500001Y-14387867D01*
X16093795Y-13794070D01*
X16093795Y-13794068D01*
X15973679Y-13713810D01*
X15973676Y-13713808D01*
X15791693Y-13638429D01*
X15791681Y-13638426D01*
X15598495Y-13599999D01*
X15401504Y-13599999D01*
X15208318Y-13638426D01*
X15208310Y-13638428D01*
X15026325Y-13713808D01*
X15026318Y-13713812D01*
X14906203Y-13794070D01*
X14906202Y-13794070D01*
X12504698Y-13794070D01*
X12450237Y-13757680D01*
X12450228Y-13757675D01*
X12277251Y-13686026D01*
X12277243Y-13686024D01*
X12093620Y-13649499D01*
X12093616Y-13649499D01*
X11906384Y-13649499D01*
X11906379Y-13649499D01*
X11722756Y-13686024D01*
X11722748Y-13686026D01*
X11549771Y-13757675D01*
X11549762Y-13757680D01*
X11394092Y-13861696D01*
X11394088Y-13861699D01*
X11261700Y-13994087D01*
X11261697Y-13994091D01*
X11157681Y-14149761D01*
X11157676Y-14149770D01*
X11086027Y-14322747D01*
X11086025Y-14322755D01*
X11049500Y-14506378D01*
X11049500Y-14693619D01*
X11068173Y-14787495D01*
X11061946Y-14857087D01*
X11034237Y-14899367D01*
X10420426Y-15513181D01*
X10359103Y-15546666D01*
X10332745Y-15549500D01*
X10270943Y-15549500D01*
X10118216Y-15590423D01*
X10118209Y-15590426D01*
X9981290Y-15669475D01*
X9981282Y-15669481D01*
X9962681Y-15688083D01*
X9901358Y-15721568D01*
X9831666Y-15716584D01*
X9787319Y-15688083D01*
X9768717Y-15669481D01*
X9768709Y-15669475D01*
X9631790Y-15590426D01*
X9631786Y-15590424D01*
X9631784Y-15590423D01*
X9479057Y-15549500D01*
X9320943Y-15549500D01*
X9168216Y-15590423D01*
X9168209Y-15590426D01*
X9031290Y-15669475D01*
X9031282Y-15669481D01*
X8919481Y-15781282D01*
X8919475Y-15781290D01*
X8840426Y-15918209D01*
X8840423Y-15918216D01*
X8799500Y-16070943D01*
X8799500Y-16229057D01*
X8826615Y-16330249D01*
X8840423Y-16381783D01*
X8840424Y-16381786D01*
X8882887Y-16455334D01*
X8899500Y-16517334D01*
X8899500Y-16825470D01*
X8879815Y-16892509D01*
X8849134Y-16925240D01*
X8777850Y-16977850D01*
X8697207Y-17087117D01*
X8697206Y-17087119D01*
X8652353Y-17215298D01*
X8652353Y-17215300D01*
X8649500Y-17245730D01*
X8649500Y-17954269D01*
X8653058Y-17992212D01*
X8650658Y-17992436D01*
X8646563Y-18050421D01*
X8618024Y-18094871D01*
X8329129Y-18383767D01*
X8267806Y-18417252D01*
X8198115Y-18412268D01*
X8179026Y-18400000D01*
X7319000Y-18400000D01*
X7251961Y-18380315D01*
X7206206Y-18327511D01*
X7195000Y-18276000D01*
X7195000Y-18224000D01*
X7214685Y-18156961D01*
X7267489Y-18111206D01*
X7319000Y-18100000D01*
X8169999Y-18100000D01*
X8169999Y-18068520D01*
X8155164Y-17974850D01*
X8155162Y-17974844D01*
X8097643Y-17861958D01*
X8097636Y-17861949D01*
X8008050Y-17772363D01*
X8008046Y-17772360D01*
X7895144Y-17714833D01*
X7801486Y-17700000D01*
X7611982Y-17700000D01*
X7544943Y-17680315D01*
X7499188Y-17627511D01*
X7489244Y-17558353D01*
X7497421Y-17528547D01*
X7551177Y-17398767D01*
X7551179Y-17398761D01*
X7564857Y-17330000D01*
X7089808Y-17330000D01*
X7109556Y-17295796D01*
X7130000Y-17219496D01*
X7130000Y-17140504D01*
X7109556Y-17064204D01*
X7089808Y-17030000D01*
X7564857Y-17030000D01*
X7564857Y-17029999D01*
X7551179Y-16961238D01*
X7551177Y-16961232D01*
X7494642Y-16824745D01*
X7494637Y-16824735D01*
X7412563Y-16701903D01*
X7412560Y-16701899D01*
X7308100Y-16597439D01*
X7308096Y-16597436D01*
X7185264Y-16515362D01*
X7185254Y-16515357D01*
X7048767Y-16458822D01*
X7048759Y-16458820D01*
X6903872Y-16430000D01*
X6430000Y-16430000D01*
X6430000Y-16880000D01*
X6130000Y-16880000D01*
X6130000Y-16430000D01*
X5656128Y-16430000D01*
X5511240Y-16458820D01*
X5511232Y-16458822D01*
X5374745Y-16515357D01*
X5374735Y-16515362D01*
X5251903Y-16597436D01*
X5251899Y-16597439D01*
X5147439Y-16701899D01*
X5147436Y-16701903D01*
X5065362Y-16824735D01*
X5065357Y-16824745D01*
X5008822Y-16961232D01*
X5008820Y-16961238D01*
X4995142Y-17029999D01*
X3134857Y-17029999D01*
X3121179Y-16961238D01*
X3121177Y-16961232D01*
X3064642Y-16824745D01*
X3064637Y-16824735D01*
X2982563Y-16701903D01*
X2982560Y-16701899D01*
X2878100Y-16597439D01*
X2878096Y-16597436D01*
X2755264Y-16515362D01*
X2755254Y-16515357D01*
X2618767Y-16458822D01*
X2618759Y-16458820D01*
X2473872Y-16430000D01*
X2250000Y-16430000D01*
X2250000Y-16880000D01*
X1950000Y-16880000D01*
X1950000Y-16430000D01*
X1726128Y-16430000D01*
X1581240Y-16458820D01*
X1581232Y-16458822D01*
X1444745Y-16515357D01*
X1444735Y-16515362D01*
X1321903Y-16597436D01*
X1321899Y-16597439D01*
X1217439Y-16701899D01*
X1217436Y-16701903D01*
X1135362Y-16824735D01*
X1135357Y-16824745D01*
X1078822Y-16961232D01*
X1078820Y-16961238D01*
X1065142Y-17029999D01*
X300500Y-17029999D01*
X300500Y-13575373D01*
X17205000Y-13575373D01*
X17205000Y-13600000D01*
X17424084Y-13600000D01*
X17434262Y-13600500D01*
X17435252Y-13600500D01*
X19025738Y-13600500D01*
X19035916Y-13600000D01*
X19255000Y-13600000D01*
X19255000Y-13575373D01*
X19254999Y-13575371D01*
X19240496Y-13502459D01*
X19240494Y-13502453D01*
X19226397Y-13481355D01*
X19205520Y-13414678D01*
X19205500Y-13412466D01*
X19205500Y-13080249D01*
X19194349Y-13024192D01*
X19194349Y-12975808D01*
X19205500Y-12919750D01*
X19205500Y-12587533D01*
X19225185Y-12520494D01*
X19226399Y-12518641D01*
X19240495Y-12497545D01*
X19240496Y-12497543D01*
X19254999Y-12424628D01*
X19255000Y-12424626D01*
X19255000Y-12400000D01*
X19035916Y-12400000D01*
X19025738Y-12399500D01*
X19024748Y-12399500D01*
X17435252Y-12399500D01*
X17434262Y-12399500D01*
X17424084Y-12400000D01*
X17218276Y-12400000D01*
X17251921Y-12562375D01*
X17254500Y-12587533D01*
X17254500Y-12919748D01*
X17258011Y-12937399D01*
X17265651Y-12975810D01*
X17265651Y-13024190D01*
X17254500Y-13080252D01*
X17254500Y-13412465D01*
X17234815Y-13479504D01*
X17233604Y-13481354D01*
X17219504Y-13502456D01*
X17205000Y-13575373D01*
X300500Y-13575373D01*
X300500Y-12075371D01*
X17205000Y-12075371D01*
X17205000Y-12100000D01*
X19255000Y-12100000D01*
X19264976Y-12090023D01*
X19274685Y-12056961D01*
X19327489Y-12011206D01*
X19379000Y-12000000D01*
X20399626Y-12000000D01*
X20399628Y-11999999D01*
X20472540Y-11985496D01*
X20472544Y-11985494D01*
X20555239Y-11930239D01*
X20610494Y-11847544D01*
X20610496Y-11847540D01*
X20624999Y-11774628D01*
X20625000Y-11774626D01*
X20625000Y-11598543D01*
X22499499Y-11598543D01*
X22537947Y-11791829D01*
X22537950Y-11791839D01*
X22613364Y-11973907D01*
X22613371Y-11973920D01*
X22722860Y-12137781D01*
X22722863Y-12137785D01*
X22862214Y-12277136D01*
X22862218Y-12277139D01*
X23026079Y-12386628D01*
X23026092Y-12386635D01*
X23192224Y-12455448D01*
X23208165Y-12462051D01*
X23208169Y-12462051D01*
X23208170Y-12462052D01*
X23401456Y-12500500D01*
X23401459Y-12500500D01*
X23598543Y-12500500D01*
X23728582Y-12474632D01*
X23791835Y-12462051D01*
X23973914Y-12386632D01*
X24137782Y-12277139D01*
X24277139Y-12137782D01*
X24386632Y-11973914D01*
X24462051Y-11791835D01*
X24500500Y-11598541D01*
X24500500Y-11401459D01*
X24500500Y-11401456D01*
X24462052Y-11208170D01*
X24462051Y-11208169D01*
X24462051Y-11208165D01*
X24437752Y-11149502D01*
X24386635Y-11026092D01*
X24386628Y-11026079D01*
X24277139Y-10862218D01*
X24277136Y-10862214D01*
X24137785Y-10722863D01*
X24137781Y-10722860D01*
X23973920Y-10613371D01*
X23973907Y-10613364D01*
X23791839Y-10537950D01*
X23791829Y-10537947D01*
X23598543Y-10499500D01*
X23598541Y-10499500D01*
X23401459Y-10499500D01*
X23401457Y-10499500D01*
X23208170Y-10537947D01*
X23208160Y-10537950D01*
X23026092Y-10613364D01*
X23026079Y-10613371D01*
X22862218Y-10722860D01*
X22862214Y-10722863D01*
X22722863Y-10862214D01*
X22722860Y-10862218D01*
X22613371Y-11026079D01*
X22613364Y-11026092D01*
X22537950Y-11208160D01*
X22537947Y-11208170D01*
X22499500Y-11401456D01*
X22499500Y-11401459D01*
X22499500Y-11598541D01*
X22499500Y-11598543D01*
X22499499Y-11598543D01*
X20625000Y-11598543D01*
X20625000Y-11300000D01*
X17375000Y-11300000D01*
X17375000Y-11780716D01*
X17373665Y-11780716D01*
X17361911Y-11842651D01*
X17320426Y-11889246D01*
X17274760Y-11919759D01*
X17219505Y-12002455D01*
X17219503Y-12002459D01*
X17205000Y-12075371D01*
X300500Y-12075371D01*
X300500Y-10525371D01*
X17375000Y-10525371D01*
X17375000Y-11000000D01*
X18850000Y-11000000D01*
X19150000Y-11000000D01*
X20625000Y-11000000D01*
X20625000Y-10525373D01*
X20624999Y-10525371D01*
X20610496Y-10452459D01*
X20610494Y-10452455D01*
X20555239Y-10369760D01*
X20472544Y-10314505D01*
X20472540Y-10314503D01*
X20399627Y-10300000D01*
X19150000Y-10300000D01*
X19150000Y-11000000D01*
X18850000Y-11000000D01*
X18850000Y-10300000D01*
X17600373Y-10300000D01*
X17527459Y-10314503D01*
X17527455Y-10314505D01*
X17444760Y-10369760D01*
X17389505Y-10452455D01*
X17389503Y-10452459D01*
X17375000Y-10525371D01*
X300500Y-10525371D01*
X300500Y-2004427D01*
X300816Y-1995581D01*
X307620Y-1900445D01*
X317165Y-1766973D01*
X319681Y-1749476D01*
X367457Y-1529852D01*
X372434Y-1512901D01*
X450986Y-1302295D01*
X458325Y-1286226D01*
X566043Y-1088955D01*
X575599Y-1074086D01*
X710293Y-894156D01*
X721867Y-880799D01*
X880799Y-721867D01*
X894156Y-710293D01*
X1074086Y-575599D01*
X1088955Y-566043D01*
X1286226Y-458325D01*
X1302295Y-450986D01*
X1512901Y-372434D01*
X1529852Y-367457D01*
X1749476Y-319681D01*
X1766973Y-317165D01*
X1995582Y-300816D01*
X2004428Y-300500D01*
X2047594Y-300500D01*
X8965166Y-300500D01*
X9032205Y-320185D01*
G37*
%TD.AperFunction*%
%TD*%
M02*
