%TF.GenerationSoftware,KiCad,Pcbnew,10.0.6*%
%TF.CreationDate,2026-09-20T14:32:54-04:00*%
%TF.ProjectId,USBC_M2E_HaLow_Adapter,55534243-5f4d-4324-955f-48614c6f775f,rev?*%
%TF.SameCoordinates,Original*%
%TF.FileFunction,Drillmap*%
%TF.FilePolarity,Positive*%
%FSLAX45Y45*%
G04 Gerber Fmt 4.5, Leading zero omitted, Abs format (unit mm)*
G04 Created by KiCad (PCBNEW 10.0.6) date 2026-09-20 14:32:54*
%MOMM*%
%LPD*%
G01*
G04 APERTURE LIST*
%ADD10C,0.100000*%
%ADD11C,0.200000*%
%ADD12C,0.110000*%
%ADD13C,0.160000*%
G04 APERTURE END LIST*
D10*
X0Y-200000D02*
G75*
G02*
X200000Y0I200000J0D01*
G01*
X0Y-3850000D02*
X0Y-200000D01*
X200000Y0D02*
X5450000Y0D01*
X200000Y-4050000D02*
G75*
G02*
X0Y-3850000I0J200000D01*
G01*
X5450000Y0D02*
G75*
G02*
X5650000Y-200000I0J-200000D01*
G01*
X5450000Y-4050000D02*
X200000Y-4050000D01*
X5650000Y-200000D02*
X5650000Y-3850000D01*
X5650000Y-3850000D02*
G75*
G02*
X5450000Y-4050000I-200000J0D01*
G01*
D11*
D10*
X542500Y-1828500D02*
X607500Y-1893500D01*
X607500Y-1828500D02*
X542500Y-1893500D01*
X542500Y-2406500D02*
X607500Y-2471500D01*
X607500Y-2406500D02*
X542500Y-2471500D01*
D12*
X2405000Y-3150000D02*
G75*
G02*
X2295000Y-3150000I-55000J0D01*
G01*
X2295000Y-3150000D02*
G75*
G02*
X2405000Y-3150000I55000J0D01*
G01*
D13*
X2350000Y-1070000D02*
X2350000Y-1230000D01*
X2270000Y-1150000D02*
X2430000Y-1150000D01*
D11*
X255777Y-4366484D02*
X255777Y-4166484D01*
X255777Y-4166484D02*
X303396Y-4166484D01*
X303396Y-4166484D02*
X331967Y-4176008D01*
X331967Y-4176008D02*
X351015Y-4195055D01*
X351015Y-4195055D02*
X360539Y-4214103D01*
X360539Y-4214103D02*
X370062Y-4252198D01*
X370062Y-4252198D02*
X370062Y-4280770D01*
X370062Y-4280770D02*
X360539Y-4318865D01*
X360539Y-4318865D02*
X351015Y-4337912D01*
X351015Y-4337912D02*
X331967Y-4356960D01*
X331967Y-4356960D02*
X303396Y-4366484D01*
X303396Y-4366484D02*
X255777Y-4366484D01*
X455777Y-4366484D02*
X455777Y-4233150D01*
X455777Y-4271246D02*
X465301Y-4252198D01*
X465301Y-4252198D02*
X474824Y-4242674D01*
X474824Y-4242674D02*
X493872Y-4233150D01*
X493872Y-4233150D02*
X512920Y-4233150D01*
X579586Y-4366484D02*
X579586Y-4233150D01*
X579586Y-4166484D02*
X570063Y-4176008D01*
X570063Y-4176008D02*
X579586Y-4185531D01*
X579586Y-4185531D02*
X589110Y-4176008D01*
X589110Y-4176008D02*
X579586Y-4166484D01*
X579586Y-4166484D02*
X579586Y-4185531D01*
X703396Y-4366484D02*
X684348Y-4356960D01*
X684348Y-4356960D02*
X674824Y-4337912D01*
X674824Y-4337912D02*
X674824Y-4166484D01*
X808158Y-4366484D02*
X789110Y-4356960D01*
X789110Y-4356960D02*
X779586Y-4337912D01*
X779586Y-4337912D02*
X779586Y-4166484D01*
X1036729Y-4366484D02*
X1036729Y-4166484D01*
X1036729Y-4166484D02*
X1103396Y-4309341D01*
X1103396Y-4309341D02*
X1170063Y-4166484D01*
X1170063Y-4166484D02*
X1170063Y-4366484D01*
X1351015Y-4366484D02*
X1351015Y-4261722D01*
X1351015Y-4261722D02*
X1341491Y-4242674D01*
X1341491Y-4242674D02*
X1322444Y-4233150D01*
X1322444Y-4233150D02*
X1284348Y-4233150D01*
X1284348Y-4233150D02*
X1265301Y-4242674D01*
X1351015Y-4356960D02*
X1331967Y-4366484D01*
X1331967Y-4366484D02*
X1284348Y-4366484D01*
X1284348Y-4366484D02*
X1265301Y-4356960D01*
X1265301Y-4356960D02*
X1255777Y-4337912D01*
X1255777Y-4337912D02*
X1255777Y-4318865D01*
X1255777Y-4318865D02*
X1265301Y-4299817D01*
X1265301Y-4299817D02*
X1284348Y-4290293D01*
X1284348Y-4290293D02*
X1331967Y-4290293D01*
X1331967Y-4290293D02*
X1351015Y-4280770D01*
X1446253Y-4233150D02*
X1446253Y-4433150D01*
X1446253Y-4242674D02*
X1465301Y-4233150D01*
X1465301Y-4233150D02*
X1503396Y-4233150D01*
X1503396Y-4233150D02*
X1522443Y-4242674D01*
X1522443Y-4242674D02*
X1531967Y-4252198D01*
X1531967Y-4252198D02*
X1541491Y-4271246D01*
X1541491Y-4271246D02*
X1541491Y-4328389D01*
X1541491Y-4328389D02*
X1531967Y-4347436D01*
X1531967Y-4347436D02*
X1522443Y-4356960D01*
X1522443Y-4356960D02*
X1503396Y-4366484D01*
X1503396Y-4366484D02*
X1465301Y-4366484D01*
X1465301Y-4366484D02*
X1446253Y-4356960D01*
X1627205Y-4347436D02*
X1636729Y-4356960D01*
X1636729Y-4356960D02*
X1627205Y-4366484D01*
X1627205Y-4366484D02*
X1617682Y-4356960D01*
X1617682Y-4356960D02*
X1627205Y-4347436D01*
X1627205Y-4347436D02*
X1627205Y-4366484D01*
X1627205Y-4242674D02*
X1636729Y-4252198D01*
X1636729Y-4252198D02*
X1627205Y-4261722D01*
X1627205Y-4261722D02*
X1617682Y-4252198D01*
X1617682Y-4252198D02*
X1627205Y-4242674D01*
X1627205Y-4242674D02*
X1627205Y-4261722D01*
D10*
X-70000Y-4662500D02*
X-5000Y-4727500D01*
X-5000Y-4662500D02*
X-70000Y-4727500D01*
D11*
X293872Y-4586484D02*
X312920Y-4586484D01*
X312920Y-4586484D02*
X331967Y-4596008D01*
X331967Y-4596008D02*
X341491Y-4605531D01*
X341491Y-4605531D02*
X351015Y-4624579D01*
X351015Y-4624579D02*
X360539Y-4662674D01*
X360539Y-4662674D02*
X360539Y-4710293D01*
X360539Y-4710293D02*
X351015Y-4748389D01*
X351015Y-4748389D02*
X341491Y-4767436D01*
X341491Y-4767436D02*
X331967Y-4776960D01*
X331967Y-4776960D02*
X312920Y-4786484D01*
X312920Y-4786484D02*
X293872Y-4786484D01*
X293872Y-4786484D02*
X274824Y-4776960D01*
X274824Y-4776960D02*
X265301Y-4767436D01*
X265301Y-4767436D02*
X255777Y-4748389D01*
X255777Y-4748389D02*
X246253Y-4710293D01*
X246253Y-4710293D02*
X246253Y-4662674D01*
X246253Y-4662674D02*
X255777Y-4624579D01*
X255777Y-4624579D02*
X265301Y-4605531D01*
X265301Y-4605531D02*
X274824Y-4596008D01*
X274824Y-4596008D02*
X293872Y-4586484D01*
X446253Y-4767436D02*
X455777Y-4776960D01*
X455777Y-4776960D02*
X446253Y-4786484D01*
X446253Y-4786484D02*
X436729Y-4776960D01*
X436729Y-4776960D02*
X446253Y-4767436D01*
X446253Y-4767436D02*
X446253Y-4786484D01*
X627205Y-4586484D02*
X589110Y-4586484D01*
X589110Y-4586484D02*
X570063Y-4596008D01*
X570063Y-4596008D02*
X560539Y-4605531D01*
X560539Y-4605531D02*
X541491Y-4634103D01*
X541491Y-4634103D02*
X531967Y-4672198D01*
X531967Y-4672198D02*
X531967Y-4748389D01*
X531967Y-4748389D02*
X541491Y-4767436D01*
X541491Y-4767436D02*
X551015Y-4776960D01*
X551015Y-4776960D02*
X570063Y-4786484D01*
X570063Y-4786484D02*
X608158Y-4786484D01*
X608158Y-4786484D02*
X627205Y-4776960D01*
X627205Y-4776960D02*
X636729Y-4767436D01*
X636729Y-4767436D02*
X646253Y-4748389D01*
X646253Y-4748389D02*
X646253Y-4700770D01*
X646253Y-4700770D02*
X636729Y-4681722D01*
X636729Y-4681722D02*
X627205Y-4672198D01*
X627205Y-4672198D02*
X608158Y-4662674D01*
X608158Y-4662674D02*
X570063Y-4662674D01*
X570063Y-4662674D02*
X551015Y-4672198D01*
X551015Y-4672198D02*
X541491Y-4681722D01*
X541491Y-4681722D02*
X531967Y-4700770D01*
X827205Y-4586484D02*
X731967Y-4586484D01*
X731967Y-4586484D02*
X722443Y-4681722D01*
X722443Y-4681722D02*
X731967Y-4672198D01*
X731967Y-4672198D02*
X751015Y-4662674D01*
X751015Y-4662674D02*
X798634Y-4662674D01*
X798634Y-4662674D02*
X817682Y-4672198D01*
X817682Y-4672198D02*
X827205Y-4681722D01*
X827205Y-4681722D02*
X836729Y-4700770D01*
X836729Y-4700770D02*
X836729Y-4748389D01*
X836729Y-4748389D02*
X827205Y-4767436D01*
X827205Y-4767436D02*
X817682Y-4776960D01*
X817682Y-4776960D02*
X798634Y-4786484D01*
X798634Y-4786484D02*
X751015Y-4786484D01*
X751015Y-4786484D02*
X731967Y-4776960D01*
X731967Y-4776960D02*
X722443Y-4767436D01*
X960539Y-4586484D02*
X979586Y-4586484D01*
X979586Y-4586484D02*
X998634Y-4596008D01*
X998634Y-4596008D02*
X1008158Y-4605531D01*
X1008158Y-4605531D02*
X1017682Y-4624579D01*
X1017682Y-4624579D02*
X1027205Y-4662674D01*
X1027205Y-4662674D02*
X1027205Y-4710293D01*
X1027205Y-4710293D02*
X1017682Y-4748389D01*
X1017682Y-4748389D02*
X1008158Y-4767436D01*
X1008158Y-4767436D02*
X998634Y-4776960D01*
X998634Y-4776960D02*
X979586Y-4786484D01*
X979586Y-4786484D02*
X960539Y-4786484D01*
X960539Y-4786484D02*
X941491Y-4776960D01*
X941491Y-4776960D02*
X931967Y-4767436D01*
X931967Y-4767436D02*
X922443Y-4748389D01*
X922443Y-4748389D02*
X912920Y-4710293D01*
X912920Y-4710293D02*
X912920Y-4662674D01*
X912920Y-4662674D02*
X922443Y-4624579D01*
X922443Y-4624579D02*
X931967Y-4605531D01*
X931967Y-4605531D02*
X941491Y-4596008D01*
X941491Y-4596008D02*
X960539Y-4586484D01*
X1112920Y-4786484D02*
X1112920Y-4653150D01*
X1112920Y-4672198D02*
X1122444Y-4662674D01*
X1122444Y-4662674D02*
X1141491Y-4653150D01*
X1141491Y-4653150D02*
X1170063Y-4653150D01*
X1170063Y-4653150D02*
X1189110Y-4662674D01*
X1189110Y-4662674D02*
X1198634Y-4681722D01*
X1198634Y-4681722D02*
X1198634Y-4786484D01*
X1198634Y-4681722D02*
X1208158Y-4662674D01*
X1208158Y-4662674D02*
X1227205Y-4653150D01*
X1227205Y-4653150D02*
X1255777Y-4653150D01*
X1255777Y-4653150D02*
X1274825Y-4662674D01*
X1274825Y-4662674D02*
X1284348Y-4681722D01*
X1284348Y-4681722D02*
X1284348Y-4786484D01*
X1379586Y-4786484D02*
X1379586Y-4653150D01*
X1379586Y-4672198D02*
X1389110Y-4662674D01*
X1389110Y-4662674D02*
X1408158Y-4653150D01*
X1408158Y-4653150D02*
X1436729Y-4653150D01*
X1436729Y-4653150D02*
X1455777Y-4662674D01*
X1455777Y-4662674D02*
X1465301Y-4681722D01*
X1465301Y-4681722D02*
X1465301Y-4786484D01*
X1465301Y-4681722D02*
X1474824Y-4662674D01*
X1474824Y-4662674D02*
X1493872Y-4653150D01*
X1493872Y-4653150D02*
X1522443Y-4653150D01*
X1522443Y-4653150D02*
X1541491Y-4662674D01*
X1541491Y-4662674D02*
X1551015Y-4681722D01*
X1551015Y-4681722D02*
X1551015Y-4786484D01*
X1941491Y-4576960D02*
X1770063Y-4834103D01*
X2198634Y-4586484D02*
X2217682Y-4586484D01*
X2217682Y-4586484D02*
X2236729Y-4596008D01*
X2236729Y-4596008D02*
X2246253Y-4605531D01*
X2246253Y-4605531D02*
X2255777Y-4624579D01*
X2255777Y-4624579D02*
X2265301Y-4662674D01*
X2265301Y-4662674D02*
X2265301Y-4710293D01*
X2265301Y-4710293D02*
X2255777Y-4748389D01*
X2255777Y-4748389D02*
X2246253Y-4767436D01*
X2246253Y-4767436D02*
X2236729Y-4776960D01*
X2236729Y-4776960D02*
X2217682Y-4786484D01*
X2217682Y-4786484D02*
X2198634Y-4786484D01*
X2198634Y-4786484D02*
X2179587Y-4776960D01*
X2179587Y-4776960D02*
X2170063Y-4767436D01*
X2170063Y-4767436D02*
X2160539Y-4748389D01*
X2160539Y-4748389D02*
X2151015Y-4710293D01*
X2151015Y-4710293D02*
X2151015Y-4662674D01*
X2151015Y-4662674D02*
X2160539Y-4624579D01*
X2160539Y-4624579D02*
X2170063Y-4605531D01*
X2170063Y-4605531D02*
X2179587Y-4596008D01*
X2179587Y-4596008D02*
X2198634Y-4586484D01*
X2351015Y-4767436D02*
X2360539Y-4776960D01*
X2360539Y-4776960D02*
X2351015Y-4786484D01*
X2351015Y-4786484D02*
X2341491Y-4776960D01*
X2341491Y-4776960D02*
X2351015Y-4767436D01*
X2351015Y-4767436D02*
X2351015Y-4786484D01*
X2484348Y-4586484D02*
X2503396Y-4586484D01*
X2503396Y-4586484D02*
X2522444Y-4596008D01*
X2522444Y-4596008D02*
X2531968Y-4605531D01*
X2531968Y-4605531D02*
X2541491Y-4624579D01*
X2541491Y-4624579D02*
X2551015Y-4662674D01*
X2551015Y-4662674D02*
X2551015Y-4710293D01*
X2551015Y-4710293D02*
X2541491Y-4748389D01*
X2541491Y-4748389D02*
X2531968Y-4767436D01*
X2531968Y-4767436D02*
X2522444Y-4776960D01*
X2522444Y-4776960D02*
X2503396Y-4786484D01*
X2503396Y-4786484D02*
X2484348Y-4786484D01*
X2484348Y-4786484D02*
X2465301Y-4776960D01*
X2465301Y-4776960D02*
X2455777Y-4767436D01*
X2455777Y-4767436D02*
X2446253Y-4748389D01*
X2446253Y-4748389D02*
X2436729Y-4710293D01*
X2436729Y-4710293D02*
X2436729Y-4662674D01*
X2436729Y-4662674D02*
X2446253Y-4624579D01*
X2446253Y-4624579D02*
X2455777Y-4605531D01*
X2455777Y-4605531D02*
X2465301Y-4596008D01*
X2465301Y-4596008D02*
X2484348Y-4586484D01*
X2627206Y-4605531D02*
X2636729Y-4596008D01*
X2636729Y-4596008D02*
X2655777Y-4586484D01*
X2655777Y-4586484D02*
X2703396Y-4586484D01*
X2703396Y-4586484D02*
X2722444Y-4596008D01*
X2722444Y-4596008D02*
X2731968Y-4605531D01*
X2731968Y-4605531D02*
X2741491Y-4624579D01*
X2741491Y-4624579D02*
X2741491Y-4643627D01*
X2741491Y-4643627D02*
X2731968Y-4672198D01*
X2731968Y-4672198D02*
X2617682Y-4786484D01*
X2617682Y-4786484D02*
X2741491Y-4786484D01*
X2922444Y-4586484D02*
X2827206Y-4586484D01*
X2827206Y-4586484D02*
X2817682Y-4681722D01*
X2817682Y-4681722D02*
X2827206Y-4672198D01*
X2827206Y-4672198D02*
X2846253Y-4662674D01*
X2846253Y-4662674D02*
X2893872Y-4662674D01*
X2893872Y-4662674D02*
X2912920Y-4672198D01*
X2912920Y-4672198D02*
X2922444Y-4681722D01*
X2922444Y-4681722D02*
X2931967Y-4700770D01*
X2931967Y-4700770D02*
X2931967Y-4748389D01*
X2931967Y-4748389D02*
X2922444Y-4767436D01*
X2922444Y-4767436D02*
X2912920Y-4776960D01*
X2912920Y-4776960D02*
X2893872Y-4786484D01*
X2893872Y-4786484D02*
X2846253Y-4786484D01*
X2846253Y-4786484D02*
X2827206Y-4776960D01*
X2827206Y-4776960D02*
X2817682Y-4767436D01*
X3103396Y-4586484D02*
X3065301Y-4586484D01*
X3065301Y-4586484D02*
X3046253Y-4596008D01*
X3046253Y-4596008D02*
X3036729Y-4605531D01*
X3036729Y-4605531D02*
X3017682Y-4634103D01*
X3017682Y-4634103D02*
X3008158Y-4672198D01*
X3008158Y-4672198D02*
X3008158Y-4748389D01*
X3008158Y-4748389D02*
X3017682Y-4767436D01*
X3017682Y-4767436D02*
X3027206Y-4776960D01*
X3027206Y-4776960D02*
X3046253Y-4786484D01*
X3046253Y-4786484D02*
X3084348Y-4786484D01*
X3084348Y-4786484D02*
X3103396Y-4776960D01*
X3103396Y-4776960D02*
X3112920Y-4767436D01*
X3112920Y-4767436D02*
X3122444Y-4748389D01*
X3122444Y-4748389D02*
X3122444Y-4700770D01*
X3122444Y-4700770D02*
X3112920Y-4681722D01*
X3112920Y-4681722D02*
X3103396Y-4672198D01*
X3103396Y-4672198D02*
X3084348Y-4662674D01*
X3084348Y-4662674D02*
X3046253Y-4662674D01*
X3046253Y-4662674D02*
X3027206Y-4672198D01*
X3027206Y-4672198D02*
X3017682Y-4681722D01*
X3017682Y-4681722D02*
X3008158Y-4700770D01*
X3198634Y-4586484D02*
X3198634Y-4624579D01*
X3274825Y-4586484D02*
X3274825Y-4624579D01*
X3570063Y-4862674D02*
X3560539Y-4853150D01*
X3560539Y-4853150D02*
X3541491Y-4824579D01*
X3541491Y-4824579D02*
X3531968Y-4805531D01*
X3531968Y-4805531D02*
X3522444Y-4776960D01*
X3522444Y-4776960D02*
X3512920Y-4729341D01*
X3512920Y-4729341D02*
X3512920Y-4691246D01*
X3512920Y-4691246D02*
X3522444Y-4643627D01*
X3522444Y-4643627D02*
X3531968Y-4615055D01*
X3531968Y-4615055D02*
X3541491Y-4596008D01*
X3541491Y-4596008D02*
X3560539Y-4567436D01*
X3560539Y-4567436D02*
X3570063Y-4557912D01*
X3636729Y-4605531D02*
X3646253Y-4596008D01*
X3646253Y-4596008D02*
X3665301Y-4586484D01*
X3665301Y-4586484D02*
X3712920Y-4586484D01*
X3712920Y-4586484D02*
X3731968Y-4596008D01*
X3731968Y-4596008D02*
X3741491Y-4605531D01*
X3741491Y-4605531D02*
X3751015Y-4624579D01*
X3751015Y-4624579D02*
X3751015Y-4643627D01*
X3751015Y-4643627D02*
X3741491Y-4672198D01*
X3741491Y-4672198D02*
X3627206Y-4786484D01*
X3627206Y-4786484D02*
X3751015Y-4786484D01*
X3989110Y-4786484D02*
X3989110Y-4586484D01*
X4074825Y-4786484D02*
X4074825Y-4681722D01*
X4074825Y-4681722D02*
X4065301Y-4662674D01*
X4065301Y-4662674D02*
X4046253Y-4653150D01*
X4046253Y-4653150D02*
X4017682Y-4653150D01*
X4017682Y-4653150D02*
X3998634Y-4662674D01*
X3998634Y-4662674D02*
X3989110Y-4672198D01*
X4198634Y-4786484D02*
X4179587Y-4776960D01*
X4179587Y-4776960D02*
X4170063Y-4767436D01*
X4170063Y-4767436D02*
X4160539Y-4748389D01*
X4160539Y-4748389D02*
X4160539Y-4691246D01*
X4160539Y-4691246D02*
X4170063Y-4672198D01*
X4170063Y-4672198D02*
X4179587Y-4662674D01*
X4179587Y-4662674D02*
X4198634Y-4653150D01*
X4198634Y-4653150D02*
X4227206Y-4653150D01*
X4227206Y-4653150D02*
X4246253Y-4662674D01*
X4246253Y-4662674D02*
X4255777Y-4672198D01*
X4255777Y-4672198D02*
X4265301Y-4691246D01*
X4265301Y-4691246D02*
X4265301Y-4748389D01*
X4265301Y-4748389D02*
X4255777Y-4767436D01*
X4255777Y-4767436D02*
X4246253Y-4776960D01*
X4246253Y-4776960D02*
X4227206Y-4786484D01*
X4227206Y-4786484D02*
X4198634Y-4786484D01*
X4379587Y-4786484D02*
X4360539Y-4776960D01*
X4360539Y-4776960D02*
X4351015Y-4757912D01*
X4351015Y-4757912D02*
X4351015Y-4586484D01*
X4531968Y-4776960D02*
X4512920Y-4786484D01*
X4512920Y-4786484D02*
X4474825Y-4786484D01*
X4474825Y-4786484D02*
X4455777Y-4776960D01*
X4455777Y-4776960D02*
X4446253Y-4757912D01*
X4446253Y-4757912D02*
X4446253Y-4681722D01*
X4446253Y-4681722D02*
X4455777Y-4662674D01*
X4455777Y-4662674D02*
X4474825Y-4653150D01*
X4474825Y-4653150D02*
X4512920Y-4653150D01*
X4512920Y-4653150D02*
X4531968Y-4662674D01*
X4531968Y-4662674D02*
X4541492Y-4681722D01*
X4541492Y-4681722D02*
X4541492Y-4700770D01*
X4541492Y-4700770D02*
X4446253Y-4719817D01*
X4617682Y-4776960D02*
X4636730Y-4786484D01*
X4636730Y-4786484D02*
X4674825Y-4786484D01*
X4674825Y-4786484D02*
X4693873Y-4776960D01*
X4693873Y-4776960D02*
X4703396Y-4757912D01*
X4703396Y-4757912D02*
X4703396Y-4748389D01*
X4703396Y-4748389D02*
X4693873Y-4729341D01*
X4693873Y-4729341D02*
X4674825Y-4719817D01*
X4674825Y-4719817D02*
X4646253Y-4719817D01*
X4646253Y-4719817D02*
X4627206Y-4710293D01*
X4627206Y-4710293D02*
X4617682Y-4691246D01*
X4617682Y-4691246D02*
X4617682Y-4681722D01*
X4617682Y-4681722D02*
X4627206Y-4662674D01*
X4627206Y-4662674D02*
X4646253Y-4653150D01*
X4646253Y-4653150D02*
X4674825Y-4653150D01*
X4674825Y-4653150D02*
X4693873Y-4662674D01*
X4770063Y-4862674D02*
X4779587Y-4853150D01*
X4779587Y-4853150D02*
X4798634Y-4824579D01*
X4798634Y-4824579D02*
X4808158Y-4805531D01*
X4808158Y-4805531D02*
X4817682Y-4776960D01*
X4817682Y-4776960D02*
X4827206Y-4729341D01*
X4827206Y-4729341D02*
X4827206Y-4691246D01*
X4827206Y-4691246D02*
X4817682Y-4643627D01*
X4817682Y-4643627D02*
X4808158Y-4615055D01*
X4808158Y-4615055D02*
X4798634Y-4596008D01*
X4798634Y-4596008D02*
X4779587Y-4567436D01*
X4779587Y-4567436D02*
X4770063Y-4557912D01*
X5131968Y-4862674D02*
X5122444Y-4853150D01*
X5122444Y-4853150D02*
X5103396Y-4824579D01*
X5103396Y-4824579D02*
X5093873Y-4805531D01*
X5093873Y-4805531D02*
X5084349Y-4776960D01*
X5084349Y-4776960D02*
X5074825Y-4729341D01*
X5074825Y-4729341D02*
X5074825Y-4691246D01*
X5074825Y-4691246D02*
X5084349Y-4643627D01*
X5084349Y-4643627D02*
X5093873Y-4615055D01*
X5093873Y-4615055D02*
X5103396Y-4596008D01*
X5103396Y-4596008D02*
X5122444Y-4567436D01*
X5122444Y-4567436D02*
X5131968Y-4557912D01*
X5208158Y-4653150D02*
X5208158Y-4786484D01*
X5208158Y-4672198D02*
X5217682Y-4662674D01*
X5217682Y-4662674D02*
X5236730Y-4653150D01*
X5236730Y-4653150D02*
X5265301Y-4653150D01*
X5265301Y-4653150D02*
X5284349Y-4662674D01*
X5284349Y-4662674D02*
X5293873Y-4681722D01*
X5293873Y-4681722D02*
X5293873Y-4786484D01*
X5417682Y-4786484D02*
X5398634Y-4776960D01*
X5398634Y-4776960D02*
X5389111Y-4767436D01*
X5389111Y-4767436D02*
X5379587Y-4748389D01*
X5379587Y-4748389D02*
X5379587Y-4691246D01*
X5379587Y-4691246D02*
X5389111Y-4672198D01*
X5389111Y-4672198D02*
X5398634Y-4662674D01*
X5398634Y-4662674D02*
X5417682Y-4653150D01*
X5417682Y-4653150D02*
X5446254Y-4653150D01*
X5446254Y-4653150D02*
X5465301Y-4662674D01*
X5465301Y-4662674D02*
X5474825Y-4672198D01*
X5474825Y-4672198D02*
X5484349Y-4691246D01*
X5484349Y-4691246D02*
X5484349Y-4748389D01*
X5484349Y-4748389D02*
X5474825Y-4767436D01*
X5474825Y-4767436D02*
X5465301Y-4776960D01*
X5465301Y-4776960D02*
X5446254Y-4786484D01*
X5446254Y-4786484D02*
X5417682Y-4786484D01*
X5541492Y-4653150D02*
X5617682Y-4653150D01*
X5570063Y-4586484D02*
X5570063Y-4757912D01*
X5570063Y-4757912D02*
X5579587Y-4776960D01*
X5579587Y-4776960D02*
X5598634Y-4786484D01*
X5598634Y-4786484D02*
X5617682Y-4786484D01*
X5836730Y-4653150D02*
X5836730Y-4853150D01*
X5836730Y-4662674D02*
X5855777Y-4653150D01*
X5855777Y-4653150D02*
X5893873Y-4653150D01*
X5893873Y-4653150D02*
X5912920Y-4662674D01*
X5912920Y-4662674D02*
X5922444Y-4672198D01*
X5922444Y-4672198D02*
X5931968Y-4691246D01*
X5931968Y-4691246D02*
X5931968Y-4748389D01*
X5931968Y-4748389D02*
X5922444Y-4767436D01*
X5922444Y-4767436D02*
X5912920Y-4776960D01*
X5912920Y-4776960D02*
X5893873Y-4786484D01*
X5893873Y-4786484D02*
X5855777Y-4786484D01*
X5855777Y-4786484D02*
X5836730Y-4776960D01*
X6046253Y-4786484D02*
X6027206Y-4776960D01*
X6027206Y-4776960D02*
X6017682Y-4757912D01*
X6017682Y-4757912D02*
X6017682Y-4586484D01*
X6208158Y-4786484D02*
X6208158Y-4681722D01*
X6208158Y-4681722D02*
X6198634Y-4662674D01*
X6198634Y-4662674D02*
X6179587Y-4653150D01*
X6179587Y-4653150D02*
X6141492Y-4653150D01*
X6141492Y-4653150D02*
X6122444Y-4662674D01*
X6208158Y-4776960D02*
X6189111Y-4786484D01*
X6189111Y-4786484D02*
X6141492Y-4786484D01*
X6141492Y-4786484D02*
X6122444Y-4776960D01*
X6122444Y-4776960D02*
X6112920Y-4757912D01*
X6112920Y-4757912D02*
X6112920Y-4738865D01*
X6112920Y-4738865D02*
X6122444Y-4719817D01*
X6122444Y-4719817D02*
X6141492Y-4710293D01*
X6141492Y-4710293D02*
X6189111Y-4710293D01*
X6189111Y-4710293D02*
X6208158Y-4700770D01*
X6274825Y-4653150D02*
X6351015Y-4653150D01*
X6303396Y-4586484D02*
X6303396Y-4757912D01*
X6303396Y-4757912D02*
X6312920Y-4776960D01*
X6312920Y-4776960D02*
X6331968Y-4786484D01*
X6331968Y-4786484D02*
X6351015Y-4786484D01*
X6493873Y-4776960D02*
X6474825Y-4786484D01*
X6474825Y-4786484D02*
X6436730Y-4786484D01*
X6436730Y-4786484D02*
X6417682Y-4776960D01*
X6417682Y-4776960D02*
X6408158Y-4757912D01*
X6408158Y-4757912D02*
X6408158Y-4681722D01*
X6408158Y-4681722D02*
X6417682Y-4662674D01*
X6417682Y-4662674D02*
X6436730Y-4653150D01*
X6436730Y-4653150D02*
X6474825Y-4653150D01*
X6474825Y-4653150D02*
X6493873Y-4662674D01*
X6493873Y-4662674D02*
X6503396Y-4681722D01*
X6503396Y-4681722D02*
X6503396Y-4700770D01*
X6503396Y-4700770D02*
X6408158Y-4719817D01*
X6674825Y-4786484D02*
X6674825Y-4586484D01*
X6674825Y-4776960D02*
X6655777Y-4786484D01*
X6655777Y-4786484D02*
X6617682Y-4786484D01*
X6617682Y-4786484D02*
X6598634Y-4776960D01*
X6598634Y-4776960D02*
X6589111Y-4767436D01*
X6589111Y-4767436D02*
X6579587Y-4748389D01*
X6579587Y-4748389D02*
X6579587Y-4691246D01*
X6579587Y-4691246D02*
X6589111Y-4672198D01*
X6589111Y-4672198D02*
X6598634Y-4662674D01*
X6598634Y-4662674D02*
X6617682Y-4653150D01*
X6617682Y-4653150D02*
X6655777Y-4653150D01*
X6655777Y-4653150D02*
X6674825Y-4662674D01*
X6751015Y-4862674D02*
X6760539Y-4853150D01*
X6760539Y-4853150D02*
X6779587Y-4824579D01*
X6779587Y-4824579D02*
X6789111Y-4805531D01*
X6789111Y-4805531D02*
X6798634Y-4776960D01*
X6798634Y-4776960D02*
X6808158Y-4729341D01*
X6808158Y-4729341D02*
X6808158Y-4691246D01*
X6808158Y-4691246D02*
X6798634Y-4643627D01*
X6798634Y-4643627D02*
X6789111Y-4615055D01*
X6789111Y-4615055D02*
X6779587Y-4596008D01*
X6779587Y-4596008D02*
X6760539Y-4567436D01*
X6760539Y-4567436D02*
X6751015Y-4557912D01*
D12*
X-5000Y-4959000D02*
G75*
G02*
X-115000Y-4959000I-55000J0D01*
G01*
X-115000Y-4959000D02*
G75*
G02*
X-5000Y-4959000I55000J0D01*
G01*
D11*
X360539Y-5050484D02*
X246253Y-5050484D01*
X303396Y-5050484D02*
X303396Y-4850484D01*
X303396Y-4850484D02*
X284348Y-4879055D01*
X284348Y-4879055D02*
X265301Y-4898103D01*
X265301Y-4898103D02*
X246253Y-4907627D01*
X446253Y-5031436D02*
X455777Y-5040960D01*
X455777Y-5040960D02*
X446253Y-5050484D01*
X446253Y-5050484D02*
X436729Y-5040960D01*
X436729Y-5040960D02*
X446253Y-5031436D01*
X446253Y-5031436D02*
X446253Y-5050484D01*
X646253Y-5050484D02*
X531967Y-5050484D01*
X589110Y-5050484D02*
X589110Y-4850484D01*
X589110Y-4850484D02*
X570063Y-4879055D01*
X570063Y-4879055D02*
X551015Y-4898103D01*
X551015Y-4898103D02*
X531967Y-4907627D01*
X770062Y-4850484D02*
X789110Y-4850484D01*
X789110Y-4850484D02*
X808158Y-4860008D01*
X808158Y-4860008D02*
X817682Y-4869531D01*
X817682Y-4869531D02*
X827205Y-4888579D01*
X827205Y-4888579D02*
X836729Y-4926674D01*
X836729Y-4926674D02*
X836729Y-4974293D01*
X836729Y-4974293D02*
X827205Y-5012389D01*
X827205Y-5012389D02*
X817682Y-5031436D01*
X817682Y-5031436D02*
X808158Y-5040960D01*
X808158Y-5040960D02*
X789110Y-5050484D01*
X789110Y-5050484D02*
X770062Y-5050484D01*
X770062Y-5050484D02*
X751015Y-5040960D01*
X751015Y-5040960D02*
X741491Y-5031436D01*
X741491Y-5031436D02*
X731967Y-5012389D01*
X731967Y-5012389D02*
X722443Y-4974293D01*
X722443Y-4974293D02*
X722443Y-4926674D01*
X722443Y-4926674D02*
X731967Y-4888579D01*
X731967Y-4888579D02*
X741491Y-4869531D01*
X741491Y-4869531D02*
X751015Y-4860008D01*
X751015Y-4860008D02*
X770062Y-4850484D01*
X960539Y-4850484D02*
X979586Y-4850484D01*
X979586Y-4850484D02*
X998634Y-4860008D01*
X998634Y-4860008D02*
X1008158Y-4869531D01*
X1008158Y-4869531D02*
X1017682Y-4888579D01*
X1017682Y-4888579D02*
X1027205Y-4926674D01*
X1027205Y-4926674D02*
X1027205Y-4974293D01*
X1027205Y-4974293D02*
X1017682Y-5012389D01*
X1017682Y-5012389D02*
X1008158Y-5031436D01*
X1008158Y-5031436D02*
X998634Y-5040960D01*
X998634Y-5040960D02*
X979586Y-5050484D01*
X979586Y-5050484D02*
X960539Y-5050484D01*
X960539Y-5050484D02*
X941491Y-5040960D01*
X941491Y-5040960D02*
X931967Y-5031436D01*
X931967Y-5031436D02*
X922443Y-5012389D01*
X922443Y-5012389D02*
X912920Y-4974293D01*
X912920Y-4974293D02*
X912920Y-4926674D01*
X912920Y-4926674D02*
X922443Y-4888579D01*
X922443Y-4888579D02*
X931967Y-4869531D01*
X931967Y-4869531D02*
X941491Y-4860008D01*
X941491Y-4860008D02*
X960539Y-4850484D01*
X1112920Y-5050484D02*
X1112920Y-4917150D01*
X1112920Y-4936198D02*
X1122444Y-4926674D01*
X1122444Y-4926674D02*
X1141491Y-4917150D01*
X1141491Y-4917150D02*
X1170063Y-4917150D01*
X1170063Y-4917150D02*
X1189110Y-4926674D01*
X1189110Y-4926674D02*
X1198634Y-4945722D01*
X1198634Y-4945722D02*
X1198634Y-5050484D01*
X1198634Y-4945722D02*
X1208158Y-4926674D01*
X1208158Y-4926674D02*
X1227205Y-4917150D01*
X1227205Y-4917150D02*
X1255777Y-4917150D01*
X1255777Y-4917150D02*
X1274825Y-4926674D01*
X1274825Y-4926674D02*
X1284348Y-4945722D01*
X1284348Y-4945722D02*
X1284348Y-5050484D01*
X1379586Y-5050484D02*
X1379586Y-4917150D01*
X1379586Y-4936198D02*
X1389110Y-4926674D01*
X1389110Y-4926674D02*
X1408158Y-4917150D01*
X1408158Y-4917150D02*
X1436729Y-4917150D01*
X1436729Y-4917150D02*
X1455777Y-4926674D01*
X1455777Y-4926674D02*
X1465301Y-4945722D01*
X1465301Y-4945722D02*
X1465301Y-5050484D01*
X1465301Y-4945722D02*
X1474824Y-4926674D01*
X1474824Y-4926674D02*
X1493872Y-4917150D01*
X1493872Y-4917150D02*
X1522443Y-4917150D01*
X1522443Y-4917150D02*
X1541491Y-4926674D01*
X1541491Y-4926674D02*
X1551015Y-4945722D01*
X1551015Y-4945722D02*
X1551015Y-5050484D01*
X1941491Y-4840960D02*
X1770063Y-5098103D01*
X2198634Y-4850484D02*
X2217682Y-4850484D01*
X2217682Y-4850484D02*
X2236729Y-4860008D01*
X2236729Y-4860008D02*
X2246253Y-4869531D01*
X2246253Y-4869531D02*
X2255777Y-4888579D01*
X2255777Y-4888579D02*
X2265301Y-4926674D01*
X2265301Y-4926674D02*
X2265301Y-4974293D01*
X2265301Y-4974293D02*
X2255777Y-5012389D01*
X2255777Y-5012389D02*
X2246253Y-5031436D01*
X2246253Y-5031436D02*
X2236729Y-5040960D01*
X2236729Y-5040960D02*
X2217682Y-5050484D01*
X2217682Y-5050484D02*
X2198634Y-5050484D01*
X2198634Y-5050484D02*
X2179587Y-5040960D01*
X2179587Y-5040960D02*
X2170063Y-5031436D01*
X2170063Y-5031436D02*
X2160539Y-5012389D01*
X2160539Y-5012389D02*
X2151015Y-4974293D01*
X2151015Y-4974293D02*
X2151015Y-4926674D01*
X2151015Y-4926674D02*
X2160539Y-4888579D01*
X2160539Y-4888579D02*
X2170063Y-4869531D01*
X2170063Y-4869531D02*
X2179587Y-4860008D01*
X2179587Y-4860008D02*
X2198634Y-4850484D01*
X2351015Y-5031436D02*
X2360539Y-5040960D01*
X2360539Y-5040960D02*
X2351015Y-5050484D01*
X2351015Y-5050484D02*
X2341491Y-5040960D01*
X2341491Y-5040960D02*
X2351015Y-5031436D01*
X2351015Y-5031436D02*
X2351015Y-5050484D01*
X2484348Y-4850484D02*
X2503396Y-4850484D01*
X2503396Y-4850484D02*
X2522444Y-4860008D01*
X2522444Y-4860008D02*
X2531968Y-4869531D01*
X2531968Y-4869531D02*
X2541491Y-4888579D01*
X2541491Y-4888579D02*
X2551015Y-4926674D01*
X2551015Y-4926674D02*
X2551015Y-4974293D01*
X2551015Y-4974293D02*
X2541491Y-5012389D01*
X2541491Y-5012389D02*
X2531968Y-5031436D01*
X2531968Y-5031436D02*
X2522444Y-5040960D01*
X2522444Y-5040960D02*
X2503396Y-5050484D01*
X2503396Y-5050484D02*
X2484348Y-5050484D01*
X2484348Y-5050484D02*
X2465301Y-5040960D01*
X2465301Y-5040960D02*
X2455777Y-5031436D01*
X2455777Y-5031436D02*
X2446253Y-5012389D01*
X2446253Y-5012389D02*
X2436729Y-4974293D01*
X2436729Y-4974293D02*
X2436729Y-4926674D01*
X2436729Y-4926674D02*
X2446253Y-4888579D01*
X2446253Y-4888579D02*
X2455777Y-4869531D01*
X2455777Y-4869531D02*
X2465301Y-4860008D01*
X2465301Y-4860008D02*
X2484348Y-4850484D01*
X2722444Y-4917150D02*
X2722444Y-5050484D01*
X2674825Y-4840960D02*
X2627206Y-4983817D01*
X2627206Y-4983817D02*
X2751015Y-4983817D01*
X2808158Y-4850484D02*
X2931967Y-4850484D01*
X2931967Y-4850484D02*
X2865301Y-4926674D01*
X2865301Y-4926674D02*
X2893872Y-4926674D01*
X2893872Y-4926674D02*
X2912920Y-4936198D01*
X2912920Y-4936198D02*
X2922444Y-4945722D01*
X2922444Y-4945722D02*
X2931967Y-4964770D01*
X2931967Y-4964770D02*
X2931967Y-5012389D01*
X2931967Y-5012389D02*
X2922444Y-5031436D01*
X2922444Y-5031436D02*
X2912920Y-5040960D01*
X2912920Y-5040960D02*
X2893872Y-5050484D01*
X2893872Y-5050484D02*
X2836729Y-5050484D01*
X2836729Y-5050484D02*
X2817682Y-5040960D01*
X2817682Y-5040960D02*
X2808158Y-5031436D01*
X2998634Y-4850484D02*
X3122444Y-4850484D01*
X3122444Y-4850484D02*
X3055777Y-4926674D01*
X3055777Y-4926674D02*
X3084348Y-4926674D01*
X3084348Y-4926674D02*
X3103396Y-4936198D01*
X3103396Y-4936198D02*
X3112920Y-4945722D01*
X3112920Y-4945722D02*
X3122444Y-4964770D01*
X3122444Y-4964770D02*
X3122444Y-5012389D01*
X3122444Y-5012389D02*
X3112920Y-5031436D01*
X3112920Y-5031436D02*
X3103396Y-5040960D01*
X3103396Y-5040960D02*
X3084348Y-5050484D01*
X3084348Y-5050484D02*
X3027206Y-5050484D01*
X3027206Y-5050484D02*
X3008158Y-5040960D01*
X3008158Y-5040960D02*
X2998634Y-5031436D01*
X3198634Y-4850484D02*
X3198634Y-4888579D01*
X3274825Y-4850484D02*
X3274825Y-4888579D01*
X3570063Y-5126674D02*
X3560539Y-5117150D01*
X3560539Y-5117150D02*
X3541491Y-5088579D01*
X3541491Y-5088579D02*
X3531968Y-5069531D01*
X3531968Y-5069531D02*
X3522444Y-5040960D01*
X3522444Y-5040960D02*
X3512920Y-4993341D01*
X3512920Y-4993341D02*
X3512920Y-4955246D01*
X3512920Y-4955246D02*
X3522444Y-4907627D01*
X3522444Y-4907627D02*
X3531968Y-4879055D01*
X3531968Y-4879055D02*
X3541491Y-4860008D01*
X3541491Y-4860008D02*
X3560539Y-4831436D01*
X3560539Y-4831436D02*
X3570063Y-4821912D01*
X3751015Y-5050484D02*
X3636729Y-5050484D01*
X3693872Y-5050484D02*
X3693872Y-4850484D01*
X3693872Y-4850484D02*
X3674825Y-4879055D01*
X3674825Y-4879055D02*
X3655777Y-4898103D01*
X3655777Y-4898103D02*
X3636729Y-4907627D01*
X3989110Y-5050484D02*
X3989110Y-4850484D01*
X4074825Y-5050484D02*
X4074825Y-4945722D01*
X4074825Y-4945722D02*
X4065301Y-4926674D01*
X4065301Y-4926674D02*
X4046253Y-4917150D01*
X4046253Y-4917150D02*
X4017682Y-4917150D01*
X4017682Y-4917150D02*
X3998634Y-4926674D01*
X3998634Y-4926674D02*
X3989110Y-4936198D01*
X4198634Y-5050484D02*
X4179587Y-5040960D01*
X4179587Y-5040960D02*
X4170063Y-5031436D01*
X4170063Y-5031436D02*
X4160539Y-5012389D01*
X4160539Y-5012389D02*
X4160539Y-4955246D01*
X4160539Y-4955246D02*
X4170063Y-4936198D01*
X4170063Y-4936198D02*
X4179587Y-4926674D01*
X4179587Y-4926674D02*
X4198634Y-4917150D01*
X4198634Y-4917150D02*
X4227206Y-4917150D01*
X4227206Y-4917150D02*
X4246253Y-4926674D01*
X4246253Y-4926674D02*
X4255777Y-4936198D01*
X4255777Y-4936198D02*
X4265301Y-4955246D01*
X4265301Y-4955246D02*
X4265301Y-5012389D01*
X4265301Y-5012389D02*
X4255777Y-5031436D01*
X4255777Y-5031436D02*
X4246253Y-5040960D01*
X4246253Y-5040960D02*
X4227206Y-5050484D01*
X4227206Y-5050484D02*
X4198634Y-5050484D01*
X4379587Y-5050484D02*
X4360539Y-5040960D01*
X4360539Y-5040960D02*
X4351015Y-5021912D01*
X4351015Y-5021912D02*
X4351015Y-4850484D01*
X4531968Y-5040960D02*
X4512920Y-5050484D01*
X4512920Y-5050484D02*
X4474825Y-5050484D01*
X4474825Y-5050484D02*
X4455777Y-5040960D01*
X4455777Y-5040960D02*
X4446253Y-5021912D01*
X4446253Y-5021912D02*
X4446253Y-4945722D01*
X4446253Y-4945722D02*
X4455777Y-4926674D01*
X4455777Y-4926674D02*
X4474825Y-4917150D01*
X4474825Y-4917150D02*
X4512920Y-4917150D01*
X4512920Y-4917150D02*
X4531968Y-4926674D01*
X4531968Y-4926674D02*
X4541492Y-4945722D01*
X4541492Y-4945722D02*
X4541492Y-4964770D01*
X4541492Y-4964770D02*
X4446253Y-4983817D01*
X4608158Y-5126674D02*
X4617682Y-5117150D01*
X4617682Y-5117150D02*
X4636730Y-5088579D01*
X4636730Y-5088579D02*
X4646253Y-5069531D01*
X4646253Y-5069531D02*
X4655777Y-5040960D01*
X4655777Y-5040960D02*
X4665301Y-4993341D01*
X4665301Y-4993341D02*
X4665301Y-4955246D01*
X4665301Y-4955246D02*
X4655777Y-4907627D01*
X4655777Y-4907627D02*
X4646253Y-4879055D01*
X4646253Y-4879055D02*
X4636730Y-4860008D01*
X4636730Y-4860008D02*
X4617682Y-4831436D01*
X4617682Y-4831436D02*
X4608158Y-4821912D01*
X4970063Y-5126674D02*
X4960539Y-5117150D01*
X4960539Y-5117150D02*
X4941492Y-5088579D01*
X4941492Y-5088579D02*
X4931968Y-5069531D01*
X4931968Y-5069531D02*
X4922444Y-5040960D01*
X4922444Y-5040960D02*
X4912920Y-4993341D01*
X4912920Y-4993341D02*
X4912920Y-4955246D01*
X4912920Y-4955246D02*
X4922444Y-4907627D01*
X4922444Y-4907627D02*
X4931968Y-4879055D01*
X4931968Y-4879055D02*
X4941492Y-4860008D01*
X4941492Y-4860008D02*
X4960539Y-4831436D01*
X4960539Y-4831436D02*
X4970063Y-4821912D01*
X5046253Y-4917150D02*
X5046253Y-5050484D01*
X5046253Y-4936198D02*
X5055777Y-4926674D01*
X5055777Y-4926674D02*
X5074825Y-4917150D01*
X5074825Y-4917150D02*
X5103396Y-4917150D01*
X5103396Y-4917150D02*
X5122444Y-4926674D01*
X5122444Y-4926674D02*
X5131968Y-4945722D01*
X5131968Y-4945722D02*
X5131968Y-5050484D01*
X5255777Y-5050484D02*
X5236730Y-5040960D01*
X5236730Y-5040960D02*
X5227206Y-5031436D01*
X5227206Y-5031436D02*
X5217682Y-5012389D01*
X5217682Y-5012389D02*
X5217682Y-4955246D01*
X5217682Y-4955246D02*
X5227206Y-4936198D01*
X5227206Y-4936198D02*
X5236730Y-4926674D01*
X5236730Y-4926674D02*
X5255777Y-4917150D01*
X5255777Y-4917150D02*
X5284349Y-4917150D01*
X5284349Y-4917150D02*
X5303396Y-4926674D01*
X5303396Y-4926674D02*
X5312920Y-4936198D01*
X5312920Y-4936198D02*
X5322444Y-4955246D01*
X5322444Y-4955246D02*
X5322444Y-5012389D01*
X5322444Y-5012389D02*
X5312920Y-5031436D01*
X5312920Y-5031436D02*
X5303396Y-5040960D01*
X5303396Y-5040960D02*
X5284349Y-5050484D01*
X5284349Y-5050484D02*
X5255777Y-5050484D01*
X5379587Y-4917150D02*
X5455777Y-4917150D01*
X5408158Y-4850484D02*
X5408158Y-5021912D01*
X5408158Y-5021912D02*
X5417682Y-5040960D01*
X5417682Y-5040960D02*
X5436730Y-5050484D01*
X5436730Y-5050484D02*
X5455777Y-5050484D01*
X5674825Y-4917150D02*
X5674825Y-5117150D01*
X5674825Y-4926674D02*
X5693872Y-4917150D01*
X5693872Y-4917150D02*
X5731968Y-4917150D01*
X5731968Y-4917150D02*
X5751015Y-4926674D01*
X5751015Y-4926674D02*
X5760539Y-4936198D01*
X5760539Y-4936198D02*
X5770063Y-4955246D01*
X5770063Y-4955246D02*
X5770063Y-5012389D01*
X5770063Y-5012389D02*
X5760539Y-5031436D01*
X5760539Y-5031436D02*
X5751015Y-5040960D01*
X5751015Y-5040960D02*
X5731968Y-5050484D01*
X5731968Y-5050484D02*
X5693872Y-5050484D01*
X5693872Y-5050484D02*
X5674825Y-5040960D01*
X5884349Y-5050484D02*
X5865301Y-5040960D01*
X5865301Y-5040960D02*
X5855777Y-5021912D01*
X5855777Y-5021912D02*
X5855777Y-4850484D01*
X6046253Y-5050484D02*
X6046253Y-4945722D01*
X6046253Y-4945722D02*
X6036730Y-4926674D01*
X6036730Y-4926674D02*
X6017682Y-4917150D01*
X6017682Y-4917150D02*
X5979587Y-4917150D01*
X5979587Y-4917150D02*
X5960539Y-4926674D01*
X6046253Y-5040960D02*
X6027206Y-5050484D01*
X6027206Y-5050484D02*
X5979587Y-5050484D01*
X5979587Y-5050484D02*
X5960539Y-5040960D01*
X5960539Y-5040960D02*
X5951015Y-5021912D01*
X5951015Y-5021912D02*
X5951015Y-5002865D01*
X5951015Y-5002865D02*
X5960539Y-4983817D01*
X5960539Y-4983817D02*
X5979587Y-4974293D01*
X5979587Y-4974293D02*
X6027206Y-4974293D01*
X6027206Y-4974293D02*
X6046253Y-4964770D01*
X6112920Y-4917150D02*
X6189111Y-4917150D01*
X6141492Y-4850484D02*
X6141492Y-5021912D01*
X6141492Y-5021912D02*
X6151015Y-5040960D01*
X6151015Y-5040960D02*
X6170063Y-5050484D01*
X6170063Y-5050484D02*
X6189111Y-5050484D01*
X6331968Y-5040960D02*
X6312920Y-5050484D01*
X6312920Y-5050484D02*
X6274825Y-5050484D01*
X6274825Y-5050484D02*
X6255777Y-5040960D01*
X6255777Y-5040960D02*
X6246253Y-5021912D01*
X6246253Y-5021912D02*
X6246253Y-4945722D01*
X6246253Y-4945722D02*
X6255777Y-4926674D01*
X6255777Y-4926674D02*
X6274825Y-4917150D01*
X6274825Y-4917150D02*
X6312920Y-4917150D01*
X6312920Y-4917150D02*
X6331968Y-4926674D01*
X6331968Y-4926674D02*
X6341492Y-4945722D01*
X6341492Y-4945722D02*
X6341492Y-4964770D01*
X6341492Y-4964770D02*
X6246253Y-4983817D01*
X6512920Y-5050484D02*
X6512920Y-4850484D01*
X6512920Y-5040960D02*
X6493873Y-5050484D01*
X6493873Y-5050484D02*
X6455777Y-5050484D01*
X6455777Y-5050484D02*
X6436730Y-5040960D01*
X6436730Y-5040960D02*
X6427206Y-5031436D01*
X6427206Y-5031436D02*
X6417682Y-5012389D01*
X6417682Y-5012389D02*
X6417682Y-4955246D01*
X6417682Y-4955246D02*
X6427206Y-4936198D01*
X6427206Y-4936198D02*
X6436730Y-4926674D01*
X6436730Y-4926674D02*
X6455777Y-4917150D01*
X6455777Y-4917150D02*
X6493873Y-4917150D01*
X6493873Y-4917150D02*
X6512920Y-4926674D01*
X6589111Y-5126674D02*
X6598634Y-5117150D01*
X6598634Y-5117150D02*
X6617682Y-5088579D01*
X6617682Y-5088579D02*
X6627206Y-5069531D01*
X6627206Y-5069531D02*
X6636730Y-5040960D01*
X6636730Y-5040960D02*
X6646253Y-4993341D01*
X6646253Y-4993341D02*
X6646253Y-4955246D01*
X6646253Y-4955246D02*
X6636730Y-4907627D01*
X6636730Y-4907627D02*
X6627206Y-4879055D01*
X6627206Y-4879055D02*
X6617682Y-4860008D01*
X6617682Y-4860008D02*
X6598634Y-4831436D01*
X6598634Y-4831436D02*
X6589111Y-4821912D01*
D13*
X-85000Y-5143000D02*
X-85000Y-5303000D01*
X-165000Y-5223000D02*
X-5000Y-5223000D01*
D11*
X360539Y-5314484D02*
X246253Y-5314484D01*
X303396Y-5314484D02*
X303396Y-5114484D01*
X303396Y-5114484D02*
X284348Y-5143055D01*
X284348Y-5143055D02*
X265301Y-5162103D01*
X265301Y-5162103D02*
X246253Y-5171627D01*
X446253Y-5295436D02*
X455777Y-5304960D01*
X455777Y-5304960D02*
X446253Y-5314484D01*
X446253Y-5314484D02*
X436729Y-5304960D01*
X436729Y-5304960D02*
X446253Y-5295436D01*
X446253Y-5295436D02*
X446253Y-5314484D01*
X627205Y-5114484D02*
X589110Y-5114484D01*
X589110Y-5114484D02*
X570063Y-5124008D01*
X570063Y-5124008D02*
X560539Y-5133531D01*
X560539Y-5133531D02*
X541491Y-5162103D01*
X541491Y-5162103D02*
X531967Y-5200198D01*
X531967Y-5200198D02*
X531967Y-5276389D01*
X531967Y-5276389D02*
X541491Y-5295436D01*
X541491Y-5295436D02*
X551015Y-5304960D01*
X551015Y-5304960D02*
X570063Y-5314484D01*
X570063Y-5314484D02*
X608158Y-5314484D01*
X608158Y-5314484D02*
X627205Y-5304960D01*
X627205Y-5304960D02*
X636729Y-5295436D01*
X636729Y-5295436D02*
X646253Y-5276389D01*
X646253Y-5276389D02*
X646253Y-5228770D01*
X646253Y-5228770D02*
X636729Y-5209722D01*
X636729Y-5209722D02*
X627205Y-5200198D01*
X627205Y-5200198D02*
X608158Y-5190674D01*
X608158Y-5190674D02*
X570063Y-5190674D01*
X570063Y-5190674D02*
X551015Y-5200198D01*
X551015Y-5200198D02*
X541491Y-5209722D01*
X541491Y-5209722D02*
X531967Y-5228770D01*
X770062Y-5114484D02*
X789110Y-5114484D01*
X789110Y-5114484D02*
X808158Y-5124008D01*
X808158Y-5124008D02*
X817682Y-5133531D01*
X817682Y-5133531D02*
X827205Y-5152579D01*
X827205Y-5152579D02*
X836729Y-5190674D01*
X836729Y-5190674D02*
X836729Y-5238293D01*
X836729Y-5238293D02*
X827205Y-5276389D01*
X827205Y-5276389D02*
X817682Y-5295436D01*
X817682Y-5295436D02*
X808158Y-5304960D01*
X808158Y-5304960D02*
X789110Y-5314484D01*
X789110Y-5314484D02*
X770062Y-5314484D01*
X770062Y-5314484D02*
X751015Y-5304960D01*
X751015Y-5304960D02*
X741491Y-5295436D01*
X741491Y-5295436D02*
X731967Y-5276389D01*
X731967Y-5276389D02*
X722443Y-5238293D01*
X722443Y-5238293D02*
X722443Y-5190674D01*
X722443Y-5190674D02*
X731967Y-5152579D01*
X731967Y-5152579D02*
X741491Y-5133531D01*
X741491Y-5133531D02*
X751015Y-5124008D01*
X751015Y-5124008D02*
X770062Y-5114484D01*
X960539Y-5114484D02*
X979586Y-5114484D01*
X979586Y-5114484D02*
X998634Y-5124008D01*
X998634Y-5124008D02*
X1008158Y-5133531D01*
X1008158Y-5133531D02*
X1017682Y-5152579D01*
X1017682Y-5152579D02*
X1027205Y-5190674D01*
X1027205Y-5190674D02*
X1027205Y-5238293D01*
X1027205Y-5238293D02*
X1017682Y-5276389D01*
X1017682Y-5276389D02*
X1008158Y-5295436D01*
X1008158Y-5295436D02*
X998634Y-5304960D01*
X998634Y-5304960D02*
X979586Y-5314484D01*
X979586Y-5314484D02*
X960539Y-5314484D01*
X960539Y-5314484D02*
X941491Y-5304960D01*
X941491Y-5304960D02*
X931967Y-5295436D01*
X931967Y-5295436D02*
X922443Y-5276389D01*
X922443Y-5276389D02*
X912920Y-5238293D01*
X912920Y-5238293D02*
X912920Y-5190674D01*
X912920Y-5190674D02*
X922443Y-5152579D01*
X922443Y-5152579D02*
X931967Y-5133531D01*
X931967Y-5133531D02*
X941491Y-5124008D01*
X941491Y-5124008D02*
X960539Y-5114484D01*
X1112920Y-5314484D02*
X1112920Y-5181150D01*
X1112920Y-5200198D02*
X1122444Y-5190674D01*
X1122444Y-5190674D02*
X1141491Y-5181150D01*
X1141491Y-5181150D02*
X1170063Y-5181150D01*
X1170063Y-5181150D02*
X1189110Y-5190674D01*
X1189110Y-5190674D02*
X1198634Y-5209722D01*
X1198634Y-5209722D02*
X1198634Y-5314484D01*
X1198634Y-5209722D02*
X1208158Y-5190674D01*
X1208158Y-5190674D02*
X1227205Y-5181150D01*
X1227205Y-5181150D02*
X1255777Y-5181150D01*
X1255777Y-5181150D02*
X1274825Y-5190674D01*
X1274825Y-5190674D02*
X1284348Y-5209722D01*
X1284348Y-5209722D02*
X1284348Y-5314484D01*
X1379586Y-5314484D02*
X1379586Y-5181150D01*
X1379586Y-5200198D02*
X1389110Y-5190674D01*
X1389110Y-5190674D02*
X1408158Y-5181150D01*
X1408158Y-5181150D02*
X1436729Y-5181150D01*
X1436729Y-5181150D02*
X1455777Y-5190674D01*
X1455777Y-5190674D02*
X1465301Y-5209722D01*
X1465301Y-5209722D02*
X1465301Y-5314484D01*
X1465301Y-5209722D02*
X1474824Y-5190674D01*
X1474824Y-5190674D02*
X1493872Y-5181150D01*
X1493872Y-5181150D02*
X1522443Y-5181150D01*
X1522443Y-5181150D02*
X1541491Y-5190674D01*
X1541491Y-5190674D02*
X1551015Y-5209722D01*
X1551015Y-5209722D02*
X1551015Y-5314484D01*
X1941491Y-5104960D02*
X1770063Y-5362103D01*
X2198634Y-5114484D02*
X2217682Y-5114484D01*
X2217682Y-5114484D02*
X2236729Y-5124008D01*
X2236729Y-5124008D02*
X2246253Y-5133531D01*
X2246253Y-5133531D02*
X2255777Y-5152579D01*
X2255777Y-5152579D02*
X2265301Y-5190674D01*
X2265301Y-5190674D02*
X2265301Y-5238293D01*
X2265301Y-5238293D02*
X2255777Y-5276389D01*
X2255777Y-5276389D02*
X2246253Y-5295436D01*
X2246253Y-5295436D02*
X2236729Y-5304960D01*
X2236729Y-5304960D02*
X2217682Y-5314484D01*
X2217682Y-5314484D02*
X2198634Y-5314484D01*
X2198634Y-5314484D02*
X2179587Y-5304960D01*
X2179587Y-5304960D02*
X2170063Y-5295436D01*
X2170063Y-5295436D02*
X2160539Y-5276389D01*
X2160539Y-5276389D02*
X2151015Y-5238293D01*
X2151015Y-5238293D02*
X2151015Y-5190674D01*
X2151015Y-5190674D02*
X2160539Y-5152579D01*
X2160539Y-5152579D02*
X2170063Y-5133531D01*
X2170063Y-5133531D02*
X2179587Y-5124008D01*
X2179587Y-5124008D02*
X2198634Y-5114484D01*
X2351015Y-5295436D02*
X2360539Y-5304960D01*
X2360539Y-5304960D02*
X2351015Y-5314484D01*
X2351015Y-5314484D02*
X2341491Y-5304960D01*
X2341491Y-5304960D02*
X2351015Y-5295436D01*
X2351015Y-5295436D02*
X2351015Y-5314484D01*
X2484348Y-5114484D02*
X2503396Y-5114484D01*
X2503396Y-5114484D02*
X2522444Y-5124008D01*
X2522444Y-5124008D02*
X2531968Y-5133531D01*
X2531968Y-5133531D02*
X2541491Y-5152579D01*
X2541491Y-5152579D02*
X2551015Y-5190674D01*
X2551015Y-5190674D02*
X2551015Y-5238293D01*
X2551015Y-5238293D02*
X2541491Y-5276389D01*
X2541491Y-5276389D02*
X2531968Y-5295436D01*
X2531968Y-5295436D02*
X2522444Y-5304960D01*
X2522444Y-5304960D02*
X2503396Y-5314484D01*
X2503396Y-5314484D02*
X2484348Y-5314484D01*
X2484348Y-5314484D02*
X2465301Y-5304960D01*
X2465301Y-5304960D02*
X2455777Y-5295436D01*
X2455777Y-5295436D02*
X2446253Y-5276389D01*
X2446253Y-5276389D02*
X2436729Y-5238293D01*
X2436729Y-5238293D02*
X2436729Y-5190674D01*
X2436729Y-5190674D02*
X2446253Y-5152579D01*
X2446253Y-5152579D02*
X2455777Y-5133531D01*
X2455777Y-5133531D02*
X2465301Y-5124008D01*
X2465301Y-5124008D02*
X2484348Y-5114484D01*
X2722444Y-5114484D02*
X2684348Y-5114484D01*
X2684348Y-5114484D02*
X2665301Y-5124008D01*
X2665301Y-5124008D02*
X2655777Y-5133531D01*
X2655777Y-5133531D02*
X2636729Y-5162103D01*
X2636729Y-5162103D02*
X2627206Y-5200198D01*
X2627206Y-5200198D02*
X2627206Y-5276389D01*
X2627206Y-5276389D02*
X2636729Y-5295436D01*
X2636729Y-5295436D02*
X2646253Y-5304960D01*
X2646253Y-5304960D02*
X2665301Y-5314484D01*
X2665301Y-5314484D02*
X2703396Y-5314484D01*
X2703396Y-5314484D02*
X2722444Y-5304960D01*
X2722444Y-5304960D02*
X2731968Y-5295436D01*
X2731968Y-5295436D02*
X2741491Y-5276389D01*
X2741491Y-5276389D02*
X2741491Y-5228770D01*
X2741491Y-5228770D02*
X2731968Y-5209722D01*
X2731968Y-5209722D02*
X2722444Y-5200198D01*
X2722444Y-5200198D02*
X2703396Y-5190674D01*
X2703396Y-5190674D02*
X2665301Y-5190674D01*
X2665301Y-5190674D02*
X2646253Y-5200198D01*
X2646253Y-5200198D02*
X2636729Y-5209722D01*
X2636729Y-5209722D02*
X2627206Y-5228770D01*
X2808158Y-5114484D02*
X2931967Y-5114484D01*
X2931967Y-5114484D02*
X2865301Y-5190674D01*
X2865301Y-5190674D02*
X2893872Y-5190674D01*
X2893872Y-5190674D02*
X2912920Y-5200198D01*
X2912920Y-5200198D02*
X2922444Y-5209722D01*
X2922444Y-5209722D02*
X2931967Y-5228770D01*
X2931967Y-5228770D02*
X2931967Y-5276389D01*
X2931967Y-5276389D02*
X2922444Y-5295436D01*
X2922444Y-5295436D02*
X2912920Y-5304960D01*
X2912920Y-5304960D02*
X2893872Y-5314484D01*
X2893872Y-5314484D02*
X2836729Y-5314484D01*
X2836729Y-5314484D02*
X2817682Y-5304960D01*
X2817682Y-5304960D02*
X2808158Y-5295436D01*
X3055777Y-5114484D02*
X3074825Y-5114484D01*
X3074825Y-5114484D02*
X3093872Y-5124008D01*
X3093872Y-5124008D02*
X3103396Y-5133531D01*
X3103396Y-5133531D02*
X3112920Y-5152579D01*
X3112920Y-5152579D02*
X3122444Y-5190674D01*
X3122444Y-5190674D02*
X3122444Y-5238293D01*
X3122444Y-5238293D02*
X3112920Y-5276389D01*
X3112920Y-5276389D02*
X3103396Y-5295436D01*
X3103396Y-5295436D02*
X3093872Y-5304960D01*
X3093872Y-5304960D02*
X3074825Y-5314484D01*
X3074825Y-5314484D02*
X3055777Y-5314484D01*
X3055777Y-5314484D02*
X3036729Y-5304960D01*
X3036729Y-5304960D02*
X3027206Y-5295436D01*
X3027206Y-5295436D02*
X3017682Y-5276389D01*
X3017682Y-5276389D02*
X3008158Y-5238293D01*
X3008158Y-5238293D02*
X3008158Y-5190674D01*
X3008158Y-5190674D02*
X3017682Y-5152579D01*
X3017682Y-5152579D02*
X3027206Y-5133531D01*
X3027206Y-5133531D02*
X3036729Y-5124008D01*
X3036729Y-5124008D02*
X3055777Y-5114484D01*
X3198634Y-5114484D02*
X3198634Y-5152579D01*
X3274825Y-5114484D02*
X3274825Y-5152579D01*
X3570063Y-5390674D02*
X3560539Y-5381150D01*
X3560539Y-5381150D02*
X3541491Y-5352579D01*
X3541491Y-5352579D02*
X3531968Y-5333531D01*
X3531968Y-5333531D02*
X3522444Y-5304960D01*
X3522444Y-5304960D02*
X3512920Y-5257341D01*
X3512920Y-5257341D02*
X3512920Y-5219246D01*
X3512920Y-5219246D02*
X3522444Y-5171627D01*
X3522444Y-5171627D02*
X3531968Y-5143055D01*
X3531968Y-5143055D02*
X3541491Y-5124008D01*
X3541491Y-5124008D02*
X3560539Y-5095436D01*
X3560539Y-5095436D02*
X3570063Y-5085912D01*
X3751015Y-5314484D02*
X3636729Y-5314484D01*
X3693872Y-5314484D02*
X3693872Y-5114484D01*
X3693872Y-5114484D02*
X3674825Y-5143055D01*
X3674825Y-5143055D02*
X3655777Y-5162103D01*
X3655777Y-5162103D02*
X3636729Y-5171627D01*
X3989110Y-5314484D02*
X3989110Y-5114484D01*
X4074825Y-5314484D02*
X4074825Y-5209722D01*
X4074825Y-5209722D02*
X4065301Y-5190674D01*
X4065301Y-5190674D02*
X4046253Y-5181150D01*
X4046253Y-5181150D02*
X4017682Y-5181150D01*
X4017682Y-5181150D02*
X3998634Y-5190674D01*
X3998634Y-5190674D02*
X3989110Y-5200198D01*
X4198634Y-5314484D02*
X4179587Y-5304960D01*
X4179587Y-5304960D02*
X4170063Y-5295436D01*
X4170063Y-5295436D02*
X4160539Y-5276389D01*
X4160539Y-5276389D02*
X4160539Y-5219246D01*
X4160539Y-5219246D02*
X4170063Y-5200198D01*
X4170063Y-5200198D02*
X4179587Y-5190674D01*
X4179587Y-5190674D02*
X4198634Y-5181150D01*
X4198634Y-5181150D02*
X4227206Y-5181150D01*
X4227206Y-5181150D02*
X4246253Y-5190674D01*
X4246253Y-5190674D02*
X4255777Y-5200198D01*
X4255777Y-5200198D02*
X4265301Y-5219246D01*
X4265301Y-5219246D02*
X4265301Y-5276389D01*
X4265301Y-5276389D02*
X4255777Y-5295436D01*
X4255777Y-5295436D02*
X4246253Y-5304960D01*
X4246253Y-5304960D02*
X4227206Y-5314484D01*
X4227206Y-5314484D02*
X4198634Y-5314484D01*
X4379587Y-5314484D02*
X4360539Y-5304960D01*
X4360539Y-5304960D02*
X4351015Y-5285912D01*
X4351015Y-5285912D02*
X4351015Y-5114484D01*
X4531968Y-5304960D02*
X4512920Y-5314484D01*
X4512920Y-5314484D02*
X4474825Y-5314484D01*
X4474825Y-5314484D02*
X4455777Y-5304960D01*
X4455777Y-5304960D02*
X4446253Y-5285912D01*
X4446253Y-5285912D02*
X4446253Y-5209722D01*
X4446253Y-5209722D02*
X4455777Y-5190674D01*
X4455777Y-5190674D02*
X4474825Y-5181150D01*
X4474825Y-5181150D02*
X4512920Y-5181150D01*
X4512920Y-5181150D02*
X4531968Y-5190674D01*
X4531968Y-5190674D02*
X4541492Y-5209722D01*
X4541492Y-5209722D02*
X4541492Y-5228770D01*
X4541492Y-5228770D02*
X4446253Y-5247817D01*
X4608158Y-5390674D02*
X4617682Y-5381150D01*
X4617682Y-5381150D02*
X4636730Y-5352579D01*
X4636730Y-5352579D02*
X4646253Y-5333531D01*
X4646253Y-5333531D02*
X4655777Y-5304960D01*
X4655777Y-5304960D02*
X4665301Y-5257341D01*
X4665301Y-5257341D02*
X4665301Y-5219246D01*
X4665301Y-5219246D02*
X4655777Y-5171627D01*
X4655777Y-5171627D02*
X4646253Y-5143055D01*
X4646253Y-5143055D02*
X4636730Y-5124008D01*
X4636730Y-5124008D02*
X4617682Y-5095436D01*
X4617682Y-5095436D02*
X4608158Y-5085912D01*
X4970063Y-5390674D02*
X4960539Y-5381150D01*
X4960539Y-5381150D02*
X4941492Y-5352579D01*
X4941492Y-5352579D02*
X4931968Y-5333531D01*
X4931968Y-5333531D02*
X4922444Y-5304960D01*
X4922444Y-5304960D02*
X4912920Y-5257341D01*
X4912920Y-5257341D02*
X4912920Y-5219246D01*
X4912920Y-5219246D02*
X4922444Y-5171627D01*
X4922444Y-5171627D02*
X4931968Y-5143055D01*
X4931968Y-5143055D02*
X4941492Y-5124008D01*
X4941492Y-5124008D02*
X4960539Y-5095436D01*
X4960539Y-5095436D02*
X4970063Y-5085912D01*
X5046253Y-5181150D02*
X5046253Y-5314484D01*
X5046253Y-5200198D02*
X5055777Y-5190674D01*
X5055777Y-5190674D02*
X5074825Y-5181150D01*
X5074825Y-5181150D02*
X5103396Y-5181150D01*
X5103396Y-5181150D02*
X5122444Y-5190674D01*
X5122444Y-5190674D02*
X5131968Y-5209722D01*
X5131968Y-5209722D02*
X5131968Y-5314484D01*
X5255777Y-5314484D02*
X5236730Y-5304960D01*
X5236730Y-5304960D02*
X5227206Y-5295436D01*
X5227206Y-5295436D02*
X5217682Y-5276389D01*
X5217682Y-5276389D02*
X5217682Y-5219246D01*
X5217682Y-5219246D02*
X5227206Y-5200198D01*
X5227206Y-5200198D02*
X5236730Y-5190674D01*
X5236730Y-5190674D02*
X5255777Y-5181150D01*
X5255777Y-5181150D02*
X5284349Y-5181150D01*
X5284349Y-5181150D02*
X5303396Y-5190674D01*
X5303396Y-5190674D02*
X5312920Y-5200198D01*
X5312920Y-5200198D02*
X5322444Y-5219246D01*
X5322444Y-5219246D02*
X5322444Y-5276389D01*
X5322444Y-5276389D02*
X5312920Y-5295436D01*
X5312920Y-5295436D02*
X5303396Y-5304960D01*
X5303396Y-5304960D02*
X5284349Y-5314484D01*
X5284349Y-5314484D02*
X5255777Y-5314484D01*
X5379587Y-5181150D02*
X5455777Y-5181150D01*
X5408158Y-5114484D02*
X5408158Y-5285912D01*
X5408158Y-5285912D02*
X5417682Y-5304960D01*
X5417682Y-5304960D02*
X5436730Y-5314484D01*
X5436730Y-5314484D02*
X5455777Y-5314484D01*
X5674825Y-5181150D02*
X5674825Y-5381150D01*
X5674825Y-5190674D02*
X5693872Y-5181150D01*
X5693872Y-5181150D02*
X5731968Y-5181150D01*
X5731968Y-5181150D02*
X5751015Y-5190674D01*
X5751015Y-5190674D02*
X5760539Y-5200198D01*
X5760539Y-5200198D02*
X5770063Y-5219246D01*
X5770063Y-5219246D02*
X5770063Y-5276389D01*
X5770063Y-5276389D02*
X5760539Y-5295436D01*
X5760539Y-5295436D02*
X5751015Y-5304960D01*
X5751015Y-5304960D02*
X5731968Y-5314484D01*
X5731968Y-5314484D02*
X5693872Y-5314484D01*
X5693872Y-5314484D02*
X5674825Y-5304960D01*
X5884349Y-5314484D02*
X5865301Y-5304960D01*
X5865301Y-5304960D02*
X5855777Y-5285912D01*
X5855777Y-5285912D02*
X5855777Y-5114484D01*
X6046253Y-5314484D02*
X6046253Y-5209722D01*
X6046253Y-5209722D02*
X6036730Y-5190674D01*
X6036730Y-5190674D02*
X6017682Y-5181150D01*
X6017682Y-5181150D02*
X5979587Y-5181150D01*
X5979587Y-5181150D02*
X5960539Y-5190674D01*
X6046253Y-5304960D02*
X6027206Y-5314484D01*
X6027206Y-5314484D02*
X5979587Y-5314484D01*
X5979587Y-5314484D02*
X5960539Y-5304960D01*
X5960539Y-5304960D02*
X5951015Y-5285912D01*
X5951015Y-5285912D02*
X5951015Y-5266865D01*
X5951015Y-5266865D02*
X5960539Y-5247817D01*
X5960539Y-5247817D02*
X5979587Y-5238293D01*
X5979587Y-5238293D02*
X6027206Y-5238293D01*
X6027206Y-5238293D02*
X6046253Y-5228770D01*
X6112920Y-5181150D02*
X6189111Y-5181150D01*
X6141492Y-5114484D02*
X6141492Y-5285912D01*
X6141492Y-5285912D02*
X6151015Y-5304960D01*
X6151015Y-5304960D02*
X6170063Y-5314484D01*
X6170063Y-5314484D02*
X6189111Y-5314484D01*
X6331968Y-5304960D02*
X6312920Y-5314484D01*
X6312920Y-5314484D02*
X6274825Y-5314484D01*
X6274825Y-5314484D02*
X6255777Y-5304960D01*
X6255777Y-5304960D02*
X6246253Y-5285912D01*
X6246253Y-5285912D02*
X6246253Y-5209722D01*
X6246253Y-5209722D02*
X6255777Y-5190674D01*
X6255777Y-5190674D02*
X6274825Y-5181150D01*
X6274825Y-5181150D02*
X6312920Y-5181150D01*
X6312920Y-5181150D02*
X6331968Y-5190674D01*
X6331968Y-5190674D02*
X6341492Y-5209722D01*
X6341492Y-5209722D02*
X6341492Y-5228770D01*
X6341492Y-5228770D02*
X6246253Y-5247817D01*
X6512920Y-5314484D02*
X6512920Y-5114484D01*
X6512920Y-5304960D02*
X6493873Y-5314484D01*
X6493873Y-5314484D02*
X6455777Y-5314484D01*
X6455777Y-5314484D02*
X6436730Y-5304960D01*
X6436730Y-5304960D02*
X6427206Y-5295436D01*
X6427206Y-5295436D02*
X6417682Y-5276389D01*
X6417682Y-5276389D02*
X6417682Y-5219246D01*
X6417682Y-5219246D02*
X6427206Y-5200198D01*
X6427206Y-5200198D02*
X6436730Y-5190674D01*
X6436730Y-5190674D02*
X6455777Y-5181150D01*
X6455777Y-5181150D02*
X6493873Y-5181150D01*
X6493873Y-5181150D02*
X6512920Y-5190674D01*
X6589111Y-5390674D02*
X6598634Y-5381150D01*
X6598634Y-5381150D02*
X6617682Y-5352579D01*
X6617682Y-5352579D02*
X6627206Y-5333531D01*
X6627206Y-5333531D02*
X6636730Y-5304960D01*
X6636730Y-5304960D02*
X6646253Y-5257341D01*
X6646253Y-5257341D02*
X6646253Y-5219246D01*
X6646253Y-5219246D02*
X6636730Y-5171627D01*
X6636730Y-5171627D02*
X6627206Y-5143055D01*
X6627206Y-5143055D02*
X6617682Y-5124008D01*
X6617682Y-5124008D02*
X6598634Y-5095436D01*
X6598634Y-5095436D02*
X6589111Y-5085912D01*
M02*
