M48
; DRILL file KiCad 10.0.6 date 2026-09-20T14:32:54
; FORMAT={-:-/ absolute / metric / decimal}
; #@! TF.CreationDate,2026-09-20T14:32:54-04:00
; #@! TF.GenerationSoftware,Kicad,Pcbnew,10.0.6
; #@! TF.FileFunction,Plated,1,2,PTH
FMAT,2
METRIC
; #@! TA.AperFunction,Plated,PTH,ViaDrill
T1C0.300
; #@! TA.AperFunction,Plated,PTH,ViaDrill
T2C0.400
; #@! TA.AperFunction,Plated,PTH,ComponentDrill
T3C0.500
; #@! TA.AperFunction,Plated,PTH,ComponentDrill
T4C0.600
; #@! TA.AperFunction,Plated,PTH,ComponentDrill
T5C3.200
; #@! TA.AperFunction,Plated,PTH,ComponentDrill
T6C3.700
%
G90
G05
T1
X8.3Y-4.3
X8.6Y-20.6
X8.6Y-21.95
X8.6Y-24.5
X9.32Y-6.5
X9.6Y-21.15
X9.6Y-22.65
X11.7Y-19.1
X11.8Y-23.65
X12.0Y-12.0
X12.0Y-30.0
X13.0Y-4.3
X13.3Y-17.6
X13.3Y-21.5
X14.04Y-6.4
X14.5Y-27.0
X15.15Y-4.3
X15.2Y-25.1
X16.0Y-6.0
X17.0Y-20.3
X19.4Y-33.7
X20.0Y-9.0
X21.8Y-22.8
X21.8Y-25.1
X22.2Y-27.5
X25.77Y-36.4
X28.28Y-13.8
X28.28Y-29.2
X33.0Y-21.5
X35.0Y-9.0
X35.0Y-34.5
X40.0Y-21.5
X45.0Y-9.0
X45.0Y-34.5
T2
X9.4Y-16.15
X10.35Y-16.15
X15.0Y-2.2
X16.2Y-2.2
X18.2Y-8.0
X21.3Y-1.75
X21.3Y-6.85
X28.07Y-38.1
X32.9Y-3.2
X32.9Y-5.4
T3
X1.6Y-4.0
X1.6Y-36.5
X2.303Y-2.303
X2.303Y-5.697
X2.303Y-34.803
X2.303Y-38.197
X4.0Y-1.6
X4.0Y-6.4
X4.0Y-34.1
X4.0Y-38.9
X5.697Y-2.303
X5.697Y-5.697
X5.697Y-34.803
X5.697Y-38.197
X6.4Y-4.0
X6.4Y-36.5
X50.1Y-4.0
X50.1Y-36.5
X50.803Y-2.303
X50.803Y-5.697
X50.803Y-34.803
X50.803Y-38.197
X52.5Y-1.6
X52.5Y-6.4
X52.5Y-34.1
X52.5Y-38.9
X54.197Y-2.303
X54.197Y-5.697
X54.197Y-34.803
X54.197Y-38.197
X54.9Y-4.0
X54.9Y-36.5
T5
X4.0Y-4.0
X4.0Y-36.5
X52.5Y-4.0
X52.5Y-36.5
T6
X51.75Y-21.5
T4
X2.4Y-17.18G85X1.8Y-17.18
G05
X2.4Y-25.82G85X1.8Y-25.82
G05
X6.83Y-17.18G85X5.73Y-17.18
G05
X6.83Y-25.82G85X5.73Y-25.82
G05
M30
