#VRML V2.0 utf8
# generated by build_models.py from the MLD-NGFF-E-4.2H drawing
Shape { appearance Appearance { material Material { diffuseColor 0.05 0.45 0.15 ambientIntensity 0.3 specularColor 0.2 0.2 0.2 shininess 0.3 transparency 0.35 } }
  geometry IndexedFaceSet { solid FALSE coord Coordinate { point [ -4.33071 -11.71260 0.99213, 4.33071 -11.71260 0.99213, -4.33071 0.09843 0.99213, 4.33071 0.09843 0.99213, -4.33071 -11.71260 1.30709, 4.33071 -11.71260 1.30709, -4.33071 0.09843 1.30709, 4.33071 0.09843 1.30709 ] }
  coordIndex [ 0,2,3,1,-1, 4,5,7,6,-1, 0,1,5,4,-1, 2,6,7,3,-1, 0,4,6,2,-1, 1,3,7,5,-1 ] } }
Shape { appearance Appearance { material Material { diffuseColor 0.9 0.8 0.2 ambientIntensity 0.3 specularColor 0.2 0.2 0.2 shininess 0.3 transparency 0.75 } }
  geometry IndexedFaceSet { solid FALSE coord Coordinate { point [ -4.33071 -10.33465 1.30709, 4.33071 -10.33465 1.30709, -4.33071 -1.47638 1.30709, 4.33071 -1.47638 1.30709, -4.33071 -10.33465 1.89764, 4.33071 -10.33465 1.89764, -4.33071 -1.47638 1.89764, 4.33071 -1.47638 1.89764 ] }
  coordIndex [ 0,2,3,1,-1, 4,5,7,6,-1, 0,1,5,4,-1, 2,6,7,3,-1, 0,4,6,2,-1, 1,3,7,5,-1 ] } }
Shape { appearance Appearance { material Material { diffuseColor 0.95 0.5 0.1 ambientIntensity 0.3 specularColor 0.2 0.2 0.2 shininess 0.3 transparency 0.75 } }
  geometry IndexedFaceSet { solid FALSE coord Coordinate { point [ -4.33071 -10.33465 0.46063, 4.33071 -10.33465 0.46063, -4.33071 -1.94882 0.46063, 4.33071 -1.94882 0.46063, -4.33071 -10.33465 0.99213, 4.33071 -10.33465 0.99213, -4.33071 -1.94882 0.99213, 4.33071 -1.94882 0.99213 ] }
  coordIndex [ 0,2,3,1,-1, 4,5,7,6,-1, 0,1,5,4,-1, 2,6,7,3,-1, 0,4,6,2,-1, 1,3,7,5,-1 ] } }
