#VRML V2.0 utf8
# generated by build_models.py from the MLD-NGFF-E-4.2H drawing
Shape { appearance Appearance { material Material { diffuseColor 0.12 0.12 0.13 ambientIntensity 0.3 specularColor 0.2 0.2 0.2 shininess 0.3 transparency 0 } }
  geometry IndexedFaceSet { solid FALSE coord Coordinate { point [ -4.33071 -1.33858 0.00000, 4.33071 -1.33858 0.00000, -4.33071 1.37795 0.00000, 4.33071 1.37795 0.00000, -4.33071 -1.33858 0.97244, 4.33071 -1.33858 0.97244, -4.33071 1.37795 0.97244, 4.33071 1.37795 0.97244 ] }
  coordIndex [ 0,2,3,1,-1, 4,5,7,6,-1, 0,1,5,4,-1, 2,6,7,3,-1, 0,4,6,2,-1, 1,3,7,5,-1 ] } }
Shape { appearance Appearance { material Material { diffuseColor 0.12 0.12 0.13 ambientIntensity 0.3 specularColor 0.2 0.2 0.2 shininess 0.3 transparency 0 } }
  geometry IndexedFaceSet { solid FALSE coord Coordinate { point [ -4.33071 0.09843 0.97244, 4.33071 0.09843 0.97244, -4.33071 1.37795 0.97244, 4.33071 1.37795 0.97244, -4.33071 0.09843 1.65354, 4.33071 0.09843 1.65354, -4.33071 1.37795 1.65354, 4.33071 1.37795 1.65354 ] }
  coordIndex [ 0,2,3,1,-1, 4,5,7,6,-1, 0,1,5,4,-1, 2,6,7,3,-1, 0,4,6,2,-1, 1,3,7,5,-1 ] } }
Shape { appearance Appearance { material Material { diffuseColor 0.12 0.12 0.13 ambientIntensity 0.3 specularColor 0.2 0.2 0.2 shininess 0.3 transparency 0 } }
  geometry IndexedFaceSet { solid FALSE coord Coordinate { point [ -4.33071 -0.66142 1.34646, 4.33071 -0.66142 1.34646, -4.33071 0.09843 1.34646, 4.33071 0.09843 1.34646, -4.33071 -0.66142 1.65354, 4.33071 -0.66142 1.65354, -4.33071 0.09843 1.65354, 4.33071 0.09843 1.65354 ] }
  coordIndex [ 0,2,3,1,-1, 4,5,7,6,-1, 0,1,5,4,-1, 2,6,7,3,-1, 0,4,6,2,-1, 1,3,7,5,-1 ] } }
